<?xml version="1.0" encoding="UTF-8" standalone="no"?><svg xmlns="http://www.w3.org/2000/svg" xmlns:xlink="http://www.w3.org/1999/xlink" contentStyleType="text/css" height="1193px" preserveAspectRatio="none" style="width:1410px;height:1193px;background:#FFFFFF;" version="1.1" viewBox="0 0 1410 1193" width="1410px" zoomAndPan="magnify"><defs/><g><!--MD5=[eecf08effb9a3500bf047cad2b0caad4]
cluster **download-ontologies.sh**--><g id="cluster_**download-ontologies.sh**"><rect fill="none" height="706" rx="2.5" ry="2.5" style="stroke:#181818;stroke-width:1.0;" width="1376" x="7" y="7"/><text fill="#000000" font-family="sans-serif" font-size="14" font-weight="bold" lengthAdjust="spacing" textLength="169" x="610.5" y="23.5332">download-ontologies.sh</text></g><!--MD5=[d1ed0d2940ccad314a24ccbc4df5340e]
entity wikidata--><g id="elem_wikidata"><path d="M608.3849,261.8229 C612.17,256.5936 616.1016,255.0766 620.2315,261.4715 C623.1326,255.234 627.6398,255.3021 632.1608,259.6453 C636.6221,254.6354 640.2923,254.6843 644.1419,260.3329 C647.0743,253.5844 651.8156,253.7128 655.8972,259.2317 C659.7221,253.2685 663.794,252.8481 667.6874,259.1659 C670.3774,254.3378 674.0559,253.3008 677.8653,257.9659 C681.1907,252.1501 687.2067,251.0309 690.8818,257.5983 C694.1937,251.6566 698.4474,252.584 701.9829,257.3668 C705.3066,252.7357 710.3041,253.6964 712.5287,258.5844 C716.5285,251.987 722.2101,252.1445 725.9063,258.8887 C729.6523,254.2866 732.7732,253.9531 736.2199,259.202 C740.1293,253.5265 744.4962,254.9215 747.3661,260.2545 C751.7689,254.8797 756.773,255.2966 759.6929,261.7942 C763.133,255.886 768.4564,256.8322 771.5545,262.1554 C780.7316,262.6298 784.654,270.2881 780.1323,278.1219 C784.7087,286.2844 779.9023,293.6715 770.7277,293.3309 C768.3065,300.1525 762.2475,299.8505 758.4666,294.7265 C755.9176,300.9096 752.0441,301.3581 747.2506,297.1488 C743.9091,301.7517 739.5933,303.3473 735.9861,297.4334 C732.8053,302.9288 727.8885,303.5171 723.753,298.5496 C720.578,304.7223 716.8908,304.6485 712.7664,299.4683 C709.8206,304.2019 705.7001,304.6049 702.2885,299.9903 C699.7821,307.1253 695.5149,307.3742 690.3625,302.6516 C685.0028,307.0885 680.5508,306.9719 677.9174,299.7433 C674.7009,305.8637 669.3132,305.4532 666.242,299.6016 C662.361,303.8307 659.2548,303.8128 656.447,298.4998 C652.8981,304.2117 646.1036,304.3952 642.7634,298.2586 C638.8479,302.1658 635.0328,301.8718 632.1022,297.055 C627.5027,301.7864 624.2054,300.6344 621.4951,295.1026 C616.9506,299.9864 612.121,299.0015 609.5934,292.9146 C601.7962,290.7258 599.0112,285.0003 605.606,278.7578 C597.6276,272.5836 598.6021,265.0826 608.3849,261.8229 " fill="#98FB98" style="stroke:#181818;stroke-width:0.5;"/><text fill="#000000" font-family="sans-serif" font-size="14" lengthAdjust="spacing" textLength="148" x="615" y="282.5332">Wikidata Query Service</text></g><!--MD5=[4f3fda2a26ed6827899a217a03a4679b]
entity musicClasses.rq--><g id="elem_musicClasses.rq"><path d="M441.5,260.5 L441.5,293.1094 A2.5,2.5 0 0 0 444,295.6094 L562,295.6094 A2.5,2.5 0 0 0 564.5,293.1094 L564.5,268 L554.5,258 L444,258 A2.5,2.5 0 0 0 441.5,260.5 " fill="#F1F1F1" style="stroke:#181818;stroke-width:0.5;"/><path d="M554.5,258 L554.5,265.5 A2.5,2.5 0 0 0 557,268 L564.5,268 " fill="#F1F1F1" style="stroke:#181818;stroke-width:0.5;"/><text fill="#000000" font-family="sans-serif" font-size="14" lengthAdjust="spacing" textLength="103" x="451.5" y="282.5332">musicClasses.rq</text></g><!--MD5=[1ae5480ab04e600e57bef7b3e1bc37e6]
entity musicDataProperties.rq--><g id="elem_musicDataProperties.rq"><path d="M238,260.5 L238,293.1094 A2.5,2.5 0 0 0 240.5,295.6094 L403.5,295.6094 A2.5,2.5 0 0 0 406,293.1094 L406,268 L396,258 L240.5,258 A2.5,2.5 0 0 0 238,260.5 " fill="#F1F1F1" style="stroke:#181818;stroke-width:0.5;"/><path d="M396,258 L396,265.5 A2.5,2.5 0 0 0 398.5,268 L406,268 " fill="#F1F1F1" style="stroke:#181818;stroke-width:0.5;"/><text fill="#000000" font-family="sans-serif" font-size="14" lengthAdjust="spacing" textLength="148" x="248" y="282.5332">musicDataProperties.rq</text></g><!--MD5=[02477bb51d6f2abde25f7a7b8c6b1b41]
entity musicObjectProperties.rq--><g id="elem_musicObjectProperties.rq"><path d="M23.5,260.5 L23.5,293.1094 A2.5,2.5 0 0 0 26,295.6094 L200,295.6094 A2.5,2.5 0 0 0 202.5,293.1094 L202.5,268 L192.5,258 L26,258 A2.5,2.5 0 0 0 23.5,260.5 " fill="#F1F1F1" style="stroke:#181818;stroke-width:0.5;"/><path d="M192.5,258 L192.5,265.5 A2.5,2.5 0 0 0 195,268 L202.5,268 " fill="#F1F1F1" style="stroke:#181818;stroke-width:0.5;"/><text fill="#000000" font-family="sans-serif" font-size="14" lengthAdjust="spacing" textLength="159" x="33.5" y="282.5332">musicObjectProperties.rq</text></g><!--MD5=[a44a8642345c9bd3265b18967f991e48]
entity musicClasses.rdf--><g id="elem_musicClasses.rdf"><path d="M29.5,465.5 L29.5,498.1094 A2.5,2.5 0 0 0 32,500.6094 L154,500.6094 A2.5,2.5 0 0 0 156.5,498.1094 L156.5,473 L146.5,463 L32,463 A2.5,2.5 0 0 0 29.5,465.5 " fill="#F1F1F1" style="stroke:#181818;stroke-width:0.5;"/><path d="M146.5,463 L146.5,470.5 A2.5,2.5 0 0 0 149,473 L156.5,473 " fill="#F1F1F1" style="stroke:#181818;stroke-width:0.5;"/><text fill="#000000" font-family="sans-serif" font-size="14" lengthAdjust="spacing" textLength="107" x="39.5" y="487.5332">musicClasses.rdf</text></g><!--MD5=[fddc5042e831da55c485c78539a0643f]
entity musicDataProperties.rdf--><g id="elem_musicDataProperties.rdf"><path d="M410,465.5 L410,498.1094 A2.5,2.5 0 0 0 412.5,500.6094 L579.5,500.6094 A2.5,2.5 0 0 0 582,498.1094 L582,473 L572,463 L412.5,463 A2.5,2.5 0 0 0 410,465.5 " fill="#F1F1F1" style="stroke:#181818;stroke-width:0.5;"/><path d="M572,463 L572,470.5 A2.5,2.5 0 0 0 574.5,473 L582,473 " fill="#F1F1F1" style="stroke:#181818;stroke-width:0.5;"/><text fill="#000000" font-family="sans-serif" font-size="14" lengthAdjust="spacing" textLength="152" x="420" y="487.5332">musicDataProperties.rdf</text></g><!--MD5=[9577a432a34fea0bde19b8fde32a0e3f]
entity musicObjectProperties.rdf--><g id="elem_musicObjectProperties.rdf"><path d="M191.5,465.5 L191.5,498.1094 A2.5,2.5 0 0 0 194,500.6094 L372,500.6094 A2.5,2.5 0 0 0 374.5,498.1094 L374.5,473 L364.5,463 L194,463 A2.5,2.5 0 0 0 191.5,465.5 " fill="#F1F1F1" style="stroke:#181818;stroke-width:0.5;"/><path d="M364.5,463 L364.5,470.5 A2.5,2.5 0 0 0 367,473 L374.5,473 " fill="#F1F1F1" style="stroke:#181818;stroke-width:0.5;"/><text fill="#000000" font-family="sans-serif" font-size="14" lengthAdjust="spacing" textLength="163" x="201.5" y="487.5332">musicObjectProperties.rdf</text></g><!--MD5=[3a3be6e96ddbe0571b5c6462cbc2c851]
entity music.owl--><g id="elem_music.owl"><path d="M535,661.5 L535,694.1094 A2.5,2.5 0 0 0 537.5,696.6094 L612.5,696.6094 A2.5,2.5 0 0 0 615,694.1094 L615,669 L605,659 L537.5,659 A2.5,2.5 0 0 0 535,661.5 " fill="#98FB98" style="stroke:#181818;stroke-width:0.5;"/><path d="M605,659 L605,666.5 A2.5,2.5 0 0 0 607.5,669 L615,669 " fill="#98FB98" style="stroke:#181818;stroke-width:0.5;"/><text fill="#000000" font-family="sans-serif" font-size="14" lengthAdjust="spacing" textLength="60" x="545" y="683.5332">music.owl</text></g><!--MD5=[b26e33af4efe7e85255006198f610fa2]
entity wd1--><g id="elem_wd1"><rect fill="#F0F8FF" height="37.6094" rx="2.5" ry="2.5" style="stroke:#181818;stroke-width:0.5;" width="283" x="180.5" y="365"/><text fill="#000000" font-family="sans-serif" font-size="14" font-weight="bold" lengthAdjust="spacing" textLength="168" x="190.5" y="389.5332">download-ontologies.py</text><text fill="#000000" font-family="sans-serif" font-size="14" lengthAdjust="spacing" textLength="91" x="362.5" y="389.5332">(part 1 - fetch)</text></g><!--MD5=[792803811762f973c57f9f61acc6e1f4]
entity wd2--><g id="elem_wd2"><rect fill="#F0F8FF" height="37.6094" rx="2.5" ry="2.5" style="stroke:#181818;stroke-width:0.5;" width="292" x="359" y="561"/><text fill="#000000" font-family="sans-serif" font-size="14" font-weight="bold" lengthAdjust="spacing" textLength="168" x="369" y="585.5332">download-ontologies.py</text><text fill="#000000" font-family="sans-serif" font-size="14" lengthAdjust="spacing" textLength="100" x="541" y="585.5332">(part 2 - merge)</text></g><!--MD5=[5724ae74e62823c018648cb2a340b2f4]
entity polifonia--><g id="elem_polifonia"><path d="M906.976,51.1865 C911.1741,46.2998 914.9171,46.6374 918.5487,51.8365 C921.687,46.2987 926.1481,44.9098 930.2616,50.8404 C933.5533,44.5449 939.2312,43.7299 943.4768,49.8228 C947.09,42.3906 951.3363,42.8618 956.8831,47.7123 C959.7668,41.585 965.427,39.3112 970.0131,45.9631 C974.3964,39.3639 979.7304,40.1939 982.7431,47.2416 C987.2643,42.3037 993.2894,42.8236 995.3343,49.8481 C999.0254,43.6232 1003.1087,44.794 1007.115,49.5087 C1011.539,42.8862 1016.4545,43.45 1020.0784,50.2798 C1025.0562,45.793 1029.2606,44.6659 1032.5025,52.0903 C1041.8227,55.2053 1041.1962,62.8256 1034.7732,68.1646 C1040.6869,73.6097 1038.5505,80.9414 1031.36,83.4629 C1027.5087,89.1969 1023.5409,89.5984 1019.8703,83.2905 C1016.2684,89.9236 1010.8119,90.3827 1005.8693,84.8311 C1001.584,90.7154 996.2775,90.3085 993.3835,83.4661 C990.711,90.0566 985.9582,90.9904 981.4288,85.2692 C977.0777,91.891 972.2291,91.8463 968.1379,85.0123 C964.4359,90.6211 958.8213,89.9687 956.4004,83.7419 C953.3521,88.7215 948.4163,88.9337 944.7846,84.4587 C939.7298,89.6348 935.3734,89.7539 931.4558,83.1699 C927.9742,90.2349 921.3487,89.6206 917.7171,83.3241 C914.0588,88.0754 910.0134,88.7888 906.8117,82.8579 C898.383,82.2157 895.6375,74.9385 899.6894,68.2226 C893.1105,59.321 896.4037,52.7523 906.976,51.1865 " fill="#98FB98" style="stroke:#181818;stroke-width:0.5;"/><text fill="#000000" font-family="sans-serif" font-size="14" lengthAdjust="spacing" textLength="112" x="912" y="72.5332">Polifonia ontology</text></g><!--MD5=[78fee9e0a9bcfb7f2468c748de35aa77]
entity downpolifonia--><g id="elem_downpolifonia"><rect fill="#F0F8FF" height="37.6094" rx="2.5" ry="2.5" style="stroke:#181818;stroke-width:0.5;" width="246" x="761" y="151"/><text fill="#000000" font-family="sans-serif" font-size="14" lengthAdjust="spacing" textLength="57" x="771" y="175.5332">polifonia/</text><text fill="#000000" font-family="sans-serif" font-size="14" font-weight="bold" lengthAdjust="spacing" textLength="169" x="828" y="175.5332">download-ontologies.sh</text></g><!--MD5=[7559448643236101e8d30086b2ca9c10]
entity namespaces.csv--><g id="elem_namespaces.csv"><path d="M736.5,50.5 L736.5,83.1094 A2.5,2.5 0 0 0 739,85.6094 L859,85.6094 A2.5,2.5 0 0 0 861.5,83.1094 L861.5,58 L851.5,48 L739,48 A2.5,2.5 0 0 0 736.5,50.5 " fill="#F1F1F1" style="stroke:#181818;stroke-width:0.5;"/><path d="M851.5,48 L851.5,55.5 A2.5,2.5 0 0 0 854,58 L861.5,58 " fill="#F1F1F1" style="stroke:#181818;stroke-width:0.5;"/><text fill="#000000" font-family="sans-serif" font-size="14" lengthAdjust="spacing" textLength="105" x="746.5" y="72.5332">namespaces.csv</text></g><!--MD5=[73c35498f2a02e970c3faca1330d398c]
entity polifoniaowl--><g id="elem_polifoniaowl"><path d="M816,249 L857,249 A3.75,3.75 0 0 1 859.5,251.5 L866.5,270 L952,270 A2.5,2.5 0 0 1 954.5,272.5 L954.5,302.1094 A2.5,2.5 0 0 1 952,304.6094 L816,304.6094 A2.5,2.5 0 0 1 813.5,302.1094 L813.5,251.5 A2.5,2.5 0 0 1 816,249 " fill="#98FB98" style="stroke:#181818;stroke-width:0.5;"/><line style="stroke:#181818;stroke-width:0.5;" x1="813.5" x2="866.5" y1="270" y2="270"/><text fill="#000000" font-family="sans-serif" font-size="14" lengthAdjust="spacing" textLength="111" x="823.5" y="291.5332">polifonia/ontology</text></g><g id="elem_GMN32"><path d="M989.5,264 L989.5,273 L954.63,277 L989.5,281 L989.5,290.3516 A0,0 0 0 0 989.5,290.3516 L1366.5,290.3516 A0,0 0 0 0 1366.5,290.3516 L1366.5,274 L1356.5,264 L989.5,264 A0,0 0 0 0 989.5,264 " fill="#FEFFDD" style="stroke:#181818;stroke-width:0.5;"/><path d="M1356.5,264 L1356.5,274 L1366.5,274 L1356.5,264 " fill="#FEFFDD" style="stroke:#181818;stroke-width:0.5;"/><text fill="#000000" font-family="sans-serif" font-size="13" lengthAdjust="spacing" textLength="356" x="995.5" y="282.4951">See owl-imports-graph.svg for the patches applied to fix errors</text></g><!--MD5=[5841ba748950356aeaa1b954b6dde3b6]
entity get_known_mappings--><g id="elem_get_known_mappings"><rect fill="#F0F8FF" height="37.6094" rx="2.5" ry="2.5" style="stroke:#181818;stroke-width:0.5;" width="193" x="781.5" y="365"/><text fill="#000000" font-family="sans-serif" font-size="14" font-weight="bold" lengthAdjust="spacing" textLength="173" x="791.5" y="389.5332">get_known_mappings.py</text></g><!--MD5=[755c5f58ada36855c23cee21a828b0fc]
entity known_mappings.tsv--><g id="elem_known_mappings.tsv"><path d="M617.5,465.5 L617.5,498.1094 A2.5,2.5 0 0 0 620,500.6094 L766,500.6094 A2.5,2.5 0 0 0 768.5,498.1094 L768.5,473 L758.5,463 L620,463 A2.5,2.5 0 0 0 617.5,465.5 " fill="#F1F1F1" style="stroke:#181818;stroke-width:0.5;"/><path d="M758.5,463 L758.5,470.5 A2.5,2.5 0 0 0 761,473 L768.5,473 " fill="#F1F1F1" style="stroke:#181818;stroke-width:0.5;"/><text fill="#000000" font-family="sans-serif" font-size="14" lengthAdjust="spacing" textLength="131" x="627.5" y="487.5332">known_mappings.tsv</text></g><!--MD5=[dcc2b970af72336f7d4d820fb5cbb08d]
entity polifonia_wikidata--><g id="elem_polifonia_wikidata"><path d="M987.5,465.5 L987.5,498.1094 A2.5,2.5 0 0 0 990,500.6094 L1192,500.6094 A2.5,2.5 0 0 0 1194.5,498.1094 L1194.5,473 L1184.5,463 L990,463 A2.5,2.5 0 0 0 987.5,465.5 " fill="#F1F1F1" style="stroke:#181818;stroke-width:0.5;"/><path d="M1184.5,463 L1184.5,470.5 A2.5,2.5 0 0 0 1187,473 L1194.5,473 " fill="#F1F1F1" style="stroke:#181818;stroke-width:0.5;"/><text fill="#000000" font-family="sans-serif" font-size="14" lengthAdjust="spacing" textLength="187" x="997.5" y="487.5332">wikidata/polifonia_wikidata.tsv</text></g><!--MD5=[8033b862fb1bb83eadd06349bdae6214]
entity known_mappings.nq--><g id="elem_known_mappings.nq"><path d="M803.5,465.5 L803.5,498.1094 A2.5,2.5 0 0 0 806,500.6094 L950,500.6094 A2.5,2.5 0 0 0 952.5,498.1094 L952.5,473 L942.5,463 L806,463 A2.5,2.5 0 0 0 803.5,465.5 " fill="#98FB98" style="stroke:#181818;stroke-width:0.5;"/><path d="M942.5,463 L942.5,470.5 A2.5,2.5 0 0 0 945,473 L952.5,473 " fill="#98FB98" style="stroke:#181818;stroke-width:0.5;"/><text fill="#000000" font-family="sans-serif" font-size="14" lengthAdjust="spacing" textLength="129" x="813.5" y="487.5332">known_mappings.nq</text></g><g id="elem_GMN39"><path d="M695,567 L695,593.3516 A0,0 0 0 0 695,593.3516 L1061,593.3516 A0,0 0 0 0 1061,593.3516 L1061,577 L1051,567 L882,567 L878,501.06 L874,567 L695,567 A0,0 0 0 0 695,567 " fill="#FEFFDD" style="stroke:#181818;stroke-width:0.5;"/><path d="M1051,567 L1051,577 L1061,577 L1051,567 " fill="#FEFFDD" style="stroke:#181818;stroke-width:0.5;"/><text fill="#000000" font-family="sans-serif" font-size="13" lengthAdjust="spacing" textLength="345" x="701" y="585.4951">Includes some manual matches, mainly for the core module</text></g><!--MD5=[389860a1d1ef945b34134be47b1372a9]
entity notebook--><g id="elem_notebook"><rect fill="#F0F8FF" height="37.6094" rx="2.5" ry="2.5" style="stroke:#181818;stroke-width:0.5;" width="234" x="599" y="757"/><text fill="#000000" font-family="sans-serif" font-size="14" lengthAdjust="spacing" textLength="60" x="609" y="781.5332">Notebook</text><text fill="#000000" font-family="sans-serif" font-size="14" font-weight="bold" lengthAdjust="spacing" textLength="150" x="673" y="781.5332">bertmap_match.ipynb</text></g><!--MD5=[6b785f8ac55ff1e4cefb0022ae76bf54]
entity yml--><g id="elem_yml"><path d="M458.5,759.5 L458.5,792.1094 A2.5,2.5 0 0 0 461,794.6094 L561,794.6094 A2.5,2.5 0 0 0 563.5,792.1094 L563.5,767 L553.5,757 L461,757 A2.5,2.5 0 0 0 458.5,759.5 " fill="#F1F1F1" style="stroke:#181818;stroke-width:0.5;"/><path d="M553.5,757 L553.5,764.5 A2.5,2.5 0 0 0 556,767 L563.5,767 " fill="#F1F1F1" style="stroke:#181818;stroke-width:0.5;"/><text fill="#000000" font-family="sans-serif" font-size="14" lengthAdjust="spacing" textLength="85" x="468.5" y="781.5332">bertmap.yaml</text></g><!--MD5=[733ce2bb84e70bd21f911b8d7f047380]
entity repaired--><g id="elem_repaired"><path d="M635,857.5 L635,890.1094 A2.5,2.5 0 0 0 637.5,892.6094 L856.5,892.6094 A2.5,2.5 0 0 0 859,890.1094 L859,865 L849,855 L637.5,855 A2.5,2.5 0 0 0 635,857.5 " fill="#F1F1F1" style="stroke:#181818;stroke-width:0.5;"/><path d="M849,855 L849,862.5 A2.5,2.5 0 0 0 851.5,865 L859,865 " fill="#F1F1F1" style="stroke:#181818;stroke-width:0.5;"/><text fill="#000000" font-family="sans-serif" font-size="14" lengthAdjust="spacing" textLength="204" x="645" y="879.5332">bertmap_repaired_mappings.tsv</text></g><!--MD5=[659ea1eae1dd7bef357c7c1ee80bb90e]
entity all_with_bertmap.tsv--><g id="elem_all_with_bertmap.tsv"><path d="M1214,955.5 L1214,988.1094 A2.5,2.5 0 0 0 1216.5,990.6094 L1359.5,990.6094 A2.5,2.5 0 0 0 1362,988.1094 L1362,963 L1352,953 L1216.5,953 A2.5,2.5 0 0 0 1214,955.5 " fill="#F1F1F1" style="stroke:#181818;stroke-width:0.5;"/><path d="M1352,953 L1352,960.5 A2.5,2.5 0 0 0 1354.5,963 L1362,963 " fill="#F1F1F1" style="stroke:#181818;stroke-width:0.5;"/><text fill="#000000" font-family="sans-serif" font-size="14" lengthAdjust="spacing" textLength="128" x="1224" y="977.5332">all_with_bertmap.tsv</text></g><!--MD5=[943f14d3cd46a29189c41567e7428d6d]
entity merge_true_with_bertmap--><g id="elem_merge_true_with_bertmap"><rect fill="#F0F8FF" height="37.6094" rx="2.5" ry="2.5" style="stroke:#181818;stroke-width:0.5;" width="225" x="1175.5" y="855"/><text fill="#000000" font-family="sans-serif" font-size="14" font-weight="bold" lengthAdjust="spacing" textLength="205" x="1185.5" y="879.5332">merge_true_with_bertmap.py</text></g><g id="elem_GMN58"><path d="M513,959 L513,985.3516 A0,0 0 0 0 513,985.3516 L1179,985.3516 A0,0 0 0 0 1179,985.3516 L1179,977 L1213.64,972 L1179,969 L1179,969 L1169,959 L513,959 A0,0 0 0 0 513,959 " fill="#FEFFDD" style="stroke:#181818;stroke-width:0.5;"/><path d="M1169,959 L1169,969 L1179,969 L1169,959 " fill="#FEFFDD" style="stroke:#181818;stroke-width:0.5;"/><text fill="#000000" font-family="sans-serif" font-size="13" lengthAdjust="spacing" textLength="645" x="519" y="977.4951">Manual (true) matches are added to all classes which have a Bertmap (predicted) match and no known mapping</text></g><!--MD5=[458561199ace05383467b209cb9e3458]
entity evaluate--><g id="elem_evaluate"><rect fill="#F0F8FF" height="37.6094" rx="2.5" ry="2.5" style="stroke:#181818;stroke-width:0.5;" width="233" x="1171.5" y="1051"/><text fill="#000000" font-family="sans-serif" font-size="14" font-weight="bold" lengthAdjust="spacing" textLength="213" x="1181.5" y="1075.5332">evaultate_all_with_bertmap.py</text></g><!--MD5=[b7878542113b637f13679d462e470c05]
entity report.txt--><g id="elem_report.txt"><path d="M1250,1151.5 L1250,1184.1094 A2.5,2.5 0 0 0 1252.5,1186.6094 L1323.5,1186.6094 A2.5,2.5 0 0 0 1326,1184.1094 L1326,1159 L1316,1149 L1252.5,1149 A2.5,2.5 0 0 0 1250,1151.5 " fill="#F1F1F1" style="stroke:#181818;stroke-width:0.5;"/><path d="M1316,1149 L1316,1156.5 A2.5,2.5 0 0 0 1318.5,1159 L1326,1159 " fill="#F1F1F1" style="stroke:#181818;stroke-width:0.5;"/><text fill="#000000" font-family="sans-serif" font-size="14" lengthAdjust="spacing" textLength="56" x="1260" y="1173.5332">report.txt</text></g><!--MD5=[a9710f8c88618c05715ffe4c277dfce2]
link musicClasses.rq to wd1--><g id="link_musicClasses.rq_wd1"><path d="M471.88,296.05 C440.16,314.46 390.99,342.98 357.7,362.29 " fill="none" id="musicClasses.rq-to-wd1" style="stroke:#181818;stroke-width:1.0;"/><polygon fill="#181818" points="353.31,364.83,363.1015,363.7684,357.6335,362.3186,359.0833,356.8507,353.31,364.83" style="stroke:#181818;stroke-width:1.0;"/></g><!--MD5=[aa5dbced5e32bd737265af757fc99254]
link musicDataProperties.rq to wd1--><g id="link_musicDataProperties.rq_wd1"><path d="M322,296.29 C322,313.91 322,340.62 322,359.74 " fill="none" id="musicDataProperties.rq-to-wd1" style="stroke:#181818;stroke-width:1.0;"/><polygon fill="#181818" points="322,364.92,326,355.92,322,359.92,318,355.92,322,364.92" style="stroke:#181818;stroke-width:1.0;"/></g><!--MD5=[4848bc98fe42ad88255a2d9b3b67ee69]
link musicObjectProperties.rq to wd1--><g id="link_musicObjectProperties.rq_wd1"><path d="M148.93,296.05 C185.71,314.53 242.8,343.21 281.25,362.53 " fill="none" id="musicObjectProperties.rq-to-wd1" style="stroke:#181818;stroke-width:1.0;"/><polygon fill="#181818" points="285.84,364.83,279.5985,357.2114,281.3736,362.5825,276.0025,364.3576,285.84,364.83" style="stroke:#181818;stroke-width:1.0;"/></g><!--MD5=[767d0499dceeb32d4477320328e78108]
link wikidata to wd1--><g id="link_wikidata_wd1"><path d="M608.46,301.04 C543.09,319.74 451.96,345.82 390.16,363.5 " fill="none" id="wikidata-to-wd1" style="stroke:#181818;stroke-width:1.0;"/><polygon fill="#181818" points="385.02,364.97,394.7715,366.3513,389.8287,363.6002,392.5798,358.6573,385.02,364.97" style="stroke:#181818;stroke-width:1.0;"/></g><!--MD5=[806e7d69961591b20ad38cbb6e1394ca]
link wd1 to musicClasses.rdf--><g id="link_wd1_musicClasses.rdf"><path d="M278.93,403.06 C239.71,419.5 181.88,443.74 141.15,460.82 " fill="none" id="wd1-to-musicClasses.rdf" style="stroke:#181818;stroke-width:1.0;"/><polygon fill="#181818" points="136.27,462.86,146.1169,463.054,140.8782,460.9197,143.0125,455.6809,136.27,462.86" style="stroke:#181818;stroke-width:1.0;"/></g><!--MD5=[c988c311ea40943757ebe8f7a08dc319]
link wd1 to musicDataProperties.rdf--><g id="link_wd1_musicDataProperties.rdf"><path d="M354.73,403.06 C384.28,419.36 427.76,443.35 458.66,460.4 " fill="none" id="wd1-to-musicDataProperties.rdf" style="stroke:#181818;stroke-width:1.0;"/><polygon fill="#181818" points="463.12,462.86,457.1647,455.0156,458.7398,460.4488,453.3067,462.0239,463.12,462.86" style="stroke:#181818;stroke-width:1.0;"/></g><!--MD5=[05fbbcada81465b557f6210ff25988a1]
link wd1 to musicObjectProperties.rdf--><g id="link_wd1_musicObjectProperties.rdf"><path d="M314.66,403.06 C308.39,418.51 299.3,440.86 292.48,457.67 " fill="none" id="wd1-to-musicObjectProperties.rdf" style="stroke:#181818;stroke-width:1.0;"/><polygon fill="#181818" points="290.44,462.7,297.5219,455.8556,292.3142,458.0646,290.1052,452.8568,290.44,462.7" style="stroke:#181818;stroke-width:1.0;"/></g><!--MD5=[b3b3cabd5c5f73d9ab4c9917798cb810]
link musicClasses.rdf to wd2--><g id="link_musicClasses.rdf_wd2"><path d="M156.92,497.89 C228.36,514.54 344.24,541.54 422.47,559.77 " fill="none" id="musicClasses.rdf-to-wd2" style="stroke:#181818;stroke-width:1.0;"/><polygon fill="#181818" points="427.57,560.96,419.7215,555.0101,422.7022,559.818,417.8943,562.7986,427.57,560.96" style="stroke:#181818;stroke-width:1.0;"/></g><!--MD5=[8e56ce5f184257223df25506611bb3d9]
link musicDataProperties.rdf to wd2--><g id="link_musicDataProperties.rdf_wd2"><path d="M497.69,501.06 C499.14,516.51 501.24,538.86 502.81,555.67 " fill="none" id="musicDataProperties.rdf-to-wd2" style="stroke:#181818;stroke-width:1.0;"/><polygon fill="#181818" points="503.28,560.7,506.4391,551.3715,502.8222,555.721,498.4727,552.1041,503.28,560.7" style="stroke:#181818;stroke-width:1.0;"/></g><!--MD5=[d012bba0ae770f3d8d45915f7fb0f317]
link musicObjectProperties.rdf to wd2--><g id="link_musicObjectProperties.rdf_wd2"><path d="M324.76,501.06 C362.78,517.5 418.84,541.74 458.32,558.82 " fill="none" id="musicObjectProperties.rdf-to-wd2" style="stroke:#181818;stroke-width:1.0;"/><polygon fill="#181818" points="463.05,560.86,456.3805,553.6131,458.4617,558.8732,453.2016,560.9543,463.05,560.86" style="stroke:#181818;stroke-width:1.0;"/></g><!--MD5=[ab0fb1b3be1f7be33bf5a837a46a2b9a]
link wd2 to music.owl--><g id="link_wd2_music.owl"><path d="M518.17,599.06 C529.63,614.78 546.3,637.64 558.62,654.54 " fill="none" id="wd2-to-music.owl" style="stroke:#181818;stroke-width:1.0;"/><polygon fill="#181818" points="561.65,658.7,559.5874,649.0696,558.7074,654.6576,553.1194,653.7776,561.65,658.7" style="stroke:#181818;stroke-width:1.0;"/></g><!--MD5=[10d31651bdc400ee40923c248f74137b]
link namespaces.csv to downpolifonia--><g id="link_namespaces.csv_downpolifonia"><path d="M814.2,86.06 C828.49,103.04 849.93,128.52 865.28,146.75 " fill="none" id="namespaces.csv-to-downpolifonia" style="stroke:#181818;stroke-width:1.0;"/><polygon fill="#181818" points="868.65,150.76,865.9266,141.2952,865.435,146.9306,859.7996,146.4391,868.65,150.76" style="stroke:#181818;stroke-width:1.0;"/></g><!--MD5=[c43d99b2042eb369c788374d615a74f9]
link polifonia to downpolifonia--><g id="link_polifonia_downpolifonia"><path d="M948.73,91.17 C934.8,107.92 916.09,130.41 902.37,146.91 " fill="none" id="polifonia-to-downpolifonia" style="stroke:#181818;stroke-width:1.0;"/><polygon fill="#181818" points="899,150.97,907.8233,146.5941,902.1911,147.1207,901.6645,141.4884,899,150.97" style="stroke:#181818;stroke-width:1.0;"/></g><!--MD5=[0b89dd9ec0d127c588631ab378953fc8]
link downpolifonia to polifoniaowl--><g id="link_downpolifonia_polifoniaowl"><path d="M884,189.29 C884,204.2 884,225.63 884,243.45 " fill="none" id="downpolifonia-to-polifoniaowl" style="stroke:#181818;stroke-width:1.0;"/><polygon fill="#181818" points="884,248.86,888,239.86,884,243.86,880,239.86,884,248.86" style="stroke:#181818;stroke-width:1.0;"/></g><!--MD5=[693e28c6973154e7705ae98420c3cf75]
link known_mappings.nq to get_known_mappings--><g id="link_known_mappings.nq_get_known_mappings"><path d="M888.87,462.7 C892.06,447.17 892.35,424.81 889.73,408.06 " fill="none" id="known_mappings.nq-to-get_known_mappings" style="stroke:#181818;stroke-width:1.0;"/><polygon fill="#181818" points="888.82,403.06,886.475,412.6256,889.7044,407.9812,894.3488,411.2106,888.82,403.06" style="stroke:#181818;stroke-width:1.0;"/></g><!--MD5=[c1217cf88b0f29e8b11087854a5f63b7]
link get_known_mappings to known_mappings.nq--><g id="link_get_known_mappings_known_mappings.nq"><path d="M867.78,403.06 C864.74,418.51 864.44,440.86 866.88,457.67 " fill="none" id="get_known_mappings-to-known_mappings.nq" style="stroke:#181818;stroke-width:1.0;"/><polygon fill="#181818" points="867.73,462.7,870.187,453.1626,866.9034,457.7688,862.2971,454.4851,867.73,462.7" style="stroke:#181818;stroke-width:1.0;"/></g><!--MD5=[ed979d3b5f248501e2a88e004ba5c0c6]
link polifoniaowl to get_known_mappings--><g id="link_polifoniaowl_get_known_mappings"><path d="M882.45,305.04 C881.49,321.96 880.25,343.54 879.33,359.71 " fill="none" id="polifoniaowl-to-get_known_mappings" style="stroke:#181818;stroke-width:1.0;"/><polygon fill="#181818" points="879.03,364.97,883.5384,356.2136,879.3161,359.9782,875.5515,355.7559,879.03,364.97" style="stroke:#181818;stroke-width:1.0;"/></g><!--MD5=[2b86ac122b7d44d5d29bbd086a743867]
link wikidata to get_known_mappings--><g id="link_wikidata_get_known_mappings"><path d="M730.48,301.04 C763.41,319.34 809.05,344.7 840.81,362.34 " fill="none" id="wikidata-to-get_known_mappings" style="stroke:#181818;stroke-width:1.0;"/><polygon fill="#181818" points="845.39,364.89,839.4652,357.0226,841.0192,362.4618,835.58,364.0158,845.39,364.89" style="stroke:#181818;stroke-width:1.0;"/></g><!--MD5=[02edb1104291889b8d66dbffb484c5d6]
link get_known_mappings to known_mappings.tsv--><g id="link_get_known_mappings_known_mappings.tsv"><path d="M843.2,403.06 C811.78,419.36 765.56,443.35 732.7,460.4 " fill="none" id="get_known_mappings-to-known_mappings.tsv" style="stroke:#181818;stroke-width:1.0;"/><polygon fill="#181818" points="727.96,462.86,737.7914,462.2746,732.4003,460.5613,734.1136,455.1702,727.96,462.86" style="stroke:#181818;stroke-width:1.0;"/></g><!--MD5=[0e94c6be3513b43e7c7413ee47c196fd]
link get_known_mappings to polifonia_wikidata--><g id="link_get_known_mappings_polifonia_wikidata"><path d="M918.06,403.06 C954.39,419.43 1007.9,443.54 1045.75,460.61 " fill="none" id="get_known_mappings-to-polifonia_wikidata" style="stroke:#181818;stroke-width:1.0;"/><polygon fill="#181818" points="1050.75,462.86,1044.1928,455.5113,1046.1928,460.8028,1040.9013,462.8029,1050.75,462.86" style="stroke:#181818;stroke-width:1.0;"/></g><!--MD5=[2059ce5ff7f260f9eaad49a54173f4b8]
link yml to notebook--><g id="link_yml_notebook"><path d="M563.85,776 C573.81,776 583.76,776 593.71,776 " fill="none" id="yml-to-notebook" style="stroke:#181818;stroke-width:1.0;"/><polygon fill="#181818" points="598.92,776,589.92,772,593.92,776,589.92,780,598.92,776" style="stroke:#181818;stroke-width:1.0;"/></g><!--MD5=[38de452834f1d0d9aaa29f4e33ea06c6]
link known_mappings.tsv to notebook--><g id="link_known_mappings.tsv_notebook"><path d="M617.17,498.62 C515.29,519.79 346.36,555.57 342,561 C259.22,664.2 469.3,726.94 607.11,755.87 " fill="none" id="known_mappings.tsv-to-notebook" style="stroke:#181818;stroke-width:1.0;"/><polygon fill="#181818" points="612.39,756.97,604.4037,751.2064,607.4966,755.9428,602.7602,759.0358,612.39,756.97" style="stroke:#181818;stroke-width:1.0;"/></g><!--MD5=[c9235b93c0ca2e7328d002aab079e0eb]
link music.owl to notebook--><g id="link_music.owl_notebook"><path d="M601.52,697.06 C625.2,713.18 659.9,736.8 684.88,753.81 " fill="none" id="music.owl-to-notebook" style="stroke:#181818;stroke-width:1.0;"/><polygon fill="#181818" points="689.12,756.7,683.9364,748.3256,684.9886,753.8838,679.4304,754.9359,689.12,756.7" style="stroke:#181818;stroke-width:1.0;"/></g><!--MD5=[74f5634af1e53b4fa5692eb837be1fa0]
link polifoniaowl to notebook--><g id="link_polifoniaowl_notebook"><path d="M954.61,301.5 C1060.47,338.89 1248,414.52 1248,481 C1248,481 1248,481 1248,581 C1248,668.23 992.39,727.74 835.53,756.05 " fill="none" id="polifoniaowl-to-notebook" style="stroke:#181818;stroke-width:1.0;"/><polygon fill="#181818" points="830.45,756.96,840.009,759.3319,835.3736,756.0894,838.6161,751.4541,830.45,756.96" style="stroke:#181818;stroke-width:1.0;"/></g><!--MD5=[6dff111bf92f4e1c39efcc99d9302000]
link notebook to repaired--><g id="link_notebook_repaired"><path d="M721.83,795.06 C726.82,810.51 734.04,832.86 739.47,849.67 " fill="none" id="notebook-to-repaired" style="stroke:#181818;stroke-width:1.0;"/><polygon fill="#181818" points="741.09,854.7,742.1183,844.905,739.5475,849.9439,734.5086,847.373,741.09,854.7" style="stroke:#181818;stroke-width:1.0;"/></g><!--MD5=[6c2dbc03b475475f2613ba463c2594b9]
link polifonia_wikidata to merge_true_with_bertmap--><g id="link_polifonia_wikidata_merge_true_with_bertmap"><path d="M1100.11,501.03 C1132.25,564.67 1240.4,778.77 1276.3,849.85 " fill="none" id="polifonia_wikidata-to-merge_true_with_bertmap" style="stroke:#181818;stroke-width:1.0;"/><polygon fill="#181818" points="1278.76,854.71,1278.2625,844.8737,1276.5011,850.2494,1271.1254,848.488,1278.76,854.71" style="stroke:#181818;stroke-width:1.0;"/></g><!--MD5=[a2f99bed84b1d11dca62703d596e8961]
link repaired to merge_true_with_bertmap--><g id="link_repaired_merge_true_with_bertmap"><path d="M859,874 C962.69,874 1066.37,874 1170.05,874 " fill="none" id="repaired-to-merge_true_with_bertmap" style="stroke:#181818;stroke-width:1.0;"/><polygon fill="#181818" points="1175.3,874,1166.3,870,1170.3,874,1166.3,878,1175.3,874" style="stroke:#181818;stroke-width:1.0;"/></g><!--MD5=[d17cc054688dae3533131f687c91cd8a]
link merge_true_with_bertmap to all_with_bertmap.tsv--><g id="link_merge_true_with_bertmap_all_with_bertmap.tsv"><path d="M1288,893.06 C1288,908.51 1288,930.86 1288,947.67 " fill="none" id="merge_true_with_bertmap-to-all_with_bertmap.tsv" style="stroke:#181818;stroke-width:1.0;"/><polygon fill="#181818" points="1288,952.7,1292,943.7,1288,947.7,1284,943.7,1288,952.7" style="stroke:#181818;stroke-width:1.0;"/></g><!--MD5=[c7f5ecdea161408f6abbf25742ad6a3d]
link all_with_bertmap.tsv to evaluate--><g id="link_all_with_bertmap.tsv_evaluate"><path d="M1288,991.06 C1288,1006.51 1288,1028.86 1288,1045.67 " fill="none" id="all_with_bertmap.tsv-to-evaluate" style="stroke:#181818;stroke-width:1.0;"/><polygon fill="#181818" points="1288,1050.7,1292,1041.7,1288,1045.7,1284,1041.7,1288,1050.7" style="stroke:#181818;stroke-width:1.0;"/></g><!--MD5=[4151a4e9ee27f7a9076680b2ff08a2b7]
link evaluate to report.txt--><g id="link_evaluate_report.txt"><path d="M1288,1089.06 C1288,1104.51 1288,1126.86 1288,1143.67 " fill="none" id="evaluate-to-report.txt" style="stroke:#181818;stroke-width:1.0;"/><polygon fill="#181818" points="1288,1148.7,1292,1139.7,1288,1143.7,1284,1139.7,1288,1148.7" style="stroke:#181818;stroke-width:1.0;"/></g><!--MD5=[6ece83c65de40718c2ef22aa9d3d6cac]
@startuml flow

rectangle "**download-ontologies.sh**" {

cloud "Wikidata Query Service" as wikidata #palegreen
file musicClasses.rq
file musicDataProperties.rq
file musicObjectProperties.rq
file musicClasses.rdf
file musicDataProperties.rdf
file musicObjectProperties.rdf
file music.owl #palegreen
rectangle "**download-ontologies.py** (part 1 - fetch)" as wd1 #aliceblue
rectangle "**download-ontologies.py** (part 2 - merge)" as wd2 #aliceblue
musicClasses.rq - -> wd1
musicDataProperties.rq - -> wd1
musicObjectProperties.rq - -> wd1
wikidata - -> wd1
wd1 - -> musicClasses.rdf
wd1 - -> musicDataProperties.rdf
wd1 - -> musicObjectProperties.rdf
musicClasses.rdf - -> wd2
musicDataProperties.rdf - -> wd2
musicObjectProperties.rdf - -> wd2
wd2 - -> music.owl

cloud "Polifonia ontology" as polifonia #palegreen
rectangle "polifonia/**download-ontologies.sh**" as downpolifonia #aliceblue
file namespaces.csv
folder "polifonia/ontology" as polifoniaowl #palegreen
namespaces.csv - -> downpolifonia
polifonia - -> downpolifonia
downpolifonia - -> polifoniaowl
note right of polifoniaowl: See owl-imports-graph.svg for the patches applied to fix errors

rectangle "**get_known_mappings.py**" as get_known_mappings #aliceblue
file "known_mappings.tsv"
file "wikidata/polifonia_wikidata.tsv" as polifonia_wikidata
file "known_mappings.nq" #palegreen
note bottom of known_mappings.nq: Includes some manual matches, mainly for the core module
known_mappings.nq - -> get_known_mappings
polifoniaowl - -> get_known_mappings
wikidata - -> get_known_mappings
get_known_mappings - -> known_mappings.tsv
get_known_mappings - -> polifonia_wikidata
get_known_mappings - -> known_mappings.nq

}

rectangle "Notebook **bertmap_match.ipynb**" as notebook #aliceblue
file "bertmap.yaml" as yml
file "bertmap_repaired_mappings.tsv" as repaired
yml -> notebook
known_mappings.tsv - -> notebook
music.owl - -> notebook
polifoniaowl - -> notebook
notebook - -> repaired

file "all_with_bertmap.tsv"
rectangle "**merge_true_with_bertmap.py**" as merge_true_with_bertmap #aliceblue
note left of all_with_bertmap.tsv: Manual (true) matches are added to all classes which have a Bertmap (predicted) match and no known mapping
polifonia_wikidata - -> merge_true_with_bertmap
repaired -> merge_true_with_bertmap
merge_true_with_bertmap - -> all_with_bertmap.tsv

rectangle "**evaultate_all_with_bertmap.py**" as evaluate #aliceblue
file "report.txt"
all_with_bertmap.tsv - -> evaluate
evaluate - -> report.txt
@enduml

PlantUML version 1.2022.7(Mon Aug 22 19:01:30 CEST 2022)
(GPL source distribution)
Java Runtime: OpenJDK Runtime Environment
JVM: OpenJDK 64-Bit Server VM
Default Encoding: Cp1252
Language: it
Country: IT
--></g></svg>