<?xml version="1.0" encoding="UTF-8" standalone="no"?><svg xmlns="http://www.w3.org/2000/svg" xmlns:xlink="http://www.w3.org/1999/xlink" contentStyleType="text/css" height="1063px" preserveAspectRatio="none" style="width:1301px;height:1063px;background:#FFFFFF;" version="1.1" viewBox="0 0 1301 1063" width="1301px" zoomAndPan="magnify"><defs/><g><!--MD5=[86e6603670b47a71733e70c13108efb7]
cluster downsh--><g id="cluster_downsh"><rect fill="#F0F8FF" height="90" rx="2.5" ry="2.5" style="stroke:#181818;stroke-width:1.0;" width="517" x="667" y="80.6299"/><text fill="#000000" font-family="sans-serif" font-size="14" font-weight="bold" lengthAdjust="spacing" textLength="169" x="841" y="97.1631">download-ontologies.sh</text></g><!--MD5=[d6ea01f295ed1d8d4674d95287564287]
cluster merge_true_with_bertmap.py--><g id="cluster_merge_true_with_bertmap.py"><rect fill="#F0F8FF" height="90" rx="2.5" ry="2.5" style="stroke:#181818;stroke-width:1.0;" width="221" x="642" y="686.6299"/><text fill="#000000" font-family="sans-serif" font-size="14" font-weight="bold" lengthAdjust="spacing" textLength="205" x="650" y="703.1631">merge_true_with_bertmap.py</text></g><!--MD5=[1c13016e174b4afa67c3230f1c32b0b7]
entity downwikidata--><g id="elem_downwikidata"><rect fill="#F0F8FF" height="37.6094" rx="2.5" ry="2.5" style="stroke:#181818;stroke-width:0.5;" width="223" x="683.5" y="116.6299"/><text fill="#000000" font-family="sans-serif" font-size="14" lengthAdjust="spacing" textLength="203" x="693.5" y="141.1631">wikidata/download-ontologies.py</text></g><!--MD5=[78fee9e0a9bcfb7f2468c748de35aa77]
entity downpolifonia--><g id="elem_downpolifonia"><rect fill="#F0F8FF" height="37.6094" rx="2.5" ry="2.5" style="stroke:#181818;stroke-width:0.5;" width="226" x="942" y="116.6299"/><text fill="#000000" font-family="sans-serif" font-size="14" lengthAdjust="spacing" textLength="206" x="952" y="141.1631">polifonia/download-ontologies.sh</text></g><!--MD5=[283129df4498487297f08a8c78422a6d]
entity merge1--><g id="elem_merge1"><rect fill="#F0F8FF" height="37.6094" rx="2.5" ry="2.5" style="stroke:#181818;stroke-width:0.5;" width="58" x="659" y="722.6299"/><text fill="#000000" font-family="sans-serif" font-size="14" lengthAdjust="spacing" textLength="38" x="669" y="747.1631">Part 1</text></g><!--MD5=[4637a617936e2c1a2a4f01032fa2a44d]
entity merge2--><g id="elem_merge2"><rect fill="#F0F8FF" height="37.6094" rx="2.5" ry="2.5" style="stroke:#181818;stroke-width:0.5;" width="58" x="752" y="722.6299"/><text fill="#000000" font-family="sans-serif" font-size="14" lengthAdjust="spacing" textLength="38" x="762" y="747.1631">Part 2</text></g><!--MD5=[d1ed0d2940ccad314a24ccbc4df5340e]
entity wikidata--><g id="elem_wikidata"><path d="M655.4062,18.2975 C657.8065,10.5479 664.599,8.6752 670.0572,15.1472 C673.5671,6.5352 681.6138,6 687.0276,13.0893 C692.8003,7.0499 699.3871,7.2472 702.7821,15.6781 C708.8722,8.4783 714.1874,9.6456 718.9312,17.156 C728.5463,20.4034 727.8597,27.9256 721.273,33.495 C728.9716,39.3946 727.9432,46.7071 718.9366,50.2816 C716.9229,55.3433 712.644,56.8326 708.9914,51.915 C707.1013,58.7659 702.748,60.7273 696.7819,56.3453 C695.1541,61.5135 690.8245,62.1093 687.1008,58.7149 C682.3179,63.0119 677.9237,61.5144 676.207,55.4814 C671.3853,60.2557 666.5591,57.1767 665.4063,51.6387 C661.7489,55.7201 657.0379,55.2874 655.1077,49.783 C647.705,46.1467 646.6016,39.0974 652.5141,33.3585 C646.8295,28.125 647.7339,20.9661 655.4062,18.2975 " fill="#F1F1F1" style="stroke:#181818;stroke-width:0.5;"/><text fill="#000000" font-family="sans-serif" font-size="14" lengthAdjust="spacing" textLength="50" x="661" y="38.1631">wikidata</text></g><!--MD5=[5724ae74e62823c018648cb2a340b2f4]
entity polifonia--><g id="elem_polifonia"><path d="M1021.8252,17.6615 C1024.4286,12.5825 1029.6466,10.9036 1033.4869,16.2821 C1035.5857,9.5194 1040.6436,8.6744 1044.9021,14.2905 C1047.4744,8.5373 1052.0955,8.8283 1055.4853,13.4572 C1059.2638,8.5477 1063.7139,9.7851 1066.2474,14.8065 C1070.1671,9.5119 1075.9967,8.5384 1079.3024,15.4626 C1083.7288,11.9151 1088.4805,11.7753 1090.01,18.4863 C1100.7669,18.2523 1103.9516,23.8346 1099.0076,33.2012 C1103.0801,41.8381 1099.4163,50.3557 1088.814,50.1849 C1084.8141,54.3679 1081.5627,54.0817 1078.3329,49.2859 C1075.6382,54.3673 1071.1532,54.541 1067.8542,49.9399 C1065.5248,56.9103 1060.125,56.8504 1055.5403,52.3638 C1051.6642,56.8632 1046.9231,57.4519 1043.8982,51.4225 C1039.1626,56.1649 1035.3772,54.7836 1032.8146,49.1102 C1030.0561,54.9189 1024.6601,55.289 1021.5879,49.4114 C1012.2006,48.5645 1010.2676,40.9244 1015.1665,34.0899 C1009.2633,25.2456 1012.4203,20.3012 1021.8252,17.6615 " fill="#F1F1F1" style="stroke:#181818;stroke-width:0.5;"/><text fill="#000000" font-family="sans-serif" font-size="14" lengthAdjust="spacing" textLength="53" x="1028.5" y="38.1631">polifonia</text></g><!--MD5=[b100b5492af8ff18b51bdc5d46eb1f49]
entity musicowl--><g id="elem_musicowl"><path d="M837,431.1299 L837,463.7392 A2.5,2.5 0 0 0 839.5,466.2392 L1026.5,466.2392 A2.5,2.5 0 0 0 1029,463.7392 L1029,438.6299 L1019,428.6299 L839.5,428.6299 A2.5,2.5 0 0 0 837,431.1299 " fill="#98FB98" style="stroke:#181818;stroke-width:0.5;"/><path d="M1019,428.6299 L1019,436.1299 A2.5,2.5 0 0 0 1021.5,438.6299 L1029,438.6299 " fill="#98FB98" style="stroke:#181818;stroke-width:0.5;"/><text fill="#000000" font-family="sans-serif" font-size="14" lengthAdjust="spacing" textLength="172" x="847" y="453.1631">wikidata/ontology/music.owl</text></g><!--MD5=[73c35498f2a02e970c3faca1330d398c]
entity polifoniaowl--><g id="elem_polifoniaowl"><path d="M987,214.6299 L1028,214.6299 A3.75,3.75 0 0 1 1030.5,217.1299 L1037.5,235.6299 L1123,235.6299 A2.5,2.5 0 0 1 1125.5,238.1299 L1125.5,267.7392 A2.5,2.5 0 0 1 1123,270.2392 L987,270.2392 A2.5,2.5 0 0 1 984.5,267.7392 L984.5,217.1299 A2.5,2.5 0 0 1 987,214.6299 " fill="#98FB98" style="stroke:#181818;stroke-width:0.5;"/><line style="stroke:#181818;stroke-width:0.5;" x1="984.5" x2="1037.5" y1="235.6299" y2="235.6299"/><text fill="#000000" font-family="sans-serif" font-size="14" lengthAdjust="spacing" textLength="111" x="994.5" y="257.1631">polifonia/ontology</text></g><!--MD5=[a0a3a51b531cb3694e8fd4f62ab304cd]
entity get_known_mappings.py--><g id="elem_get_known_mappings.py"><rect fill="#F0F8FF" height="37.6094" rx="2.5" ry="2.5" style="stroke:#181818;stroke-width:0.5;" width="176" x="460" y="330.6299"/><text fill="#000000" font-family="sans-serif" font-size="14" lengthAdjust="spacing" textLength="156" x="470" y="355.1631">get_known_mappings.py</text></g><!--MD5=[755c5f58ada36855c23cee21a828b0fc]
entity known_mappings.tsv--><g id="elem_known_mappings.tsv"><path d="M650.5,431.1299 L650.5,463.7392 A2.5,2.5 0 0 0 653,466.2392 L799,466.2392 A2.5,2.5 0 0 0 801.5,463.7392 L801.5,438.6299 L791.5,428.6299 L653,428.6299 A2.5,2.5 0 0 0 650.5,431.1299 " fill="#F1F1F1" style="stroke:#181818;stroke-width:0.5;"/><path d="M791.5,428.6299 L791.5,436.1299 A2.5,2.5 0 0 0 794,438.6299 L801.5,438.6299 " fill="#F1F1F1" style="stroke:#181818;stroke-width:0.5;"/><text fill="#000000" font-family="sans-serif" font-size="14" lengthAdjust="spacing" textLength="131" x="660.5" y="453.1631">known_mappings.tsv</text></g><!--MD5=[dcc2b970af72336f7d4d820fb5cbb08d]
entity polifonia_wikidata--><g id="elem_polifonia_wikidata"><path d="M224.5,431.1299 L224.5,463.7392 A2.5,2.5 0 0 0 227,466.2392 L429,466.2392 A2.5,2.5 0 0 0 431.5,463.7392 L431.5,438.6299 L421.5,428.6299 L227,428.6299 A2.5,2.5 0 0 0 224.5,431.1299 " fill="#F1F1F1" style="stroke:#181818;stroke-width:0.5;"/><path d="M421.5,428.6299 L421.5,436.1299 A2.5,2.5 0 0 0 424,438.6299 L431.5,438.6299 " fill="#F1F1F1" style="stroke:#181818;stroke-width:0.5;"/><text fill="#000000" font-family="sans-serif" font-size="14" lengthAdjust="spacing" textLength="187" x="234.5" y="453.1631">wikidata/polifonia_wikidata.tsv</text></g><!--MD5=[8033b862fb1bb83eadd06349bdae6214]
entity known_mappings.nq--><g id="elem_known_mappings.nq"><path d="M466.5,431.1299 L466.5,463.7392 A2.5,2.5 0 0 0 469,466.2392 L613,466.2392 A2.5,2.5 0 0 0 615.5,463.7392 L615.5,438.6299 L605.5,428.6299 L469,428.6299 A2.5,2.5 0 0 0 466.5,431.1299 " fill="#F1F1F1" style="stroke:#181818;stroke-width:0.5;"/><path d="M605.5,428.6299 L605.5,436.1299 A2.5,2.5 0 0 0 608,438.6299 L615.5,438.6299 " fill="#F1F1F1" style="stroke:#181818;stroke-width:0.5;"/><text fill="#000000" font-family="sans-serif" font-size="14" lengthAdjust="spacing" textLength="129" x="476.5" y="453.1631">known_mappings.nq</text></g><g id="elem_GMN17"><path d="M381,532.6299 L381,558.9814 A0,0 0 0 0 381,558.9814 L747,558.9814 A0,0 0 0 0 747,558.9814 L747,542.6299 L737,532.6299 L565.08,532.6299 L545.33,466.6899 L557.08,532.6299 L381,532.6299 A0,0 0 0 0 381,532.6299 " fill="#FEFFDD" style="stroke:#181818;stroke-width:0.5;"/><path d="M737,532.6299 L737,542.6299 L747,542.6299 L737,532.6299 " fill="#FEFFDD" style="stroke:#181818;stroke-width:0.5;"/><text fill="#000000" font-family="sans-serif" font-size="13" lengthAdjust="spacing" textLength="345" x="387" y="551.125">Includes some manual matches, mainly for the core module</text></g><!--MD5=[389860a1d1ef945b34134be47b1372a9]
entity notebook--><g id="elem_notebook"><rect fill="#F0F8FF" height="37.6094" rx="2.5" ry="2.5" style="stroke:#181818;stroke-width:0.5;" width="79" x="893.5" y="526.6299"/><text fill="#000000" font-family="sans-serif" font-size="14" lengthAdjust="spacing" textLength="59" x="903.5" y="551.1631">notebook</text></g><!--MD5=[6b785f8ac55ff1e4cefb0022ae76bf54]
entity yml--><g id="elem_yml"><path d="M1135.5,431.1299 L1135.5,463.7392 A2.5,2.5 0 0 0 1138,466.2392 L1292,466.2392 A2.5,2.5 0 0 0 1294.5,463.7392 L1294.5,438.6299 L1284.5,428.6299 L1138,428.6299 A2.5,2.5 0 0 0 1135.5,431.1299 " fill="#F1F1F1" style="stroke:#181818;stroke-width:0.5;"/><path d="M1284.5,428.6299 L1284.5,436.1299 A2.5,2.5 0 0 0 1287,438.6299 L1294.5,438.6299 " fill="#F1F1F1" style="stroke:#181818;stroke-width:0.5;"/><text fill="#000000" font-family="sans-serif" font-size="14" lengthAdjust="spacing" textLength="139" x="1145.5" y="453.1631">wikidata/bertmap.yaml</text></g><!--MD5=[733ce2bb84e70bd21f911b8d7f047380]
entity repaired--><g id="elem_repaired"><path d="M767,627.1299 L767,659.7392 A2.5,2.5 0 0 0 769.5,662.2392 L1042.5,662.2392 A2.5,2.5 0 0 0 1045,659.7392 L1045,634.6299 L1035,624.6299 L769.5,624.6299 A2.5,2.5 0 0 0 767,627.1299 " fill="#F1F1F1" style="stroke:#181818;stroke-width:0.5;"/><path d="M1035,624.6299 L1035,632.1299 A2.5,2.5 0 0 0 1037.5,634.6299 L1045,634.6299 " fill="#F1F1F1" style="stroke:#181818;stroke-width:0.5;"/><text fill="#000000" font-family="sans-serif" font-size="14" lengthAdjust="spacing" textLength="258" x="777" y="649.1631">wikidata/bertmap_repaired_mappings.tsv</text></g><!--MD5=[934938dae3e2cc12af892b82562bf0a1]
entity all.tsv--><g id="elem_all.tsv"><path d="M663,627.1299 L663,659.7392 A2.5,2.5 0 0 0 665.5,662.2392 L716.5,662.2392 A2.5,2.5 0 0 0 719,659.7392 L719,634.6299 L709,624.6299 L665.5,624.6299 A2.5,2.5 0 0 0 663,627.1299 " fill="#F1F1F1" style="stroke:#181818;stroke-width:0.5;"/><path d="M709,624.6299 L709,632.1299 A2.5,2.5 0 0 0 711.5,634.6299 L719,634.6299 " fill="#F1F1F1" style="stroke:#181818;stroke-width:0.5;"/><text fill="#000000" font-family="sans-serif" font-size="14" lengthAdjust="spacing" textLength="36" x="673" y="649.1631">all.tsv</text></g><!--MD5=[659ea1eae1dd7bef357c7c1ee80bb90e]
entity all_with_bertmap.tsv--><g id="elem_all_with_bertmap.tsv"><path d="M707,823.1299 L707,855.7392 A2.5,2.5 0 0 0 709.5,858.2392 L852.5,858.2392 A2.5,2.5 0 0 0 855,855.7392 L855,830.6299 L845,820.6299 L709.5,820.6299 A2.5,2.5 0 0 0 707,823.1299 " fill="#F1F1F1" style="stroke:#181818;stroke-width:0.5;"/><path d="M845,820.6299 L845,828.1299 A2.5,2.5 0 0 0 847.5,830.6299 L855,830.6299 " fill="#F1F1F1" style="stroke:#181818;stroke-width:0.5;"/><text fill="#000000" font-family="sans-serif" font-size="14" lengthAdjust="spacing" textLength="128" x="717" y="845.1631">all_with_bertmap.tsv</text></g><g id="elem_GMN41"><path d="M6,826.6299 L6,852.9814 A0,0 0 0 0 6,852.9814 L672,852.9814 A0,0 0 0 0 672,852.9814 L672,844.6299 L706.64,839.6299 L672,836.6299 L672,836.6299 L662,826.6299 L6,826.6299 A0,0 0 0 0 6,826.6299 " fill="#FEFFDD" style="stroke:#181818;stroke-width:0.5;"/><path d="M662,826.6299 L662,836.6299 L672,836.6299 L662,826.6299 " fill="#FEFFDD" style="stroke:#181818;stroke-width:0.5;"/><text fill="#000000" font-family="sans-serif" font-size="13" lengthAdjust="spacing" textLength="645" x="12" y="845.125">Manual (true) matches are added to all classes which have a Bertmap (predicted) match and no known mapping</text></g><!--MD5=[458561199ace05383467b209cb9e3458]
entity evaluate--><g id="elem_evaluate"><rect fill="#F0F8FF" height="37.6094" rx="2.5" ry="2.5" style="stroke:#181818;stroke-width:0.5;" width="211" x="675.5" y="918.6299"/><text fill="#000000" font-family="sans-serif" font-size="14" lengthAdjust="spacing" textLength="191" x="685.5" y="943.1631">evaultate_all_with_bertmap.py</text></g><!--MD5=[b2afd9b11946f240ea0f5e5093348d93]
entity report--><g id="elem_report"><rect fill="#F1F1F1" height="40.6094" rx="2.5" ry="2.5" style="stroke:#181818;stroke-width:0.5;" width="155" x="703.5" y="1016.6299"/><polygon fill="#F1F1F1" points="841.5,1021.6299,841.5,1035.6299,853.5,1035.6299,853.5,1027.6299,847.5,1021.6299,841.5,1021.6299" style="stroke:#181818;stroke-width:0.5;"/><line style="stroke:#181818;stroke-width:0.5;" x1="847.5" x2="847.5" y1="1021.6299" y2="1027.6299"/><line style="stroke:#181818;stroke-width:0.5;" x1="853.5" x2="847.5" y1="1027.6299" y2="1027.6299"/><text fill="#000000" font-family="sans-serif" font-size="14" lengthAdjust="spacing" textLength="125" x="713.5" y="1044.1631">Classification report</text></g><!--MD5=[516424c9480261d7e8965aed88543e10]
link wikidata to downwikidata--><g id="link_wikidata_downwikidata"><path d="M711.01,56.7999 C729.24,73.6899 753.77,96.4299 771.61,112.9599 " fill="none" id="wikidata-to-downwikidata" style="stroke:#181818;stroke-width:1.0;"/><polygon fill="#181818" points="775.54,116.5999,771.6721,107.5423,771.8781,113.1954,766.225,113.4014,775.54,116.5999" style="stroke:#181818;stroke-width:1.0;"/></g><!--MD5=[9fb1f62b518dc7be5e1cde091cb761d2]
link downwikidata to musicowl--><g id="link_downwikidata_musicowl"><path d="M803.02,154.6399 C826.74,207.9299 896.58,364.8099 922.85,423.8299 " fill="none" id="downwikidata-to-musicowl" style="stroke:#181818;stroke-width:1.0;"/><polygon fill="#181818" points="924.96,428.5699,924.94,418.721,922.92,424.0049,917.6361,421.9849,924.96,428.5699" style="stroke:#181818;stroke-width:1.0;"/></g><!--MD5=[c43d99b2042eb369c788374d615a74f9]
link polifonia to downpolifonia--><g id="link_polifonia_downpolifonia"><path d="M1055,56.7999 C1055,73.1299 1055,94.8999 1055,111.2699 " fill="none" id="polifonia-to-downpolifonia" style="stroke:#181818;stroke-width:1.0;"/><polygon fill="#181818" points="1055,116.5999,1059,107.5999,1055,111.5999,1051,107.5999,1055,116.5999" style="stroke:#181818;stroke-width:1.0;"/></g><!--MD5=[0b89dd9ec0d127c588631ab378953fc8]
link downpolifonia to polifoniaowl--><g id="link_downpolifonia_polifoniaowl"><path d="M1055,154.9199 C1055,169.8299 1055,191.2599 1055,209.0799 " fill="none" id="downpolifonia-to-polifoniaowl" style="stroke:#181818;stroke-width:1.0;"/><polygon fill="#181818" points="1055,214.4899,1059,205.4899,1055,209.4899,1051,205.4899,1055,214.4899" style="stroke:#181818;stroke-width:1.0;"/></g><!--MD5=[c36bc78661973960ff644b41b03c2003]
link known_mappings.nq to get_known_mappings.py--><g id="link_known_mappings.nq_get_known_mappings.py"><path d="M553.21,428.3299 C557.53,412.7999 559.44,390.4399 558.05,373.6899 " fill="none" id="known_mappings.nq-to-get_known_mappings.py" style="stroke:#181818;stroke-width:1.0;"/><polygon fill="#181818" points="557.51,368.6899,554.5106,378.0709,558.0528,373.6603,562.4633,377.2025,557.51,368.6899" style="stroke:#181818;stroke-width:1.0;"/></g><!--MD5=[838c98c26374596160a5c93dadb52dd0]
link get_known_mappings.py to known_mappings.nq--><g id="link_get_known_mappings.py_known_mappings.nq"><path d="M536.46,368.6899 C532.29,384.1399 530.37,406.4899 531.58,423.2999 " fill="none" id="get_known_mappings.py-to-known_mappings.nq" style="stroke:#181818;stroke-width:1.0;"/><polygon fill="#181818" points="532.06,428.3299,535.1659,418.9836,531.5738,423.3536,527.2038,419.7615,532.06,428.3299" style="stroke:#181818;stroke-width:1.0;"/></g><!--MD5=[3b218e13d03b261c707b415811e9432d]
link polifoniaowl to get_known_mappings.py--><g id="link_polifoniaowl_get_known_mappings.py"><path d="M984.24,258.2899 C894.39,276.8899 739.19,309.0299 640.18,329.5399 " fill="none" id="polifoniaowl-to-get_known_mappings.py" style="stroke:#181818;stroke-width:1.0;"/><polygon fill="#181818" points="635.21,330.5699,644.834,332.6625,640.1062,329.5564,643.2124,324.8286,635.21,330.5699" style="stroke:#181818;stroke-width:1.0;"/></g><!--MD5=[a297c317e907207fc7cbaa5bae9be566]
link wikidata to get_known_mappings.py--><g id="link_wikidata_get_known_mappings.py"><path d="M674.57,56.6399 C672.03,61.8799 669.39,67.4299 667,72.6299 C624.29,165.7099 577.13,278.2899 557.44,325.7599 " fill="none" id="wikidata-to-get_known_mappings.py" style="stroke:#181818;stroke-width:1.0;stroke-dasharray:7.0,7.0;"/><polygon fill="#181818" points="555.51,330.4199,562.6534,323.6396,557.426,325.8015,555.2641,320.5741,555.51,330.4199" style="stroke:#181818;stroke-width:1.0;"/></g><!--MD5=[7a68916d38aa344911d7af2f2d86748f]
link get_known_mappings.py to known_mappings.tsv--><g id="link_get_known_mappings.py_known_mappings.tsv"><path d="M581.48,368.6899 C611.72,384.9899 656.19,408.9799 687.8,426.0299 " fill="none" id="get_known_mappings.py-to-known_mappings.tsv" style="stroke:#181818;stroke-width:1.0;"/><polygon fill="#181818" points="692.37,428.4899,686.3452,420.6987,687.9686,426.1177,682.5496,427.741,692.37,428.4899" style="stroke:#181818;stroke-width:1.0;"/></g><!--MD5=[65d6195f4f05614efdfe6d7455c17529]
link get_known_mappings.py to polifonia_wikidata--><g id="link_get_known_mappings.py_polifonia_wikidata"><path d="M506.62,368.6899 C468.94,385.1299 413.38,409.3699 374.26,426.4499 " fill="none" id="get_known_mappings.py-to-polifonia_wikidata" style="stroke:#181818;stroke-width:1.0;"/><polygon fill="#181818" points="369.57,428.4899,379.4186,428.5584,374.1531,426.491,376.2205,421.2255,369.57,428.4899" style="stroke:#181818;stroke-width:1.0;"/></g><!--MD5=[2059ce5ff7f260f9eaad49a54173f4b8]
link yml to notebook--><g id="link_yml_notebook"><path d="M1161.96,466.6899 C1108.63,484.8399 1027.37,512.5099 977.36,529.5299 " fill="none" id="yml-to-notebook" style="stroke:#181818;stroke-width:1.0;"/><polygon fill="#181818" points="972.62,531.1399,982.4273,532.0442,977.3562,529.5373,979.8631,524.4662,972.62,531.1399" style="stroke:#181818;stroke-width:1.0;"/></g><!--MD5=[38de452834f1d0d9aaa29f4e33ea06c6]
link known_mappings.tsv to notebook--><g id="link_known_mappings.tsv_notebook"><path d="M764.94,466.6899 C800.24,483.0599 852.24,507.1699 889.03,524.2399 " fill="none" id="known_mappings.tsv-to-notebook" style="stroke:#181818;stroke-width:1.0;"/><polygon fill="#181818" points="893.89,526.4899,887.399,519.0826,889.3515,524.3919,884.0422,526.3443,893.89,526.4899" style="stroke:#181818;stroke-width:1.0;"/></g><!--MD5=[4a30912ccedb4163520a04b87cce755f]
link musicowl to notebook--><g id="link_musicowl_notebook"><path d="M933,466.6899 C933,482.1399 933,504.4899 933,521.2999 " fill="none" id="musicowl-to-notebook" style="stroke:#181818;stroke-width:1.0;"/><polygon fill="#181818" points="933,526.3299,937,517.3299,933,521.3299,929,517.3299,933,526.3299" style="stroke:#181818;stroke-width:1.0;"/></g><!--MD5=[74f5634af1e53b4fa5692eb837be1fa0]
link polifoniaowl to notebook--><g id="link_polifoniaowl_notebook"><path d="M1061.4,270.7299 C1070.29,314.8699 1081.66,403.6799 1047,466.6299 C1031.86,494.1199 1002.42,513.8899 977.24,526.6399 " fill="none" id="polifoniaowl-to-notebook" style="stroke:#181818;stroke-width:1.0;"/><polygon fill="#181818" points="972.6,528.9399,982.4403,528.5304,977.0807,526.721,978.8901,521.3613,972.6,528.9399" style="stroke:#181818;stroke-width:1.0;"/></g><!--MD5=[6dff111bf92f4e1c39efcc99d9302000]
link notebook to repaired--><g id="link_notebook_repaired"><path d="M927.92,564.6899 C923.57,580.1399 917.29,602.4899 912.56,619.2999 " fill="none" id="notebook-to-repaired" style="stroke:#181818;stroke-width:1.0;"/><polygon fill="#181818" points="911.15,624.3299,917.4419,616.7528,912.5066,619.5174,909.742,614.5822,911.15,624.3299" style="stroke:#181818;stroke-width:1.0;"/></g><!--MD5=[bf60bf5be5348fbfdc7b7b0c8d3b5c06]
link polifonia_wikidata to merge1--><g id="link_polifonia_wikidata_merge1"><path d="M329.22,466.7099 C331.75,491.3599 339.48,535.7699 363,564.6299 C441.61,661.0999 587.65,712.4199 653.83,731.6299 " fill="none" id="polifonia_wikidata-to-merge1" style="stroke:#181818;stroke-width:1.0;"/><polygon fill="#181818" points="658.84,733.0599,651.2802,726.7472,654.0313,731.69,649.0885,734.4411,658.84,733.0599" style="stroke:#181818;stroke-width:1.0;"/></g><!--MD5=[298149d0bf12cafed7710bee071506e1]
link merge1 to all.tsv--><g id="link_merge1_all.tsv"><path d="M688.57,722.3299 C689.06,706.7999 689.76,684.4399 690.28,667.6899 " fill="none" id="merge1-to-all.tsv" style="stroke:#181818;stroke-width:1.0;"/><polygon fill="#181818" points="690.44,662.6899,686.1593,671.5598,690.2829,667.6874,694.1553,671.8111,690.44,662.6899" style="stroke:#181818;stroke-width:1.0;"/></g><!--MD5=[2b751184c95a4b18a2f362ed47a41364]
link all.tsv to merge2--><g id="link_all.tsv_merge2"><path d="M717.13,662.9299 C723.27,667.7299 729.59,673.1199 735,678.6299 C746.78,690.6499 758.08,705.7899 766.52,718.1099 " fill="none" id="all.tsv-to-merge2" style="stroke:#181818;stroke-width:1.0;"/><polygon fill="#181818" points="769.5,722.5099,767.7515,712.8175,766.6904,718.3739,761.134,717.3128,769.5,722.5099" style="stroke:#181818;stroke-width:1.0;"/></g><!--MD5=[f81c3c6a894302db58443176a0b2d4f1]
link repaired to merge2--><g id="link_repaired_merge2"><path d="M882.49,662.6899 C861.58,678.7399 830.99,702.2399 808.86,719.2299 " fill="none" id="repaired-to-merge2" style="stroke:#181818;stroke-width:1.0;"/><polygon fill="#181818" points="804.83,722.3299,814.4069,720.0313,808.799,719.2889,809.5413,713.681,804.83,722.3299" style="stroke:#181818;stroke-width:1.0;"/></g><!--MD5=[ecd67360459a03a867404f1952ada583]
link merge2 to all_with_bertmap.tsv--><g id="link_merge2_all_with_bertmap.tsv"><path d="M781,760.6899 C781,776.1399 781,798.4899 781,815.2999 " fill="none" id="merge2-to-all_with_bertmap.tsv" style="stroke:#181818;stroke-width:1.0;"/><polygon fill="#181818" points="781,820.3299,785,811.3299,781,815.3299,777,811.3299,781,820.3299" style="stroke:#181818;stroke-width:1.0;"/></g><!--MD5=[c7f5ecdea161408f6abbf25742ad6a3d]
link all_with_bertmap.tsv to evaluate--><g id="link_all_with_bertmap.tsv_evaluate"><path d="M781,858.6899 C781,874.1399 781,896.4899 781,913.2999 " fill="none" id="all_with_bertmap.tsv-to-evaluate" style="stroke:#181818;stroke-width:1.0;"/><polygon fill="#181818" points="781,918.3299,785,909.3299,781,913.3299,777,909.3299,781,918.3299" style="stroke:#181818;stroke-width:1.0;"/></g><!--MD5=[5af6fa92283c3efb7a3578ef4cf24951]
link evaluate to report--><g id="link_evaluate_report"><path d="M781,956.9699 C781,972.3699 781,994.4999 781,1011.4499 " fill="none" id="evaluate-to-report" style="stroke:#181818;stroke-width:1.0;"/><polygon fill="#181818" points="781,1016.5399,785.0257,1007.5513,781.0143,1011.5399,777.0257,1007.5285,781,1016.5399" style="stroke:#181818;stroke-width:1.0;"/></g><!--MD5=[ec3b4c0b1fd66bbe2dc3b48a84181f39]
@startuml flow
cloud wikidata
cloud polifonia
rectangle "download-ontologies.sh" as downsh #aliceblue {
rectangle "wikidata/download-ontologies.py" as downwikidata #aliceblue
rectangle "polifonia/download-ontologies.sh" as downpolifonia #aliceblue
}
file "wikidata/ontology/music.owl" as musicowl #palegreen
wikidata - -> downwikidata
downwikidata - -> musicowl

folder "polifonia/ontology" as polifoniaowl #palegreen
polifonia - -> downpolifonia
downpolifonia - -> polifoniaowl

rectangle "get_known_mappings.py" #aliceblue
file "known_mappings.tsv"
file "wikidata/polifonia_wikidata.tsv" as polifonia_wikidata
file "known_mappings.nq"
note bottom of known_mappings.nq: Includes some manual matches, mainly for the core module
known_mappings.nq - -> get_known_mappings.py
polifoniaowl - -> get_known_mappings.py
wikidata ..> get_known_mappings.py
get_known_mappings.py - -> known_mappings.tsv
get_known_mappings.py - -> polifonia_wikidata
get_known_mappings.py - -> known_mappings.nq

rectangle notebook #aliceblue
file "wikidata/bertmap.yaml" as yml
file "wikidata/bertmap_repaired_mappings.tsv" as repaired
yml - -> notebook
known_mappings.tsv - -> notebook
musicowl - -> notebook
polifoniaowl - -> notebook
notebook - -> repaired

rectangle "merge_true_with_bertmap.py" #aliceblue {
rectangle "Part 1" as merge1 #aliceblue
rectangle "Part 2" as merge2 #aliceblue
}
file all.tsv
polifonia_wikidata - -> merge1
merge1 - -> all.tsv

file "all_with_bertmap.tsv"
note left of all_with_bertmap.tsv: Manual (true) matches are added to all classes which have a Bertmap (predicted) match and no known mapping
all.tsv - -> merge2
repaired - -> merge2
merge2 - -> all_with_bertmap.tsv

rectangle evaultate_all_with_bertmap.py as evaluate #aliceblue
artifact "Classification report" as report
all_with_bertmap.tsv - -> evaluate
evaluate - -> report
@enduml

PlantUML version 1.2022.7(Mon Aug 22 19:01:30 CEST 2022)
(GPL source distribution)
Java Runtime: Java(TM) SE Runtime Environment
JVM: Java HotSpot(TM) 64-Bit Server VM
Default Encoding: UTF-8
Language: it
Country: IT
--></g></svg>