<?xml version="1.0" encoding="UTF-8" standalone="no"?><svg xmlns="http://www.w3.org/2000/svg" xmlns:xlink="http://www.w3.org/1999/xlink" contentStyleType="text/css" height="1062px" preserveAspectRatio="none" style="width:1290px;height:1062px;background:#FFFFFF;" version="1.1" viewBox="0 0 1290 1062" width="1290px" zoomAndPan="magnify"><defs/><g><!--MD5=[d1ed0d2940ccad314a24ccbc4df5340e]
entity wikidata--><g id="elem_wikidata"><path d="M590.8849,18.5117 C594.67,13.2824 598.6016,11.7654 602.7315,18.1604 C605.6326,11.9228 610.1398,11.9909 614.6608,16.3341 C619.1221,11.3242 622.7923,11.3731 626.6419,17.0217 C629.5743,10.2732 634.3156,10.4017 638.3972,15.9205 C642.2221,9.9573 646.294,9.5369 650.1874,15.8548 C652.8774,11.0266 656.5559,9.9897 660.3653,14.6547 C663.6907,8.839 669.7067,7.7198 673.3818,14.2871 C676.6937,8.3454 680.9474,9.2728 684.4829,14.0557 C687.8066,9.4246 692.8041,10.3852 695.0287,15.2732 C699.0285,8.6758 704.7101,8.8333 708.4063,15.5776 C712.1523,10.9754 715.2732,10.6419 718.7199,15.8909 C722.6293,10.2153 726.9962,11.6103 729.8661,16.9434 C734.2689,11.5686 739.273,11.9854 742.1929,18.483 C745.633,12.5748 750.9564,13.5211 754.0545,18.8443 C763.2316,19.3186 767.154,26.9769 762.6323,34.8108 C767.2087,42.9732 762.4023,50.3603 753.2277,50.0197 C750.8065,56.8413 744.7475,56.5394 740.9666,51.4153 C738.4176,57.5984 734.5441,58.047 729.7506,53.8377 C726.4091,58.4405 722.0933,60.0362 718.4861,54.1222 C715.3053,59.6177 710.3885,60.2059 706.253,55.2384 C703.078,61.4111 699.3908,61.3373 695.2664,56.1572 C692.3206,60.8908 688.2001,61.2938 684.7885,56.6792 C682.2821,63.8141 678.0149,64.063 672.8625,59.3405 C667.5028,63.7773 663.0508,63.6607 660.4174,56.4321 C657.2009,62.5525 651.8132,62.142 648.742,56.2904 C644.861,60.5195 641.7548,60.5017 638.947,55.1887 C635.3981,60.9005 628.6036,61.084 625.2634,54.9474 C621.3479,58.8546 617.5328,58.5606 614.6022,53.7438 C610.0027,58.4752 606.7054,57.3233 603.9951,51.7914 C599.4506,56.6752 594.621,55.6904 592.0934,49.6034 C584.2962,47.4146 581.5112,41.6891 588.106,35.4466 C580.1276,29.2724 581.1021,21.7714 590.8849,18.5117 " fill="#98FB98" style="stroke:#181818;stroke-width:0.5;"/><text fill="#000000" font-family="sans-serif" font-size="14" lengthAdjust="spacing" textLength="148" x="597.5" y="39.222">Wikidata Query Service</text></g><!--MD5=[4f3fda2a26ed6827899a217a03a4679b]
entity musicClasses.rq--><g id="elem_musicClasses.rq"><path d="M6,17.1888 L6,49.7982 A2.5,2.5 0 0 0 8.5,52.2982 L126.5,52.2982 A2.5,2.5 0 0 0 129,49.7982 L129,24.6888 L119,14.6888 L8.5,14.6888 A2.5,2.5 0 0 0 6,17.1888 " fill="#F1F1F1" style="stroke:#181818;stroke-width:0.5;"/><path d="M119,14.6888 L119,22.1888 A2.5,2.5 0 0 0 121.5,24.6888 L129,24.6888 " fill="#F1F1F1" style="stroke:#181818;stroke-width:0.5;"/><text fill="#000000" font-family="sans-serif" font-size="14" lengthAdjust="spacing" textLength="103" x="16" y="39.222">musicClasses.rq</text></g><!--MD5=[1ae5480ab04e600e57bef7b3e1bc37e6]
entity musicDataProperties.rq--><g id="elem_musicDataProperties.rq"><path d="M164.5,17.1888 L164.5,49.7982 A2.5,2.5 0 0 0 167,52.2982 L330,52.2982 A2.5,2.5 0 0 0 332.5,49.7982 L332.5,24.6888 L322.5,14.6888 L167,14.6888 A2.5,2.5 0 0 0 164.5,17.1888 " fill="#F1F1F1" style="stroke:#181818;stroke-width:0.5;"/><path d="M322.5,14.6888 L322.5,22.1888 A2.5,2.5 0 0 0 325,24.6888 L332.5,24.6888 " fill="#F1F1F1" style="stroke:#181818;stroke-width:0.5;"/><text fill="#000000" font-family="sans-serif" font-size="14" lengthAdjust="spacing" textLength="148" x="174.5" y="39.222">musicDataProperties.rq</text></g><!--MD5=[02477bb51d6f2abde25f7a7b8c6b1b41]
entity musicObjectProperties.rq--><g id="elem_musicObjectProperties.rq"><path d="M368,17.1888 L368,49.7982 A2.5,2.5 0 0 0 370.5,52.2982 L544.5,52.2982 A2.5,2.5 0 0 0 547,49.7982 L547,24.6888 L537,14.6888 L370.5,14.6888 A2.5,2.5 0 0 0 368,17.1888 " fill="#F1F1F1" style="stroke:#181818;stroke-width:0.5;"/><path d="M537,14.6888 L537,22.1888 A2.5,2.5 0 0 0 539.5,24.6888 L547,24.6888 " fill="#F1F1F1" style="stroke:#181818;stroke-width:0.5;"/><text fill="#000000" font-family="sans-serif" font-size="14" lengthAdjust="spacing" textLength="159" x="378" y="39.222">musicObjectProperties.rq</text></g><!--MD5=[a44a8642345c9bd3265b18967f991e48]
entity musicClasses.rdf--><g id="elem_musicClasses.rdf"><path d="M250,227.1888 L250,259.7982 A2.5,2.5 0 0 0 252.5,262.2982 L374.5,262.2982 A2.5,2.5 0 0 0 377,259.7982 L377,234.6888 L367,224.6888 L252.5,224.6888 A2.5,2.5 0 0 0 250,227.1888 " fill="#F1F1F1" style="stroke:#181818;stroke-width:0.5;"/><path d="M367,224.6888 L367,232.1888 A2.5,2.5 0 0 0 369.5,234.6888 L377,234.6888 " fill="#F1F1F1" style="stroke:#181818;stroke-width:0.5;"/><text fill="#000000" font-family="sans-serif" font-size="14" lengthAdjust="spacing" textLength="107" x="260" y="249.222">musicClasses.rdf</text></g><!--MD5=[fddc5042e831da55c485c78539a0643f]
entity musicDataProperties.rdf--><g id="elem_musicDataProperties.rdf"><path d="M412.5,227.1888 L412.5,259.7982 A2.5,2.5 0 0 0 415,262.2982 L582,262.2982 A2.5,2.5 0 0 0 584.5,259.7982 L584.5,234.6888 L574.5,224.6888 L415,224.6888 A2.5,2.5 0 0 0 412.5,227.1888 " fill="#F1F1F1" style="stroke:#181818;stroke-width:0.5;"/><path d="M574.5,224.6888 L574.5,232.1888 A2.5,2.5 0 0 0 577,234.6888 L584.5,234.6888 " fill="#F1F1F1" style="stroke:#181818;stroke-width:0.5;"/><text fill="#000000" font-family="sans-serif" font-size="14" lengthAdjust="spacing" textLength="152" x="422.5" y="249.222">musicDataProperties.rdf</text></g><!--MD5=[9577a432a34fea0bde19b8fde32a0e3f]
entity musicObjectProperties.rdf--><g id="elem_musicObjectProperties.rdf"><path d="M32,227.1888 L32,259.7982 A2.5,2.5 0 0 0 34.5,262.2982 L212.5,262.2982 A2.5,2.5 0 0 0 215,259.7982 L215,234.6888 L205,224.6888 L34.5,224.6888 A2.5,2.5 0 0 0 32,227.1888 " fill="#F1F1F1" style="stroke:#181818;stroke-width:0.5;"/><path d="M205,224.6888 L205,232.1888 A2.5,2.5 0 0 0 207.5,234.6888 L215,234.6888 " fill="#F1F1F1" style="stroke:#181818;stroke-width:0.5;"/><text fill="#000000" font-family="sans-serif" font-size="14" lengthAdjust="spacing" textLength="163" x="42" y="249.222">musicObjectProperties.rdf</text></g><!--MD5=[3a3be6e96ddbe0571b5c6462cbc2c851]
entity music.owl--><g id="elem_music.owl"><path d="M379.5,432.1888 L379.5,464.7982 A2.5,2.5 0 0 0 382,467.2982 L457,467.2982 A2.5,2.5 0 0 0 459.5,464.7982 L459.5,439.6888 L449.5,429.6888 L382,429.6888 A2.5,2.5 0 0 0 379.5,432.1888 " fill="#98FB98" style="stroke:#181818;stroke-width:0.5;"/><path d="M449.5,429.6888 L449.5,437.1888 A2.5,2.5 0 0 0 452,439.6888 L459.5,439.6888 " fill="#98FB98" style="stroke:#181818;stroke-width:0.5;"/><text fill="#000000" font-family="sans-serif" font-size="14" lengthAdjust="spacing" textLength="60" x="389.5" y="454.222">music.owl</text></g><!--MD5=[b26e33af4efe7e85255006198f610fa2]
entity wd1--><g id="elem_wd1"><rect fill="#F0F8FF" height="37.6094" rx="2.5" ry="2.5" style="stroke:#181818;stroke-width:0.5;" width="283" x="172" y="117.6888"/><text fill="#000000" font-family="sans-serif" font-size="14" font-weight="bold" lengthAdjust="spacing" textLength="168" x="182" y="142.222">download-ontologies.py</text><text fill="#000000" font-family="sans-serif" font-size="14" lengthAdjust="spacing" textLength="91" x="354" y="142.222">(part 1 - fetch)</text></g><!--MD5=[792803811762f973c57f9f61acc6e1f4]
entity wd2--><g id="elem_wd2"><rect fill="#F0F8FF" height="37.6094" rx="2.5" ry="2.5" style="stroke:#181818;stroke-width:0.5;" width="292" x="167.5" y="331.6888"/><text fill="#000000" font-family="sans-serif" font-size="14" font-weight="bold" lengthAdjust="spacing" textLength="168" x="177.5" y="356.222">download-ontologies.py</text><text fill="#000000" font-family="sans-serif" font-size="14" lengthAdjust="spacing" textLength="100" x="349.5" y="356.222">(part 2 - merge)</text></g><!--MD5=[5724ae74e62823c018648cb2a340b2f4]
entity polifonia--><g id="elem_polifonia"><path d="M805.476,17.8754 C809.6741,12.9887 813.4171,13.3262 817.0487,18.5253 C820.187,12.9875 824.6481,11.5986 828.7616,17.5293 C832.0533,11.2338 837.7312,10.4187 841.9768,16.5116 C845.59,9.0794 849.8363,9.5507 855.3831,14.4011 C858.2668,8.2739 863.927,6 868.5131,12.6519 C872.8964,6.0527 878.2304,6.8827 881.2431,13.9304 C885.7643,8.9925 891.7894,9.5124 893.8343,16.5369 C897.5254,10.312 901.6087,11.4828 905.615,16.1975 C910.039,9.575 914.9545,10.1388 918.5784,16.9686 C923.5562,12.4818 927.7606,11.3547 931.0025,18.7792 C940.3227,21.8942 939.6962,29.5145 933.2732,34.8534 C939.1869,40.2985 937.0505,47.6302 929.86,50.1517 C926.0087,55.8857 922.0409,56.2872 918.3703,49.9794 C914.7684,56.6125 909.3119,57.0715 904.3693,51.5199 C900.084,57.4043 894.7775,56.9973 891.8835,50.1549 C889.211,56.7454 884.4582,57.6792 879.9288,51.958 C875.5777,58.5799 870.7291,58.5351 866.6379,51.7012 C862.9359,57.3099 857.3213,56.6575 854.9004,50.4308 C851.8521,55.4103 846.9163,55.6225 843.2846,51.1475 C838.2298,56.3236 833.8734,56.4427 829.9558,49.8587 C826.4742,56.9237 819.8487,56.3095 816.2171,50.0129 C812.5588,54.7642 808.5134,55.4776 805.3117,49.5467 C796.883,48.9046 794.1375,41.6273 798.1894,34.9115 C791.6105,26.0098 794.9037,19.4412 805.476,17.8754 " fill="#98FB98" style="stroke:#181818;stroke-width:0.5;"/><text fill="#000000" font-family="sans-serif" font-size="14" lengthAdjust="spacing" textLength="112" x="810.5" y="39.222">Polifonia ontology</text></g><!--MD5=[78fee9e0a9bcfb7f2468c748de35aa77]
entity downpolifonia--><g id="elem_downpolifonia"><rect fill="#F0F8FF" height="37.6094" rx="2.5" ry="2.5" style="stroke:#181818;stroke-width:0.5;" width="246" x="738.5" y="117.6888"/><text fill="#000000" font-family="sans-serif" font-size="14" lengthAdjust="spacing" textLength="57" x="748.5" y="142.222">polifonia/</text><text fill="#000000" font-family="sans-serif" font-size="14" font-weight="bold" lengthAdjust="spacing" textLength="169" x="805.5" y="142.222">download-ontologies.sh</text></g><!--MD5=[73c35498f2a02e970c3faca1330d398c]
entity polifoniaowl--><g id="elem_polifoniaowl"><path d="M758.5,215.6888 L799.5,215.6888 A3.75,3.75 0 0 1 802,218.1888 L809,236.6888 L894.5,236.6888 A2.5,2.5 0 0 1 897,239.1888 L897,268.7982 A2.5,2.5 0 0 1 894.5,271.2982 L758.5,271.2982 A2.5,2.5 0 0 1 756,268.7982 L756,218.1888 A2.5,2.5 0 0 1 758.5,215.6888 " fill="#98FB98" style="stroke:#181818;stroke-width:0.5;"/><line style="stroke:#181818;stroke-width:0.5;" x1="756" x2="809" y1="236.6888" y2="236.6888"/><text fill="#000000" font-family="sans-serif" font-size="14" lengthAdjust="spacing" textLength="111" x="766" y="258.222">polifonia/ontology</text></g><!--MD5=[5841ba748950356aeaa1b954b6dde3b6]
entity get_known_mappings--><g id="elem_get_known_mappings"><rect fill="#F0F8FF" height="37.6094" rx="2.5" ry="2.5" style="stroke:#181818;stroke-width:0.5;" width="193" x="730" y="331.6888"/><text fill="#000000" font-family="sans-serif" font-size="14" font-weight="bold" lengthAdjust="spacing" textLength="173" x="740" y="356.222">get_known_mappings.py</text></g><!--MD5=[755c5f58ada36855c23cee21a828b0fc]
entity known_mappings.tsv--><g id="elem_known_mappings.tsv"><path d="M566,432.1888 L566,464.7982 A2.5,2.5 0 0 0 568.5,467.2982 L714.5,467.2982 A2.5,2.5 0 0 0 717,464.7982 L717,439.6888 L707,429.6888 L568.5,429.6888 A2.5,2.5 0 0 0 566,432.1888 " fill="#F1F1F1" style="stroke:#181818;stroke-width:0.5;"/><path d="M707,429.6888 L707,437.1888 A2.5,2.5 0 0 0 709.5,439.6888 L717,439.6888 " fill="#F1F1F1" style="stroke:#181818;stroke-width:0.5;"/><text fill="#000000" font-family="sans-serif" font-size="14" lengthAdjust="spacing" textLength="131" x="576" y="454.222">known_mappings.tsv</text></g><!--MD5=[dcc2b970af72336f7d4d820fb5cbb08d]
entity polifonia_wikidata--><g id="elem_polifonia_wikidata"><path d="M990,432.1888 L990,464.7982 A2.5,2.5 0 0 0 992.5,467.2982 L1194.5,467.2982 A2.5,2.5 0 0 0 1197,464.7982 L1197,439.6888 L1187,429.6888 L992.5,429.6888 A2.5,2.5 0 0 0 990,432.1888 " fill="#F1F1F1" style="stroke:#181818;stroke-width:0.5;"/><path d="M1187,429.6888 L1187,437.1888 A2.5,2.5 0 0 0 1189.5,439.6888 L1197,439.6888 " fill="#F1F1F1" style="stroke:#181818;stroke-width:0.5;"/><text fill="#000000" font-family="sans-serif" font-size="14" lengthAdjust="spacing" textLength="187" x="1000" y="454.222">wikidata/polifonia_wikidata.tsv</text></g><!--MD5=[8033b862fb1bb83eadd06349bdae6214]
entity known_mappings.nq--><g id="elem_known_mappings.nq"><path d="M752,432.1888 L752,464.7982 A2.5,2.5 0 0 0 754.5,467.2982 L898.5,467.2982 A2.5,2.5 0 0 0 901,464.7982 L901,439.6888 L891,429.6888 L754.5,429.6888 A2.5,2.5 0 0 0 752,432.1888 " fill="#98FB98" style="stroke:#181818;stroke-width:0.5;"/><path d="M891,429.6888 L891,437.1888 A2.5,2.5 0 0 0 893.5,439.6888 L901,439.6888 " fill="#98FB98" style="stroke:#181818;stroke-width:0.5;"/><text fill="#000000" font-family="sans-serif" font-size="14" lengthAdjust="spacing" textLength="129" x="762" y="454.222">known_mappings.nq</text></g><g id="elem_GMN32"><path d="M607.5,533.6888 L607.5,560.0404 A0,0 0 0 0 607.5,560.0404 L973.5,560.0404 A0,0 0 0 0 973.5,560.0404 L973.5,543.6888 L963.5,533.6888 L799.07,533.6888 L819.73,467.7488 L791.07,533.6888 L607.5,533.6888 A0,0 0 0 0 607.5,533.6888 " fill="#FEFFDD" style="stroke:#181818;stroke-width:0.5;"/><path d="M963.5,533.6888 L963.5,543.6888 L973.5,543.6888 L963.5,533.6888 " fill="#FEFFDD" style="stroke:#181818;stroke-width:0.5;"/><text fill="#000000" font-family="sans-serif" font-size="13" lengthAdjust="spacing" textLength="345" x="613.5" y="552.1839">Includes some manual matches, mainly for the core module</text></g><!--MD5=[389860a1d1ef945b34134be47b1372a9]
entity notebook--><g id="elem_notebook"><rect fill="#F0F8FF" height="37.6094" rx="2.5" ry="2.5" style="stroke:#181818;stroke-width:0.5;" width="234" x="338.5" y="527.6888"/><text fill="#000000" font-family="sans-serif" font-size="14" lengthAdjust="spacing" textLength="60" x="348.5" y="552.222">Notebook</text><text fill="#000000" font-family="sans-serif" font-size="14" font-weight="bold" lengthAdjust="spacing" textLength="150" x="412.5" y="552.222">bertmap_match.ipynb</text></g><!--MD5=[6b785f8ac55ff1e4cefb0022ae76bf54]
entity yml--><g id="elem_yml"><path d="M239,432.1888 L239,464.7982 A2.5,2.5 0 0 0 241.5,467.2982 L341.5,467.2982 A2.5,2.5 0 0 0 344,464.7982 L344,439.6888 L334,429.6888 L241.5,429.6888 A2.5,2.5 0 0 0 239,432.1888 " fill="#F1F1F1" style="stroke:#181818;stroke-width:0.5;"/><path d="M334,429.6888 L334,437.1888 A2.5,2.5 0 0 0 336.5,439.6888 L344,439.6888 " fill="#F1F1F1" style="stroke:#181818;stroke-width:0.5;"/><text fill="#000000" font-family="sans-serif" font-size="14" lengthAdjust="spacing" textLength="85" x="249" y="454.222">bertmap.yaml</text></g><!--MD5=[733ce2bb84e70bd21f911b8d7f047380]
entity repaired--><g id="elem_repaired"><path d="M601.5,628.1888 L601.5,660.7982 A2.5,2.5 0 0 0 604,663.2982 L823,663.2982 A2.5,2.5 0 0 0 825.5,660.7982 L825.5,635.6888 L815.5,625.6888 L604,625.6888 A2.5,2.5 0 0 0 601.5,628.1888 " fill="#F1F1F1" style="stroke:#181818;stroke-width:0.5;"/><path d="M815.5,625.6888 L815.5,633.1888 A2.5,2.5 0 0 0 818,635.6888 L825.5,635.6888 " fill="#F1F1F1" style="stroke:#181818;stroke-width:0.5;"/><text fill="#000000" font-family="sans-serif" font-size="14" lengthAdjust="spacing" textLength="204" x="611.5" y="650.222">bertmap_repaired_mappings.tsv</text></g><!--MD5=[283129df4498487297f08a8c78422a6d]
entity merge1--><g id="elem_merge1"><rect fill="#F0F8FF" height="37.6094" rx="2.5" ry="2.5" style="stroke:#181818;stroke-width:0.5;" width="276" x="1008.5" y="527.6888"/><text fill="#000000" font-family="sans-serif" font-size="14" font-weight="bold" lengthAdjust="spacing" textLength="205" x="1018.5" y="552.222">merge_true_with_bertmap.py</text><text fill="#000000" font-family="sans-serif" font-size="14" lengthAdjust="spacing" textLength="47" x="1227.5" y="552.222">(part 1)</text></g><!--MD5=[4637a617936e2c1a2a4f01032fa2a44d]
entity merge2--><g id="elem_merge2"><rect fill="#F0F8FF" height="37.6094" rx="2.5" ry="2.5" style="stroke:#181818;stroke-width:0.5;" width="276" x="662.5" y="723.6888"/><text fill="#000000" font-family="sans-serif" font-size="14" font-weight="bold" lengthAdjust="spacing" textLength="205" x="672.5" y="748.222">merge_true_with_bertmap.py</text><text fill="#000000" font-family="sans-serif" font-size="14" lengthAdjust="spacing" textLength="47" x="881.5" y="748.222">(part 2)</text></g><!--MD5=[934938dae3e2cc12af892b82562bf0a1]
entity all.tsv--><g id="elem_all.tsv"><path d="M989.5,628.1888 L989.5,660.7982 A2.5,2.5 0 0 0 992,663.2982 L1043,663.2982 A2.5,2.5 0 0 0 1045.5,660.7982 L1045.5,635.6888 L1035.5,625.6888 L992,625.6888 A2.5,2.5 0 0 0 989.5,628.1888 " fill="#F1F1F1" style="stroke:#181818;stroke-width:0.5;"/><path d="M1035.5,625.6888 L1035.5,633.1888 A2.5,2.5 0 0 0 1038,635.6888 L1045.5,635.6888 " fill="#F1F1F1" style="stroke:#181818;stroke-width:0.5;"/><text fill="#000000" font-family="sans-serif" font-size="14" lengthAdjust="spacing" textLength="36" x="999.5" y="650.222">all.tsv</text></g><!--MD5=[659ea1eae1dd7bef357c7c1ee80bb90e]
entity all_with_bertmap.tsv--><g id="elem_all_with_bertmap.tsv"><path d="M726.5,824.1888 L726.5,856.7982 A2.5,2.5 0 0 0 729,859.2982 L872,859.2982 A2.5,2.5 0 0 0 874.5,856.7982 L874.5,831.6888 L864.5,821.6888 L729,821.6888 A2.5,2.5 0 0 0 726.5,824.1888 " fill="#F1F1F1" style="stroke:#181818;stroke-width:0.5;"/><path d="M864.5,821.6888 L864.5,829.1888 A2.5,2.5 0 0 0 867,831.6888 L874.5,831.6888 " fill="#F1F1F1" style="stroke:#181818;stroke-width:0.5;"/><text fill="#000000" font-family="sans-serif" font-size="14" lengthAdjust="spacing" textLength="128" x="736.5" y="846.222">all_with_bertmap.tsv</text></g><g id="elem_GMN55"><path d="M25.5,827.6888 L25.5,854.0404 A0,0 0 0 0 25.5,854.0404 L691.5,854.0404 A0,0 0 0 0 691.5,854.0404 L691.5,845.6888 L726.14,840.6888 L691.5,837.6888 L691.5,837.6888 L681.5,827.6888 L25.5,827.6888 A0,0 0 0 0 25.5,827.6888 " fill="#FEFFDD" style="stroke:#181818;stroke-width:0.5;"/><path d="M681.5,827.6888 L681.5,837.6888 L691.5,837.6888 L681.5,827.6888 " fill="#FEFFDD" style="stroke:#181818;stroke-width:0.5;"/><text fill="#000000" font-family="sans-serif" font-size="13" lengthAdjust="spacing" textLength="645" x="31.5" y="846.1839">Manual (true) matches are added to all classes which have a Bertmap (predicted) match and no known mapping</text></g><!--MD5=[458561199ace05383467b209cb9e3458]
entity evaluate--><g id="elem_evaluate"><rect fill="#F0F8FF" height="37.6094" rx="2.5" ry="2.5" style="stroke:#181818;stroke-width:0.5;" width="233" x="684" y="919.6888"/><text fill="#000000" font-family="sans-serif" font-size="14" font-weight="bold" lengthAdjust="spacing" textLength="213" x="694" y="944.222">evaultate_all_with_bertmap.py</text></g><!--MD5=[b7878542113b637f13679d462e470c05]
entity report.txt--><g id="elem_report.txt"><path d="M762.5,1020.1888 L762.5,1052.7982 A2.5,2.5 0 0 0 765,1055.2982 L836,1055.2982 A2.5,2.5 0 0 0 838.5,1052.7982 L838.5,1027.6888 L828.5,1017.6888 L765,1017.6888 A2.5,2.5 0 0 0 762.5,1020.1888 " fill="#F1F1F1" style="stroke:#181818;stroke-width:0.5;"/><path d="M828.5,1017.6888 L828.5,1025.1888 A2.5,2.5 0 0 0 831,1027.6888 L838.5,1027.6888 " fill="#F1F1F1" style="stroke:#181818;stroke-width:0.5;"/><text fill="#000000" font-family="sans-serif" font-size="14" lengthAdjust="spacing" textLength="56" x="772.5" y="1042.222">report.txt</text></g><!--MD5=[a9710f8c88618c05715ffe4c277dfce2]
link musicClasses.rq to wd1--><g id="link_musicClasses.rq_wd1"><path d="M111.48,52.7488 C154.55,70.4288 220.03,97.3188 264.69,115.6488 " fill="none" id="musicClasses.rq-to-wd1" style="stroke:#181818;stroke-width:1.0;"/><polygon fill="#181818" points="269.49,117.6188,262.6832,110.5008,264.8645,115.7201,259.6452,117.9015,269.49,117.6188" style="stroke:#181818;stroke-width:1.0;"/></g><!--MD5=[aa5dbced5e32bd737265af757fc99254]
link musicDataProperties.rq to wd1--><g id="link_musicDataProperties.rq_wd1"><path d="M260.12,52.7488 C270.96,69.5888 287.17,94.7788 298.89,112.9788 " fill="none" id="musicDataProperties.rq-to-wd1" style="stroke:#181818;stroke-width:1.0;"/><polygon fill="#181818" points="301.76,117.4488,300.2729,107.7129,299.0627,113.2388,293.5368,112.0286,301.76,117.4488" style="stroke:#181818;stroke-width:1.0;"/></g><!--MD5=[4848bc98fe42ad88255a2d9b3b67ee69]
link musicObjectProperties.rq to wd1--><g id="link_musicObjectProperties.rq_wd1"><path d="M431.76,52.7488 C407.13,70.0188 369.99,96.0688 343.92,114.3588 " fill="none" id="musicObjectProperties.rq-to-wd1" style="stroke:#181818;stroke-width:1.0;"/><polygon fill="#181818" points="339.51,117.4488,349.1734,115.5465,343.6008,114.5738,344.5734,109.0012,339.51,117.4488" style="stroke:#181818;stroke-width:1.0;"/></g><!--MD5=[767d0499dceeb32d4477320328e78108]
link wikidata to wd1--><g id="link_wikidata_wd1"><path d="M589.82,57.7288 C527.19,75.3988 441.73,99.5088 382.51,116.2188 " fill="none" id="wikidata-to-wd1" style="stroke:#181818;stroke-width:1.0;"/><polygon fill="#181818" points="377.57,117.6088,387.3177,119.0169,382.3824,116.2522,385.1471,111.317,377.57,117.6088" style="stroke:#181818;stroke-width:1.0;"/></g><!--MD5=[806e7d69961591b20ad38cbb6e1394ca]
link wd1 to musicClasses.rdf--><g id="link_wd1_musicClasses.rdf"><path d="M313.5,155.9788 C313.5,173.5988 313.5,200.3088 313.5,219.4288 " fill="none" id="wd1-to-musicClasses.rdf" style="stroke:#181818;stroke-width:1.0;"/><polygon fill="#181818" points="313.5,224.6088,317.5,215.6088,313.5,219.6088,309.5,215.6088,313.5,224.6088" style="stroke:#181818;stroke-width:1.0;"/></g><!--MD5=[c988c311ea40943757ebe8f7a08dc319]
link wd1 to musicDataProperties.rdf--><g id="link_wd1_musicDataProperties.rdf"><path d="M345.3,155.7388 C377.73,174.1488 427.98,202.6688 462.01,221.9788 " fill="none" id="wd1-to-musicDataProperties.rdf" style="stroke:#181818;stroke-width:1.0;"/><polygon fill="#181818" points="466.49,224.5188,460.6351,216.5992,462.1409,222.052,456.6881,223.5578,466.49,224.5188" style="stroke:#181818;stroke-width:1.0;"/></g><!--MD5=[05fbbcada81465b557f6210ff25988a1]
link wd1 to musicObjectProperties.rdf--><g id="link_wd1_musicObjectProperties.rdf"><path d="M280.84,155.7388 C247.53,174.1488 195.92,202.6688 160.98,221.9788 " fill="none" id="wd1-to-musicObjectProperties.rdf" style="stroke:#181818;stroke-width:1.0;"/><polygon fill="#181818" points="156.37,224.5188,166.1833,223.6827,160.7502,222.1076,162.3253,216.6745,156.37,224.5188" style="stroke:#181818;stroke-width:1.0;"/></g><!--MD5=[b3b3cabd5c5f73d9ab4c9917798cb810]
link musicClasses.rdf to wd2--><g id="link_musicClasses.rdf_wd2"><path d="M313.5,262.9788 C313.5,280.5988 313.5,307.3088 313.5,326.4288 " fill="none" id="musicClasses.rdf-to-wd2" style="stroke:#181818;stroke-width:1.0;"/><polygon fill="#181818" points="313.5,331.6088,317.5,322.6088,313.5,326.6088,309.5,322.6088,313.5,331.6088" style="stroke:#181818;stroke-width:1.0;"/></g><!--MD5=[8e56ce5f184257223df25506611bb3d9]
link musicDataProperties.rdf to wd2--><g id="link_musicDataProperties.rdf_wd2"><path d="M466.7,262.7388 C434.27,281.1488 384.02,309.6688 349.99,328.9788 " fill="none" id="musicDataProperties.rdf-to-wd2" style="stroke:#181818;stroke-width:1.0;"/><polygon fill="#181818" points="345.51,331.5188,355.3119,330.5578,349.8591,329.052,351.3649,323.5992,345.51,331.5188" style="stroke:#181818;stroke-width:1.0;"/></g><!--MD5=[d012bba0ae770f3d8d45915f7fb0f317]
link musicObjectProperties.rdf to wd2--><g id="link_musicObjectProperties.rdf_wd2"><path d="M156.16,262.7388 C189.47,281.1488 241.08,309.6688 276.02,328.9788 " fill="none" id="musicObjectProperties.rdf-to-wd2" style="stroke:#181818;stroke-width:1.0;"/><polygon fill="#181818" points="280.63,331.5188,274.6747,323.6745,276.2498,329.1076,270.8167,330.6827,280.63,331.5188" style="stroke:#181818;stroke-width:1.0;"/></g><!--MD5=[ab0fb1b3be1f7be33bf5a837a46a2b9a]
link wd2 to music.owl--><g id="link_wd2_music.owl"><path d="M333.44,369.7488 C350.94,385.5988 376.47,408.7188 395.17,425.6588 " fill="none" id="wd2-to-music.owl" style="stroke:#181818;stroke-width:1.0;"/><polygon fill="#181818" points="399.29,429.3888,395.2953,420.3865,395.5806,426.0361,389.931,426.3215,399.29,429.3888" style="stroke:#181818;stroke-width:1.0;"/></g><!--MD5=[c43d99b2042eb369c788374d615a74f9]
link polifonia to downpolifonia--><g id="link_polifonia_downpolifonia"><path d="M865.35,57.8588 C864.54,74.1888 863.47,95.9588 862.66,112.3288 " fill="none" id="polifonia-to-downpolifonia" style="stroke:#181818;stroke-width:1.0;"/><polygon fill="#181818" points="862.39,117.6588,866.8219,108.8635,862.6326,112.6647,858.8313,108.4754,862.39,117.6588" style="stroke:#181818;stroke-width:1.0;"/></g><!--MD5=[0b89dd9ec0d127c588631ab378953fc8]
link downpolifonia to polifoniaowl--><g id="link_downpolifonia_polifoniaowl"><path d="M855.4,155.9788 C850.39,171.0188 843.17,192.6888 837.2,210.5988 " fill="none" id="downpolifonia-to-polifoniaowl" style="stroke:#181818;stroke-width:1.0;"/><polygon fill="#181818" points="835.55,215.5488,842.1974,208.2816,837.1354,210.8068,834.6102,205.7449,835.55,215.5488" style="stroke:#181818;stroke-width:1.0;"/></g><!--MD5=[693e28c6973154e7705ae98420c3cf75]
link known_mappings.nq to get_known_mappings--><g id="link_known_mappings.nq_get_known_mappings"><path d="M837.37,429.3888 C840.56,413.8588 840.85,391.4988 838.23,374.7488 " fill="none" id="known_mappings.nq-to-get_known_mappings" style="stroke:#181818;stroke-width:1.0;"/><polygon fill="#181818" points="837.32,369.7488,834.975,379.3144,838.2044,374.67,842.8488,377.8994,837.32,369.7488" style="stroke:#181818;stroke-width:1.0;"/></g><!--MD5=[c1217cf88b0f29e8b11087854a5f63b7]
link get_known_mappings to known_mappings.nq--><g id="link_get_known_mappings_known_mappings.nq"><path d="M816.28,369.7488 C813.24,385.1988 812.94,407.5488 815.38,424.3588 " fill="none" id="get_known_mappings-to-known_mappings.nq" style="stroke:#181818;stroke-width:1.0;"/><polygon fill="#181818" points="816.23,429.3888,818.687,419.8514,815.4034,424.4576,810.7971,421.174,816.23,429.3888" style="stroke:#181818;stroke-width:1.0;"/></g><!--MD5=[ed979d3b5f248501e2a88e004ba5c0c6]
link polifoniaowl to get_known_mappings--><g id="link_polifoniaowl_get_known_mappings"><path d="M826.5,271.7288 C826.5,288.6488 826.5,310.2288 826.5,326.3988 " fill="none" id="polifoniaowl-to-get_known_mappings" style="stroke:#181818;stroke-width:1.0;"/><polygon fill="#181818" points="826.5,331.6588,830.5,322.6588,826.5,326.6588,822.5,322.6588,826.5,331.6588" style="stroke:#181818;stroke-width:1.0;"/></g><!--MD5=[2b86ac122b7d44d5d29bbd086a743867]
link wikidata to get_known_mappings--><g id="link_wikidata_get_known_mappings"><path d="M673.7,57.9888 C678.83,102.5788 694.63,201.7888 738.5,271.6888 C752.83,294.5188 775.78,314.5388 794.65,328.5888 " fill="none" id="wikidata-to-get_known_mappings" style="stroke:#181818;stroke-width:1.0;"/><polygon fill="#181818" points="798.86,331.6688,793.9573,323.1269,794.8244,328.717,789.2343,329.584,798.86,331.6688" style="stroke:#181818;stroke-width:1.0;"/></g><!--MD5=[02edb1104291889b8d66dbffb484c5d6]
link get_known_mappings to known_mappings.tsv--><g id="link_get_known_mappings_known_mappings.tsv"><path d="M791.7,369.7488 C760.28,386.0488 714.06,410.0388 681.2,427.0888 " fill="none" id="get_known_mappings-to-known_mappings.tsv" style="stroke:#181818;stroke-width:1.0;"/><polygon fill="#181818" points="676.46,429.5488,686.2914,428.9635,680.9003,427.2502,682.6136,421.859,676.46,429.5488" style="stroke:#181818;stroke-width:1.0;"/></g><!--MD5=[0e94c6be3513b43e7c7413ee47c196fd]
link get_known_mappings to polifonia_wikidata--><g id="link_get_known_mappings_polifonia_wikidata"><path d="M876.72,369.7488 C922.73,386.2888 990.7,410.7288 1038.23,427.8188 " fill="none" id="get_known_mappings-to-polifonia_wikidata" style="stroke:#181818;stroke-width:1.0;"/><polygon fill="#181818" points="1043.05,429.5488,1035.9405,422.733,1038.3465,427.8527,1033.2268,430.2586,1043.05,429.5488" style="stroke:#181818;stroke-width:1.0;"/></g><!--MD5=[2059ce5ff7f260f9eaad49a54173f4b8]
link yml to notebook--><g id="link_yml_notebook"><path d="M322.35,467.7488 C350.09,483.9888 390.84,507.8388 419.95,524.8788 " fill="none" id="yml-to-notebook" style="stroke:#181818;stroke-width:1.0;"/><polygon fill="#181818" points="424.51,527.5488,418.7564,519.5553,420.1927,525.0268,414.7212,526.4631,424.51,527.5488" style="stroke:#181818;stroke-width:1.0;"/></g><!--MD5=[38de452834f1d0d9aaa29f4e33ea06c6]
link known_mappings.tsv to notebook--><g id="link_known_mappings.tsv_notebook"><path d="M606.51,467.7488 C574.92,484.0488 528.45,508.0388 495.42,525.0888 " fill="none" id="known_mappings.tsv-to-notebook" style="stroke:#181818;stroke-width:1.0;"/><polygon fill="#181818" points="490.64,527.5488,500.4714,526.9635,495.0803,525.2502,496.7936,519.859,490.64,527.5488" style="stroke:#181818;stroke-width:1.0;"/></g><!--MD5=[c9235b93c0ca2e7328d002aab079e0eb]
link music.owl to notebook--><g id="link_music.owl_notebook"><path d="M426.27,467.7488 C432.07,483.1988 440.45,505.5488 446.75,522.3588 " fill="none" id="music.owl-to-notebook" style="stroke:#181818;stroke-width:1.0;"/><polygon fill="#181818" points="448.64,527.3888,449.2252,517.5574,446.8844,522.7072,441.7346,520.3664,448.64,527.3888" style="stroke:#181818;stroke-width:1.0;"/></g><!--MD5=[74f5634af1e53b4fa5692eb837be1fa0]
link polifoniaowl to notebook--><g id="link_polifoniaowl_notebook"><path d="M776.27,271.7888 C717.91,304.6388 620.46,363.8388 548.5,429.6888 C517,458.5188 487.37,498.5288 470.36,523.2288 " fill="none" id="polifoniaowl-to-notebook" style="stroke:#181818;stroke-width:1.0;"/><polygon fill="#181818" points="467.53,527.3588,475.9166,522.195,470.356,523.234,469.3169,517.6734,467.53,527.3588" style="stroke:#181818;stroke-width:1.0;"/></g><!--MD5=[6dff111bf92f4e1c39efcc99d9302000]
link notebook to repaired--><g id="link_notebook_repaired"><path d="M504.03,565.7488 C548.39,582.2488 613.9,606.6288 659.81,623.7088 " fill="none" id="notebook-to-repaired" style="stroke:#181818;stroke-width:1.0;"/><polygon fill="#181818" points="664.75,625.5488,657.7091,618.6622,660.0637,623.8057,654.9201,626.1603,664.75,625.5488" style="stroke:#181818;stroke-width:1.0;"/></g><!--MD5=[bf60bf5be5348fbfdc7b7b0c8d3b5c06]
link polifonia_wikidata to merge1--><g id="link_polifonia_wikidata_merge1"><path d="M1103.47,467.7488 C1112.08,483.3388 1124.56,505.9388 1133.86,522.7988 " fill="none" id="polifonia_wikidata-to-merge1" style="stroke:#181818;stroke-width:1.0;"/><polygon fill="#181818" points="1136.4,527.3888,1135.5258,517.5788,1133.9718,523.018,1128.5326,521.464,1136.4,527.3888" style="stroke:#181818;stroke-width:1.0;"/></g><!--MD5=[298149d0bf12cafed7710bee071506e1]
link merge1 to all.tsv--><g id="link_merge1_all.tsv"><path d="M1122.24,565.7488 C1100.66,581.7988 1069.09,605.2988 1046.25,622.2888 " fill="none" id="merge1-to-all.tsv" style="stroke:#181818;stroke-width:1.0;"/><polygon fill="#181818" points="1042.09,625.3888,1051.6987,623.2272,1046.102,622.4048,1046.9243,616.8081,1042.09,625.3888" style="stroke:#181818;stroke-width:1.0;"/></g><!--MD5=[2b751184c95a4b18a2f362ed47a41364]
link all.tsv to merge2--><g id="link_all.tsv_merge2"><path d="M989.13,658.2388 C952.77,674.3188 889.29,702.4088 846.11,721.5088 " fill="none" id="all.tsv-to-merge2" style="stroke:#181818;stroke-width:1.0;"/><polygon fill="#181818" points="841.48,723.5588,851.3289,723.5645,846.0502,721.5308,848.084,716.2522,841.48,723.5588" style="stroke:#181818;stroke-width:1.0;"/></g><!--MD5=[f81c3c6a894302db58443176a0b2d4f1]
link repaired to merge2--><g id="link_repaired_merge2"><path d="M729.86,663.7488 C744.23,679.5988 765.18,702.7188 780.53,719.6588 " fill="none" id="repaired-to-merge2" style="stroke:#181818;stroke-width:1.0;"/><polygon fill="#181818" points="783.91,723.3888,780.8247,714.0357,780.5502,719.6859,774.9,719.4114,783.91,723.3888" style="stroke:#181818;stroke-width:1.0;"/></g><!--MD5=[ecd67360459a03a867404f1952ada583]
link merge2 to all_with_bertmap.tsv--><g id="link_merge2_all_with_bertmap.tsv"><path d="M800.5,761.7488 C800.5,777.1988 800.5,799.5488 800.5,816.3588 " fill="none" id="merge2-to-all_with_bertmap.tsv" style="stroke:#181818;stroke-width:1.0;"/><polygon fill="#181818" points="800.5,821.3888,804.5,812.3888,800.5,816.3888,796.5,812.3888,800.5,821.3888" style="stroke:#181818;stroke-width:1.0;"/></g><!--MD5=[c7f5ecdea161408f6abbf25742ad6a3d]
link all_with_bertmap.tsv to evaluate--><g id="link_all_with_bertmap.tsv_evaluate"><path d="M800.5,859.7488 C800.5,875.1988 800.5,897.5488 800.5,914.3588 " fill="none" id="all_with_bertmap.tsv-to-evaluate" style="stroke:#181818;stroke-width:1.0;"/><polygon fill="#181818" points="800.5,919.3888,804.5,910.3888,800.5,914.3888,796.5,910.3888,800.5,919.3888" style="stroke:#181818;stroke-width:1.0;"/></g><!--MD5=[4151a4e9ee27f7a9076680b2ff08a2b7]
link evaluate to report.txt--><g id="link_evaluate_report.txt"><path d="M800.5,957.7488 C800.5,973.1988 800.5,995.5488 800.5,1012.3588 " fill="none" id="evaluate-to-report.txt" style="stroke:#181818;stroke-width:1.0;"/><polygon fill="#181818" points="800.5,1017.3888,804.5,1008.3888,800.5,1012.3888,796.5,1008.3888,800.5,1017.3888" style="stroke:#181818;stroke-width:1.0;"/></g><!--MD5=[0c2e7ada2e157612a2dac31a37249bc6]
@startuml flow

cloud "Wikidata Query Service" as wikidata #palegreen
file musicClasses.rq
file musicDataProperties.rq
file musicObjectProperties.rq
file musicClasses.rdf
file musicDataProperties.rdf
file musicObjectProperties.rdf
file music.owl #palegreen
rectangle "**download-ontologies.py** (part 1 - fetch)" as wd1 #aliceblue
rectangle "**download-ontologies.py** (part 2 - merge)" as wd2 #aliceblue
musicClasses.rq - -> wd1
musicDataProperties.rq - -> wd1
musicObjectProperties.rq - -> wd1
wikidata - -> wd1
wd1 - -> musicClasses.rdf
wd1 - -> musicDataProperties.rdf
wd1 - -> musicObjectProperties.rdf
musicClasses.rdf - -> wd2
musicDataProperties.rdf - -> wd2
musicObjectProperties.rdf - -> wd2
wd2 - -> music.owl

cloud "Polifonia ontology" as polifonia #palegreen
rectangle "polifonia/**download-ontologies.sh**" as downpolifonia #aliceblue
folder "polifonia/ontology" as polifoniaowl #palegreen
polifonia - -> downpolifonia
downpolifonia - -> polifoniaowl

rectangle "**get_known_mappings.py**" as get_known_mappings #aliceblue
file "known_mappings.tsv"
file "wikidata/polifonia_wikidata.tsv" as polifonia_wikidata
file "known_mappings.nq" #palegreen
note bottom of known_mappings.nq: Includes some manual matches, mainly for the core module
known_mappings.nq - -> get_known_mappings
polifoniaowl - -> get_known_mappings
wikidata - -> get_known_mappings
get_known_mappings - -> known_mappings.tsv
get_known_mappings - -> polifonia_wikidata
get_known_mappings - -> known_mappings.nq

rectangle "Notebook **bertmap_match.ipynb**" as notebook #aliceblue
file "bertmap.yaml" as yml
file "bertmap_repaired_mappings.tsv" as repaired
yml - -> notebook
known_mappings.tsv - -> notebook
music.owl - -> notebook
polifoniaowl - -> notebook
notebook - -> repaired

rectangle "**merge_true_with_bertmap.py** (part 1)" as merge1 #aliceblue
rectangle "**merge_true_with_bertmap.py** (part 2)" as merge2 #aliceblue
file all.tsv
polifonia_wikidata - -> merge1
merge1 - -> all.tsv

file "all_with_bertmap.tsv"
note left of all_with_bertmap.tsv: Manual (true) matches are added to all classes which have a Bertmap (predicted) match and no known mapping
all.tsv - -> merge2
repaired - -> merge2
merge2 - -> all_with_bertmap.tsv

rectangle "**evaultate_all_with_bertmap.py**" as evaluate #aliceblue
file "report.txt"
all_with_bertmap.tsv - -> evaluate
evaluate - -> report.txt
@enduml

PlantUML version 1.2022.7(Mon Aug 22 19:01:30 CEST 2022)
(GPL source distribution)
Java Runtime: OpenJDK Runtime Environment
JVM: OpenJDK 64-Bit Server VM
Default Encoding: Cp1252
Language: it
Country: IT
--></g></svg>