<?xml version="1.0" encoding="UTF-8" standalone="no"?><svg xmlns="http://www.w3.org/2000/svg" xmlns:xlink="http://www.w3.org/1999/xlink" contentStyleType="text/css" height="1062px" preserveAspectRatio="none" style="width:1576px;height:1062px;background:#FFFFFF;" version="1.1" viewBox="0 0 1576 1062" width="1576px" zoomAndPan="magnify"><defs/><g><!--MD5=[d1ed0d2940ccad314a24ccbc4df5340e]
entity wikidata--><g id="elem_wikidata"><path d="M902.3849,18.5117 C906.17,13.2824 910.1016,11.7654 914.2315,18.1604 C917.1326,11.9228 921.6398,11.9909 926.1608,16.3341 C930.6221,11.3242 934.2923,11.3731 938.1419,17.0217 C941.0743,10.2732 945.8156,10.4017 949.8972,15.9205 C953.7221,9.9573 957.794,9.5369 961.6874,15.8548 C964.3774,11.0266 968.0559,9.9897 971.8653,14.6547 C975.1907,8.839 981.2067,7.7198 984.8818,14.2871 C988.1937,8.3454 992.4474,9.2728 995.9829,14.0557 C999.3066,9.4246 1004.3041,10.3852 1006.5287,15.2732 C1010.5285,8.6758 1016.2101,8.8333 1019.9063,15.5776 C1023.6523,10.9754 1026.7732,10.6419 1030.2199,15.8909 C1034.1293,10.2153 1038.4962,11.6103 1041.3661,16.9434 C1045.7689,11.5686 1050.773,11.9854 1053.6929,18.483 C1057.133,12.5748 1062.4564,13.5211 1065.5545,18.8443 C1074.7316,19.3186 1078.654,26.9769 1074.1323,34.8108 C1078.7087,42.9732 1073.9023,50.3603 1064.7277,50.0197 C1062.3065,56.8413 1056.2475,56.5394 1052.4666,51.4153 C1049.9176,57.5984 1046.0441,58.047 1041.2506,53.8377 C1037.9091,58.4405 1033.5933,60.0362 1029.9861,54.1222 C1026.8053,59.6177 1021.8885,60.2059 1017.753,55.2384 C1014.578,61.4111 1010.8908,61.3373 1006.7664,56.1572 C1003.8206,60.8908 999.7001,61.2938 996.2885,56.6792 C993.7821,63.8141 989.5149,64.063 984.3625,59.3405 C979.0028,63.7773 974.5508,63.6607 971.9174,56.4321 C968.7009,62.5525 963.3132,62.142 960.242,56.2904 C956.361,60.5195 953.2548,60.5017 950.447,55.1887 C946.8981,60.9005 940.1036,61.084 936.7634,54.9474 C932.8479,58.8546 929.0328,58.5606 926.1022,53.7438 C921.5027,58.4752 918.2054,57.3233 915.4951,51.7914 C910.9506,56.6752 906.121,55.6904 903.5934,49.6034 C895.7962,47.4146 893.0112,41.6891 899.606,35.4466 C891.6276,29.2724 892.6021,21.7714 902.3849,18.5117 " fill="#98FB98" style="stroke:#181818;stroke-width:0.5;"/><text fill="#000000" font-family="sans-serif" font-size="14" lengthAdjust="spacing" textLength="148" x="909" y="39.222">Wikidata Query Service</text></g><!--MD5=[4f3fda2a26ed6827899a217a03a4679b]
entity musicClasses.rq--><g id="elem_musicClasses.rq"><path d="M369.5,17.1888 L369.5,49.7982 A2.5,2.5 0 0 0 372,52.2982 L490,52.2982 A2.5,2.5 0 0 0 492.5,49.7982 L492.5,24.6888 L482.5,14.6888 L372,14.6888 A2.5,2.5 0 0 0 369.5,17.1888 " fill="#F1F1F1" style="stroke:#181818;stroke-width:0.5;"/><path d="M482.5,14.6888 L482.5,22.1888 A2.5,2.5 0 0 0 485,24.6888 L492.5,24.6888 " fill="#F1F1F1" style="stroke:#181818;stroke-width:0.5;"/><text fill="#000000" font-family="sans-serif" font-size="14" lengthAdjust="spacing" textLength="103" x="379.5" y="39.222">musicClasses.rq</text></g><!--MD5=[1ae5480ab04e600e57bef7b3e1bc37e6]
entity musicDataProperties.rq--><g id="elem_musicDataProperties.rq"><path d="M528,17.1888 L528,49.7982 A2.5,2.5 0 0 0 530.5,52.2982 L693.5,52.2982 A2.5,2.5 0 0 0 696,49.7982 L696,24.6888 L686,14.6888 L530.5,14.6888 A2.5,2.5 0 0 0 528,17.1888 " fill="#F1F1F1" style="stroke:#181818;stroke-width:0.5;"/><path d="M686,14.6888 L686,22.1888 A2.5,2.5 0 0 0 688.5,24.6888 L696,24.6888 " fill="#F1F1F1" style="stroke:#181818;stroke-width:0.5;"/><text fill="#000000" font-family="sans-serif" font-size="14" lengthAdjust="spacing" textLength="148" x="538" y="39.222">musicDataProperties.rq</text></g><!--MD5=[02477bb51d6f2abde25f7a7b8c6b1b41]
entity musicObjectProperties.rq--><g id="elem_musicObjectProperties.rq"><path d="M155.5,17.1888 L155.5,49.7982 A2.5,2.5 0 0 0 158,52.2982 L332,52.2982 A2.5,2.5 0 0 0 334.5,49.7982 L334.5,24.6888 L324.5,14.6888 L158,14.6888 A2.5,2.5 0 0 0 155.5,17.1888 " fill="#F1F1F1" style="stroke:#181818;stroke-width:0.5;"/><path d="M324.5,14.6888 L324.5,22.1888 A2.5,2.5 0 0 0 327,24.6888 L334.5,24.6888 " fill="#F1F1F1" style="stroke:#181818;stroke-width:0.5;"/><text fill="#000000" font-family="sans-serif" font-size="14" lengthAdjust="spacing" textLength="159" x="165.5" y="39.222">musicObjectProperties.rq</text></g><!--MD5=[a44a8642345c9bd3265b18967f991e48]
entity musicClasses.rdf--><g id="elem_musicClasses.rdf"><path d="M76.5,227.1888 L76.5,259.7982 A2.5,2.5 0 0 0 79,262.2982 L201,262.2982 A2.5,2.5 0 0 0 203.5,259.7982 L203.5,234.6888 L193.5,224.6888 L79,224.6888 A2.5,2.5 0 0 0 76.5,227.1888 " fill="#F1F1F1" style="stroke:#181818;stroke-width:0.5;"/><path d="M193.5,224.6888 L193.5,232.1888 A2.5,2.5 0 0 0 196,234.6888 L203.5,234.6888 " fill="#F1F1F1" style="stroke:#181818;stroke-width:0.5;"/><text fill="#000000" font-family="sans-serif" font-size="14" lengthAdjust="spacing" textLength="107" x="86.5" y="249.222">musicClasses.rdf</text></g><!--MD5=[fddc5042e831da55c485c78539a0643f]
entity musicDataProperties.rdf--><g id="elem_musicDataProperties.rdf"><path d="M239,227.1888 L239,259.7982 A2.5,2.5 0 0 0 241.5,262.2982 L408.5,262.2982 A2.5,2.5 0 0 0 411,259.7982 L411,234.6888 L401,224.6888 L241.5,224.6888 A2.5,2.5 0 0 0 239,227.1888 " fill="#F1F1F1" style="stroke:#181818;stroke-width:0.5;"/><path d="M401,224.6888 L401,232.1888 A2.5,2.5 0 0 0 403.5,234.6888 L411,234.6888 " fill="#F1F1F1" style="stroke:#181818;stroke-width:0.5;"/><text fill="#000000" font-family="sans-serif" font-size="14" lengthAdjust="spacing" textLength="152" x="249" y="249.222">musicDataProperties.rdf</text></g><!--MD5=[9577a432a34fea0bde19b8fde32a0e3f]
entity musicObjectProperties.rdf--><g id="elem_musicObjectProperties.rdf"><path d="M446.5,227.1888 L446.5,259.7982 A2.5,2.5 0 0 0 449,262.2982 L627,262.2982 A2.5,2.5 0 0 0 629.5,259.7982 L629.5,234.6888 L619.5,224.6888 L449,224.6888 A2.5,2.5 0 0 0 446.5,227.1888 " fill="#F1F1F1" style="stroke:#181818;stroke-width:0.5;"/><path d="M619.5,224.6888 L619.5,232.1888 A2.5,2.5 0 0 0 622,234.6888 L629.5,234.6888 " fill="#F1F1F1" style="stroke:#181818;stroke-width:0.5;"/><text fill="#000000" font-family="sans-serif" font-size="14" lengthAdjust="spacing" textLength="163" x="456.5" y="249.222">musicObjectProperties.rdf</text></g><!--MD5=[3a3be6e96ddbe0571b5c6462cbc2c851]
entity music.owl--><g id="elem_music.owl"><path d="M549,432.1888 L549,464.7982 A2.5,2.5 0 0 0 551.5,467.2982 L626.5,467.2982 A2.5,2.5 0 0 0 629,464.7982 L629,439.6888 L619,429.6888 L551.5,429.6888 A2.5,2.5 0 0 0 549,432.1888 " fill="#98FB98" style="stroke:#181818;stroke-width:0.5;"/><path d="M619,429.6888 L619,437.1888 A2.5,2.5 0 0 0 621.5,439.6888 L629,439.6888 " fill="#98FB98" style="stroke:#181818;stroke-width:0.5;"/><text fill="#000000" font-family="sans-serif" font-size="14" lengthAdjust="spacing" textLength="60" x="559" y="454.222">music.owl</text></g><!--MD5=[b26e33af4efe7e85255006198f610fa2]
entity wd1--><g id="elem_wd1"><rect fill="#F0F8FF" height="37.6094" rx="2.5" ry="2.5" style="stroke:#181818;stroke-width:0.5;" width="283" x="289.5" y="117.6888"/><text fill="#000000" font-family="sans-serif" font-size="14" font-weight="bold" lengthAdjust="spacing" textLength="168" x="299.5" y="142.222">download-ontologies.py</text><text fill="#000000" font-family="sans-serif" font-size="14" lengthAdjust="spacing" textLength="91" x="471.5" y="142.222">(part 1 - fetch)</text></g><!--MD5=[792803811762f973c57f9f61acc6e1f4]
entity wd2--><g id="elem_wd2"><rect fill="#F0F8FF" height="37.6094" rx="2.5" ry="2.5" style="stroke:#181818;stroke-width:0.5;" width="292" x="284" y="331.6888"/><text fill="#000000" font-family="sans-serif" font-size="14" font-weight="bold" lengthAdjust="spacing" textLength="168" x="294" y="356.222">download-ontologies.py</text><text fill="#000000" font-family="sans-serif" font-size="14" lengthAdjust="spacing" textLength="100" x="466" y="356.222">(part 2 - merge)</text></g><!--MD5=[5724ae74e62823c018648cb2a340b2f4]
entity polifonia--><g id="elem_polifonia"><path d="M1385.976,17.8754 C1390.1741,12.9887 1393.9171,13.3262 1397.5487,18.5253 C1400.687,12.9875 1405.1481,11.5986 1409.2616,17.5293 C1412.5533,11.2338 1418.2312,10.4187 1422.4768,16.5116 C1426.09,9.0794 1430.3363,9.5507 1435.8831,14.4011 C1438.7668,8.2739 1444.427,6 1449.0131,12.6519 C1453.3964,6.0527 1458.7304,6.8827 1461.7431,13.9304 C1466.2643,8.9925 1472.2894,9.5124 1474.3343,16.5369 C1478.0254,10.312 1482.1087,11.4828 1486.115,16.1975 C1490.539,9.575 1495.4545,10.1388 1499.0784,16.9686 C1504.0562,12.4818 1508.2606,11.3547 1511.5025,18.7792 C1520.8227,21.8942 1520.1962,29.5145 1513.7732,34.8534 C1519.6869,40.2985 1517.5505,47.6302 1510.36,50.1517 C1506.5087,55.8857 1502.5409,56.2872 1498.8703,49.9794 C1495.2684,56.6125 1489.8119,57.0715 1484.8693,51.5199 C1480.584,57.4043 1475.2775,56.9973 1472.3835,50.1549 C1469.711,56.7454 1464.9582,57.6792 1460.4288,51.958 C1456.0777,58.5799 1451.2291,58.5351 1447.1379,51.7012 C1443.4359,57.3099 1437.8213,56.6575 1435.4004,50.4308 C1432.3521,55.4103 1427.4163,55.6225 1423.7846,51.1475 C1418.7298,56.3236 1414.3734,56.4427 1410.4558,49.8587 C1406.9742,56.9237 1400.3487,56.3095 1396.7171,50.0129 C1393.0588,54.7642 1389.0134,55.4776 1385.8117,49.5467 C1377.383,48.9046 1374.6375,41.6273 1378.6894,34.9115 C1372.1105,26.0098 1375.4037,19.4412 1385.976,17.8754 " fill="#98FB98" style="stroke:#181818;stroke-width:0.5;"/><text fill="#000000" font-family="sans-serif" font-size="14" lengthAdjust="spacing" textLength="112" x="1391" y="39.222">Polifonia ontology</text></g><!--MD5=[78fee9e0a9bcfb7f2468c748de35aa77]
entity downpolifonia--><g id="elem_downpolifonia"><rect fill="#F0F8FF" height="37.6094" rx="2.5" ry="2.5" style="stroke:#181818;stroke-width:0.5;" width="246" x="1324" y="117.6888"/><text fill="#000000" font-family="sans-serif" font-size="14" lengthAdjust="spacing" textLength="57" x="1334" y="142.222">polifonia/</text><text fill="#000000" font-family="sans-serif" font-size="14" font-weight="bold" lengthAdjust="spacing" textLength="169" x="1391" y="142.222">download-ontologies.sh</text></g><!--MD5=[73c35498f2a02e970c3faca1330d398c]
entity polifoniaowl--><g id="elem_polifoniaowl"><path d="M667,215.6888 L708,215.6888 A3.75,3.75 0 0 1 710.5,218.1888 L717.5,236.6888 L803,236.6888 A2.5,2.5 0 0 1 805.5,239.1888 L805.5,268.7982 A2.5,2.5 0 0 1 803,271.2982 L667,271.2982 A2.5,2.5 0 0 1 664.5,268.7982 L664.5,218.1888 A2.5,2.5 0 0 1 667,215.6888 " fill="#98FB98" style="stroke:#181818;stroke-width:0.5;"/><line style="stroke:#181818;stroke-width:0.5;" x1="664.5" x2="717.5" y1="236.6888" y2="236.6888"/><text fill="#000000" font-family="sans-serif" font-size="14" lengthAdjust="spacing" textLength="111" x="674.5" y="258.222">polifonia/ontology</text></g><g id="elem_GMN28"><path d="M840.5,230.6888 L840.5,239.6888 L805.63,243.6888 L840.5,247.6888 L840.5,257.0404 A0,0 0 0 0 840.5,257.0404 L1217.5,257.0404 A0,0 0 0 0 1217.5,257.0404 L1217.5,240.6888 L1207.5,230.6888 L840.5,230.6888 A0,0 0 0 0 840.5,230.6888 " fill="#FEFFDD" style="stroke:#181818;stroke-width:0.5;"/><path d="M1207.5,230.6888 L1207.5,240.6888 L1217.5,240.6888 L1207.5,230.6888 " fill="#FEFFDD" style="stroke:#181818;stroke-width:0.5;"/><text fill="#000000" font-family="sans-serif" font-size="13" lengthAdjust="spacing" textLength="356" x="846.5" y="249.1839">See owl-imports-graph.svg for the patches applied to fix errors</text></g><!--MD5=[5841ba748950356aeaa1b954b6dde3b6]
entity get_known_mappings--><g id="elem_get_known_mappings"><rect fill="#F0F8FF" height="37.6094" rx="2.5" ry="2.5" style="stroke:#181818;stroke-width:0.5;" width="193" x="1034.5" y="331.6888"/><text fill="#000000" font-family="sans-serif" font-size="14" font-weight="bold" lengthAdjust="spacing" textLength="173" x="1044.5" y="356.222">get_known_mappings.py</text></g><!--MD5=[755c5f58ada36855c23cee21a828b0fc]
entity known_mappings.tsv--><g id="elem_known_mappings.tsv"><path d="M735.5,432.1888 L735.5,464.7982 A2.5,2.5 0 0 0 738,467.2982 L884,467.2982 A2.5,2.5 0 0 0 886.5,464.7982 L886.5,439.6888 L876.5,429.6888 L738,429.6888 A2.5,2.5 0 0 0 735.5,432.1888 " fill="#F1F1F1" style="stroke:#181818;stroke-width:0.5;"/><path d="M876.5,429.6888 L876.5,437.1888 A2.5,2.5 0 0 0 879,439.6888 L886.5,439.6888 " fill="#F1F1F1" style="stroke:#181818;stroke-width:0.5;"/><text fill="#000000" font-family="sans-serif" font-size="14" lengthAdjust="spacing" textLength="131" x="745.5" y="454.222">known_mappings.tsv</text></g><!--MD5=[dcc2b970af72336f7d4d820fb5cbb08d]
entity polifonia_wikidata--><g id="elem_polifonia_wikidata"><path d="M921.5,432.1888 L921.5,464.7982 A2.5,2.5 0 0 0 924,467.2982 L1126,467.2982 A2.5,2.5 0 0 0 1128.5,464.7982 L1128.5,439.6888 L1118.5,429.6888 L924,429.6888 A2.5,2.5 0 0 0 921.5,432.1888 " fill="#F1F1F1" style="stroke:#181818;stroke-width:0.5;"/><path d="M1118.5,429.6888 L1118.5,437.1888 A2.5,2.5 0 0 0 1121,439.6888 L1128.5,439.6888 " fill="#F1F1F1" style="stroke:#181818;stroke-width:0.5;"/><text fill="#000000" font-family="sans-serif" font-size="14" lengthAdjust="spacing" textLength="187" x="931.5" y="454.222">wikidata/polifonia_wikidata.tsv</text></g><!--MD5=[8033b862fb1bb83eadd06349bdae6214]
entity known_mappings.nq--><g id="elem_known_mappings.nq"><path d="M1163.5,432.1888 L1163.5,464.7982 A2.5,2.5 0 0 0 1166,467.2982 L1310,467.2982 A2.5,2.5 0 0 0 1312.5,464.7982 L1312.5,439.6888 L1302.5,429.6888 L1166,429.6888 A2.5,2.5 0 0 0 1163.5,432.1888 " fill="#98FB98" style="stroke:#181818;stroke-width:0.5;"/><path d="M1302.5,429.6888 L1302.5,437.1888 A2.5,2.5 0 0 0 1305,439.6888 L1312.5,439.6888 " fill="#98FB98" style="stroke:#181818;stroke-width:0.5;"/><text fill="#000000" font-family="sans-serif" font-size="14" lengthAdjust="spacing" textLength="129" x="1173.5" y="454.222">known_mappings.nq</text></g><g id="elem_GMN35"><path d="M1100,533.6888 L1100,560.0404 A0,0 0 0 0 1100,560.0404 L1466,560.0404 A0,0 0 0 0 1466,560.0404 L1466,543.6888 L1456,533.6888 L1281.28,533.6888 L1246.46,467.7488 L1273.28,533.6888 L1100,533.6888 A0,0 0 0 0 1100,533.6888 " fill="#FEFFDD" style="stroke:#181818;stroke-width:0.5;"/><path d="M1456,533.6888 L1456,543.6888 L1466,543.6888 L1456,533.6888 " fill="#FEFFDD" style="stroke:#181818;stroke-width:0.5;"/><text fill="#000000" font-family="sans-serif" font-size="13" lengthAdjust="spacing" textLength="345" x="1106" y="552.1839">Includes some manual matches, mainly for the core module</text></g><!--MD5=[389860a1d1ef945b34134be47b1372a9]
entity notebook--><g id="elem_notebook"><rect fill="#F0F8FF" height="37.6094" rx="2.5" ry="2.5" style="stroke:#181818;stroke-width:0.5;" width="234" x="520" y="527.6888"/><text fill="#000000" font-family="sans-serif" font-size="14" lengthAdjust="spacing" textLength="60" x="530" y="552.222">Notebook</text><text fill="#000000" font-family="sans-serif" font-size="14" font-weight="bold" lengthAdjust="spacing" textLength="150" x="594" y="552.222">bertmap_match.ipynb</text></g><!--MD5=[6b785f8ac55ff1e4cefb0022ae76bf54]
entity yml--><g id="elem_yml"><path d="M408.5,432.1888 L408.5,464.7982 A2.5,2.5 0 0 0 411,467.2982 L511,467.2982 A2.5,2.5 0 0 0 513.5,464.7982 L513.5,439.6888 L503.5,429.6888 L411,429.6888 A2.5,2.5 0 0 0 408.5,432.1888 " fill="#F1F1F1" style="stroke:#181818;stroke-width:0.5;"/><path d="M503.5,429.6888 L503.5,437.1888 A2.5,2.5 0 0 0 506,439.6888 L513.5,439.6888 " fill="#F1F1F1" style="stroke:#181818;stroke-width:0.5;"/><text fill="#000000" font-family="sans-serif" font-size="14" lengthAdjust="spacing" textLength="85" x="418.5" y="454.222">bertmap.yaml</text></g><!--MD5=[733ce2bb84e70bd21f911b8d7f047380]
entity repaired--><g id="elem_repaired"><path d="M582,628.1888 L582,660.7982 A2.5,2.5 0 0 0 584.5,663.2982 L803.5,663.2982 A2.5,2.5 0 0 0 806,660.7982 L806,635.6888 L796,625.6888 L584.5,625.6888 A2.5,2.5 0 0 0 582,628.1888 " fill="#F1F1F1" style="stroke:#181818;stroke-width:0.5;"/><path d="M796,625.6888 L796,633.1888 A2.5,2.5 0 0 0 798.5,635.6888 L806,635.6888 " fill="#F1F1F1" style="stroke:#181818;stroke-width:0.5;"/><text fill="#000000" font-family="sans-serif" font-size="14" lengthAdjust="spacing" textLength="204" x="592" y="650.222">bertmap_repaired_mappings.tsv</text></g><!--MD5=[283129df4498487297f08a8c78422a6d]
entity merge1--><g id="elem_merge1"><rect fill="#F0F8FF" height="37.6094" rx="2.5" ry="2.5" style="stroke:#181818;stroke-width:0.5;" width="276" x="789" y="527.6888"/><text fill="#000000" font-family="sans-serif" font-size="14" font-weight="bold" lengthAdjust="spacing" textLength="205" x="799" y="552.222">merge_true_with_bertmap.py</text><text fill="#000000" font-family="sans-serif" font-size="14" lengthAdjust="spacing" textLength="47" x="1008" y="552.222">(part 1)</text></g><!--MD5=[4637a617936e2c1a2a4f01032fa2a44d]
entity merge2--><g id="elem_merge2"><rect fill="#F0F8FF" height="37.6094" rx="2.5" ry="2.5" style="stroke:#181818;stroke-width:0.5;" width="276" x="643" y="723.6888"/><text fill="#000000" font-family="sans-serif" font-size="14" font-weight="bold" lengthAdjust="spacing" textLength="205" x="653" y="748.222">merge_true_with_bertmap.py</text><text fill="#000000" font-family="sans-serif" font-size="14" lengthAdjust="spacing" textLength="47" x="862" y="748.222">(part 2)</text></g><!--MD5=[934938dae3e2cc12af892b82562bf0a1]
entity all.tsv--><g id="elem_all.tsv"><path d="M870,628.1888 L870,660.7982 A2.5,2.5 0 0 0 872.5,663.2982 L923.5,663.2982 A2.5,2.5 0 0 0 926,660.7982 L926,635.6888 L916,625.6888 L872.5,625.6888 A2.5,2.5 0 0 0 870,628.1888 " fill="#F1F1F1" style="stroke:#181818;stroke-width:0.5;"/><path d="M916,625.6888 L916,633.1888 A2.5,2.5 0 0 0 918.5,635.6888 L926,635.6888 " fill="#F1F1F1" style="stroke:#181818;stroke-width:0.5;"/><text fill="#000000" font-family="sans-serif" font-size="14" lengthAdjust="spacing" textLength="36" x="880" y="650.222">all.tsv</text></g><!--MD5=[659ea1eae1dd7bef357c7c1ee80bb90e]
entity all_with_bertmap.tsv--><g id="elem_all_with_bertmap.tsv"><path d="M707,824.1888 L707,856.7982 A2.5,2.5 0 0 0 709.5,859.2982 L852.5,859.2982 A2.5,2.5 0 0 0 855,856.7982 L855,831.6888 L845,821.6888 L709.5,821.6888 A2.5,2.5 0 0 0 707,824.1888 " fill="#F1F1F1" style="stroke:#181818;stroke-width:0.5;"/><path d="M845,821.6888 L845,829.1888 A2.5,2.5 0 0 0 847.5,831.6888 L855,831.6888 " fill="#F1F1F1" style="stroke:#181818;stroke-width:0.5;"/><text fill="#000000" font-family="sans-serif" font-size="14" lengthAdjust="spacing" textLength="128" x="717" y="846.222">all_with_bertmap.tsv</text></g><g id="elem_GMN58"><path d="M6,827.6888 L6,854.0404 A0,0 0 0 0 6,854.0404 L672,854.0404 A0,0 0 0 0 672,854.0404 L672,845.6888 L706.64,840.6888 L672,837.6888 L672,837.6888 L662,827.6888 L6,827.6888 A0,0 0 0 0 6,827.6888 " fill="#FEFFDD" style="stroke:#181818;stroke-width:0.5;"/><path d="M662,827.6888 L662,837.6888 L672,837.6888 L662,827.6888 " fill="#FEFFDD" style="stroke:#181818;stroke-width:0.5;"/><text fill="#000000" font-family="sans-serif" font-size="13" lengthAdjust="spacing" textLength="645" x="12" y="846.1839">Manual (true) matches are added to all classes which have a Bertmap (predicted) match and no known mapping</text></g><!--MD5=[458561199ace05383467b209cb9e3458]
entity evaluate--><g id="elem_evaluate"><rect fill="#F0F8FF" height="37.6094" rx="2.5" ry="2.5" style="stroke:#181818;stroke-width:0.5;" width="233" x="664.5" y="919.6888"/><text fill="#000000" font-family="sans-serif" font-size="14" font-weight="bold" lengthAdjust="spacing" textLength="213" x="674.5" y="944.222">evaultate_all_with_bertmap.py</text></g><!--MD5=[b7878542113b637f13679d462e470c05]
entity report.txt--><g id="elem_report.txt"><path d="M743,1020.1888 L743,1052.7982 A2.5,2.5 0 0 0 745.5,1055.2982 L816.5,1055.2982 A2.5,2.5 0 0 0 819,1052.7982 L819,1027.6888 L809,1017.6888 L745.5,1017.6888 A2.5,2.5 0 0 0 743,1020.1888 " fill="#F1F1F1" style="stroke:#181818;stroke-width:0.5;"/><path d="M809,1017.6888 L809,1025.1888 A2.5,2.5 0 0 0 811.5,1027.6888 L819,1027.6888 " fill="#F1F1F1" style="stroke:#181818;stroke-width:0.5;"/><text fill="#000000" font-family="sans-serif" font-size="14" lengthAdjust="spacing" textLength="56" x="753" y="1042.222">report.txt</text></g><!--MD5=[a9710f8c88618c05715ffe4c277dfce2]
link musicClasses.rq to wd1--><g id="link_musicClasses.rq_wd1"><path d="M431,52.7488 C431,69.2988 431,93.9288 431,112.0488 " fill="none" id="musicClasses.rq-to-wd1" style="stroke:#181818;stroke-width:1.0;"/><polygon fill="#181818" points="431,117.4488,435,108.4488,431,112.4488,427,108.4488,431,117.4488" style="stroke:#181818;stroke-width:1.0;"/></g><!--MD5=[aa5dbced5e32bd737265af757fc99254]
link musicDataProperties.rq to wd1--><g id="link_musicDataProperties.rq_wd1"><path d="M579.64,52.7488 C548.34,70.2088 500.94,96.6588 468.12,114.9788 " fill="none" id="musicDataProperties.rq-to-wd1" style="stroke:#181818;stroke-width:1.0;"/><polygon fill="#181818" points="463.38,117.6188,473.19,116.7447,467.7508,115.1906,469.3048,109.7514,463.38,117.6188" style="stroke:#181818;stroke-width:1.0;"/></g><!--MD5=[4848bc98fe42ad88255a2d9b3b67ee69]
link musicObjectProperties.rq to wd1--><g id="link_musicObjectProperties.rq_wd1"><path d="M278.25,52.7488 C310.55,70.2888 359.53,96.8788 393.27,115.1988 " fill="none" id="musicObjectProperties.rq-to-wd1" style="stroke:#181818;stroke-width:1.0;"/><polygon fill="#181818" points="397.72,117.6188,391.7254,109.8044,393.3278,115.2296,387.9026,116.832,397.72,117.6188" style="stroke:#181818;stroke-width:1.0;"/></g><!--MD5=[767d0499dceeb32d4477320328e78108]
link wikidata to wd1--><g id="link_wikidata_wd1"><path d="M893.7,51.0288 C795.58,68.9788 638.19,97.7788 534.69,116.7188 " fill="none" id="wikidata-to-wd1" style="stroke:#181818;stroke-width:1.0;"/><polygon fill="#181818" points="529.49,117.6688,539.0633,119.9821,534.4082,116.7681,537.6222,112.113,529.49,117.6688" style="stroke:#181818;stroke-width:1.0;"/></g><!--MD5=[806e7d69961591b20ad38cbb6e1394ca]
link wd1 to musicClasses.rdf--><g id="link_wd1_musicClasses.rdf"><path d="M380.98,155.7388 C329.24,174.4088 248.66,203.4788 195.12,222.7988 " fill="none" id="wd1-to-musicClasses.rdf" style="stroke:#181818;stroke-width:1.0;"/><polygon fill="#181818" points="190.35,224.5188,200.1739,225.2191,195.0519,222.8182,197.4528,217.6961,190.35,224.5188" style="stroke:#181818;stroke-width:1.0;"/></g><!--MD5=[c988c311ea40943757ebe8f7a08dc319]
link wd1 to musicDataProperties.rdf--><g id="link_wd1_musicDataProperties.rdf"><path d="M412.54,155.9788 C394.3,174.0488 366.39,201.6888 347.01,220.8888 " fill="none" id="wd1-to-musicDataProperties.rdf" style="stroke:#181818;stroke-width:1.0;"/><polygon fill="#181818" points="343.25,224.6088,352.4495,221.0919,346.7927,221.0804,346.8041,215.4236,343.25,224.6088" style="stroke:#181818;stroke-width:1.0;"/></g><!--MD5=[05fbbcada81465b557f6210ff25988a1]
link wd1 to musicObjectProperties.rdf--><g id="link_wd1_musicObjectProperties.rdf"><path d="M449.64,155.9788 C468.05,174.0488 496.22,201.6888 515.78,220.8888 " fill="none" id="wd1-to-musicObjectProperties.rdf" style="stroke:#181818;stroke-width:1.0;"/><polygon fill="#181818" points="519.58,224.6088,515.9518,215.4526,516.0089,221.1092,510.3524,221.1663,519.58,224.6088" style="stroke:#181818;stroke-width:1.0;"/></g><!--MD5=[b3b3cabd5c5f73d9ab4c9917798cb810]
link musicClasses.rdf to wd2--><g id="link_musicClasses.rdf_wd2"><path d="M189.85,262.7388 C241.41,281.4088 321.71,310.4788 375.07,329.7988 " fill="none" id="musicClasses.rdf-to-wd2" style="stroke:#181818;stroke-width:1.0;"/><polygon fill="#181818" points="379.83,331.5188,372.7272,324.6961,375.1281,329.8182,370.0061,332.2191,379.83,331.5188" style="stroke:#181818;stroke-width:1.0;"/></g><!--MD5=[8e56ce5f184257223df25506611bb3d9]
link musicDataProperties.rdf to wd2--><g id="link_musicDataProperties.rdf_wd2"><path d="M343.29,262.9788 C361.36,281.0488 389,308.6888 408.2,327.8888 " fill="none" id="musicDataProperties.rdf-to-wd2" style="stroke:#181818;stroke-width:1.0;"/><polygon fill="#181818" points="411.92,331.6088,408.3845,322.4164,408.3845,328.0733,402.7276,328.0733,411.92,331.6088" style="stroke:#181818;stroke-width:1.0;"/></g><!--MD5=[d012bba0ae770f3d8d45915f7fb0f317]
link musicObjectProperties.rdf to wd2--><g id="link_musicObjectProperties.rdf_wd2"><path d="M519.19,262.9788 C500.6,281.0488 472.17,308.6888 452.42,327.8888 " fill="none" id="musicObjectProperties.rdf-to-wd2" style="stroke:#181818;stroke-width:1.0;"/><polygon fill="#181818" points="448.6,331.6088,457.8415,328.2036,452.1852,328.1236,452.2652,322.4674,448.6,331.6088" style="stroke:#181818;stroke-width:1.0;"/></g><!--MD5=[ab0fb1b3be1f7be33bf5a837a46a2b9a]
link wd2 to music.owl--><g id="link_wd2_music.owl"><path d="M459.91,369.7488 C486.8,385.9888 526.31,409.8388 554.53,426.8788 " fill="none" id="wd2-to-music.owl" style="stroke:#181818;stroke-width:1.0;"/><polygon fill="#181818" points="558.96,429.5488,553.3322,421.4662,554.6827,426.9595,549.1894,428.31,558.96,429.5488" style="stroke:#181818;stroke-width:1.0;"/></g><!--MD5=[c43d99b2042eb369c788374d615a74f9]
link polifonia to downpolifonia--><g id="link_polifonia_downpolifonia"><path d="M1447,57.8588 C1447,74.1888 1447,95.9588 1447,112.3288 " fill="none" id="polifonia-to-downpolifonia" style="stroke:#181818;stroke-width:1.0;"/><polygon fill="#181818" points="1447,117.6588,1451,108.6588,1447,112.6588,1443,108.6588,1447,117.6588" style="stroke:#181818;stroke-width:1.0;"/></g><!--MD5=[0b89dd9ec0d127c588631ab378953fc8]
link downpolifonia to polifoniaowl--><g id="link_downpolifonia_polifoniaowl"><path d="M1323.99,146.7288 C1197.37,157.5088 994.87,178.8688 823,215.6888 C818.96,216.5588 814.83,217.5188 810.68,218.5588 " fill="none" id="downpolifonia-to-polifoniaowl" style="stroke:#181818;stroke-width:1.0;"/><polygon fill="#181818" points="805.81,219.8088,815.5207,221.4529,810.6539,218.5694,813.5375,213.7026,805.81,219.8088" style="stroke:#181818;stroke-width:1.0;"/></g><!--MD5=[693e28c6973154e7705ae98420c3cf75]
link known_mappings.nq to get_known_mappings--><g id="link_known_mappings.nq_get_known_mappings"><path d="M1228.47,429.3888 C1213.81,413.2588 1187.79,389.7588 1165.97,372.8288 " fill="none" id="known_mappings.nq-to-get_known_mappings" style="stroke:#181818;stroke-width:1.0;"/><polygon fill="#181818" points="1161.95,369.7488,1166.6613,378.3977,1165.919,372.7898,1171.5269,372.0474,1161.95,369.7488" style="stroke:#181818;stroke-width:1.0;"/></g><!--MD5=[c1217cf88b0f29e8b11087854a5f63b7]
link get_known_mappings to known_mappings.nq--><g id="link_get_known_mappings_known_mappings.nq"><path d="M1140.9,369.7488 C1155.64,385.7988 1181.63,409.2988 1203.33,426.2888 " fill="none" id="get_known_mappings-to-known_mappings.nq" style="stroke:#181818;stroke-width:1.0;"/><polygon fill="#181818" points="1207.33,429.3888,1202.6533,420.7211,1203.3733,426.332,1197.7624,427.0519,1207.33,429.3888" style="stroke:#181818;stroke-width:1.0;"/></g><!--MD5=[ed979d3b5f248501e2a88e004ba5c0c6]
link polifoniaowl to get_known_mappings--><g id="link_polifoniaowl_get_known_mappings"><path d="M805.52,266.6588 C811.42,268.3988 817.31,270.0988 823,271.6888 C899.73,293.1588 987.92,315.2288 1050.22,330.3888 " fill="none" id="polifoniaowl-to-get_known_mappings" style="stroke:#181818;stroke-width:1.0;"/><polygon fill="#181818" points="1055.41,331.6588,1047.5987,325.6602,1050.5494,330.4866,1045.723,333.4373,1055.41,331.6588" style="stroke:#181818;stroke-width:1.0;"/></g><!--MD5=[2b86ac122b7d44d5d29bbd086a743867]
link wikidata to get_known_mappings--><g id="link_wikidata_get_known_mappings"><path d="M1042.18,57.8088 C1103.16,85.2288 1194.8,137.3288 1235,215.6888 C1246.36,237.8388 1246.13,249.4288 1235,271.6888 C1222.41,296.8588 1197.42,316.0188 1175.08,329.0388 " fill="none" id="wikidata-to-get_known_mappings" style="stroke:#181818;stroke-width:1.0;"/><polygon fill="#181818" points="1170.66,331.5688,1180.458,330.5696,1174.9995,329.0851,1176.484,323.6265,1170.66,331.5688" style="stroke:#181818;stroke-width:1.0;"/></g><!--MD5=[02edb1104291889b8d66dbffb484c5d6]
link get_known_mappings to known_mappings.tsv--><g id="link_get_known_mappings_known_mappings.tsv"><path d="M1070.81,369.7488 C1015.36,386.3788 933.29,410.9988 876.28,428.1088 " fill="none" id="get_known_mappings-to-known_mappings.tsv" style="stroke:#181818;stroke-width:1.0;"/><polygon fill="#181818" points="871.19,429.6288,880.9581,430.8874,875.9811,428.1987,878.6698,423.2216,871.19,429.6288" style="stroke:#181818;stroke-width:1.0;"/></g><!--MD5=[0e94c6be3513b43e7c7413ee47c196fd]
link get_known_mappings to polifonia_wikidata--><g id="link_get_known_mappings_polifonia_wikidata"><path d="M1111.06,369.7488 C1093.56,385.5988 1068.03,408.7188 1049.33,425.6588 " fill="none" id="get_known_mappings-to-polifonia_wikidata" style="stroke:#181818;stroke-width:1.0;"/><polygon fill="#181818" points="1045.21,429.3888,1054.569,426.3215,1048.9194,426.0361,1049.2047,420.3865,1045.21,429.3888" style="stroke:#181818;stroke-width:1.0;"/></g><!--MD5=[2059ce5ff7f260f9eaad49a54173f4b8]
link yml to notebook--><g id="link_yml_notebook"><path d="M494.1,467.7488 C524,484.0488 567.97,508.0388 599.23,525.0888 " fill="none" id="yml-to-notebook" style="stroke:#181818;stroke-width:1.0;"/><polygon fill="#181818" points="603.75,527.5488,597.7554,519.7344,599.3578,525.1596,593.9326,526.762,603.75,527.5488" style="stroke:#181818;stroke-width:1.0;"/></g><!--MD5=[38de452834f1d0d9aaa29f4e33ea06c6]
link known_mappings.tsv to notebook--><g id="link_known_mappings.tsv_notebook"><path d="M778.27,467.7488 C748.72,484.0488 705.24,508.0388 674.34,525.0888 " fill="none" id="known_mappings.tsv-to-notebook" style="stroke:#181818;stroke-width:1.0;"/><polygon fill="#181818" points="669.88,527.5488,679.6933,526.7127,674.2602,525.1376,675.8353,519.7045,669.88,527.5488" style="stroke:#181818;stroke-width:1.0;"/></g><!--MD5=[c9235b93c0ca2e7328d002aab079e0eb]
link music.owl to notebook--><g id="link_music.owl_notebook"><path d="M598.03,467.7488 C605.82,483.3388 617.13,505.9388 625.55,522.7988 " fill="none" id="music.owl-to-notebook" style="stroke:#181818;stroke-width:1.0;"/><polygon fill="#181818" points="627.85,527.3888,627.3902,517.5507,625.6082,522.9196,620.2394,521.1376,627.85,527.3888" style="stroke:#181818;stroke-width:1.0;"/></g><!--MD5=[74f5634af1e53b4fa5692eb837be1fa0]
link polifoniaowl to notebook--><g id="link_polifoniaowl_notebook"><path d="M726.13,271.9288 C707.05,330.5288 662.4,467.6788 644.56,522.4688 " fill="none" id="polifoniaowl-to-notebook" style="stroke:#181818;stroke-width:1.0;"/><polygon fill="#181818" points="642.92,527.5088,649.5014,520.1818,644.4625,522.7527,641.8917,517.7138,642.92,527.5088" style="stroke:#181818;stroke-width:1.0;"/></g><!--MD5=[6dff111bf92f4e1c39efcc99d9302000]
link notebook to repaired--><g id="link_notebook_repaired"><path d="M647.72,565.7488 C656.98,581.3388 670.4,603.9388 680.41,620.7988 " fill="none" id="notebook-to-repaired" style="stroke:#181818;stroke-width:1.0;"/><polygon fill="#181818" points="683.13,625.3888,681.9678,615.6088,680.5743,621.0913,675.0918,619.6978,683.13,625.3888" style="stroke:#181818;stroke-width:1.0;"/></g><!--MD5=[bf60bf5be5348fbfdc7b7b0c8d3b5c06]
link polifonia_wikidata to merge1--><g id="link_polifonia_wikidata_merge1"><path d="M1006.57,467.7488 C990.38,483.5988 966.79,506.7188 949.49,523.6588 " fill="none" id="polifonia_wikidata-to-merge1" style="stroke:#181818;stroke-width:1.0;"/><polygon fill="#181818" points="945.68,527.3888,954.9076,523.9463,949.2511,523.8892,949.3082,518.2326,945.68,527.3888" style="stroke:#181818;stroke-width:1.0;"/></g><!--MD5=[298149d0bf12cafed7710bee071506e1]
link merge1 to all.tsv--><g id="link_merge1_all.tsv"><path d="M921.55,565.7488 C916.88,581.1988 910.12,603.5488 905.05,620.3588 " fill="none" id="merge1-to-all.tsv" style="stroke:#181818;stroke-width:1.0;"/><polygon fill="#181818" points="903.53,625.3888,909.9577,617.9266,904.9733,620.6017,902.2982,615.6173,903.53,625.3888" style="stroke:#181818;stroke-width:1.0;"/></g><!--MD5=[2b751184c95a4b18a2f362ed47a41364]
link all.tsv to merge2--><g id="link_all.tsv_merge2"><path d="M875.99,663.7488 C856.51,679.7388 828.03,703.0988 807.34,720.0788 " fill="none" id="all.tsv-to-merge2" style="stroke:#181818;stroke-width:1.0;"/><polygon fill="#181818" points="803.31,723.3888,812.807,720.7798,807.1779,720.2203,807.7374,714.5912,803.31,723.3888" style="stroke:#181818;stroke-width:1.0;"/></g><!--MD5=[f81c3c6a894302db58443176a0b2d4f1]
link repaired to merge2--><g id="link_repaired_merge2"><path d="M710.36,663.7488 C724.73,679.5988 745.68,702.7188 761.03,719.6588 " fill="none" id="repaired-to-merge2" style="stroke:#181818;stroke-width:1.0;"/><polygon fill="#181818" points="764.41,723.3888,761.3247,714.0357,761.0502,719.6859,755.4,719.4114,764.41,723.3888" style="stroke:#181818;stroke-width:1.0;"/></g><!--MD5=[ecd67360459a03a867404f1952ada583]
link merge2 to all_with_bertmap.tsv--><g id="link_merge2_all_with_bertmap.tsv"><path d="M781,761.7488 C781,777.1988 781,799.5488 781,816.3588 " fill="none" id="merge2-to-all_with_bertmap.tsv" style="stroke:#181818;stroke-width:1.0;"/><polygon fill="#181818" points="781,821.3888,785,812.3888,781,816.3888,777,812.3888,781,821.3888" style="stroke:#181818;stroke-width:1.0;"/></g><!--MD5=[c7f5ecdea161408f6abbf25742ad6a3d]
link all_with_bertmap.tsv to evaluate--><g id="link_all_with_bertmap.tsv_evaluate"><path d="M781,859.7488 C781,875.1988 781,897.5488 781,914.3588 " fill="none" id="all_with_bertmap.tsv-to-evaluate" style="stroke:#181818;stroke-width:1.0;"/><polygon fill="#181818" points="781,919.3888,785,910.3888,781,914.3888,777,910.3888,781,919.3888" style="stroke:#181818;stroke-width:1.0;"/></g><!--MD5=[4151a4e9ee27f7a9076680b2ff08a2b7]
link evaluate to report.txt--><g id="link_evaluate_report.txt"><path d="M781,957.7488 C781,973.1988 781,995.5488 781,1012.3588 " fill="none" id="evaluate-to-report.txt" style="stroke:#181818;stroke-width:1.0;"/><polygon fill="#181818" points="781,1017.3888,785,1008.3888,781,1012.3888,777,1008.3888,781,1017.3888" style="stroke:#181818;stroke-width:1.0;"/></g><!--MD5=[270f520d59bd79e7abf9782300e4e0a9]
@startuml flow

cloud "Wikidata Query Service" as wikidata #palegreen
file musicClasses.rq
file musicDataProperties.rq
file musicObjectProperties.rq
file musicClasses.rdf
file musicDataProperties.rdf
file musicObjectProperties.rdf
file music.owl #palegreen
rectangle "**download-ontologies.py** (part 1 - fetch)" as wd1 #aliceblue
rectangle "**download-ontologies.py** (part 2 - merge)" as wd2 #aliceblue
musicClasses.rq - -> wd1
musicDataProperties.rq - -> wd1
musicObjectProperties.rq - -> wd1
wikidata - -> wd1
wd1 - -> musicClasses.rdf
wd1 - -> musicDataProperties.rdf
wd1 - -> musicObjectProperties.rdf
musicClasses.rdf - -> wd2
musicDataProperties.rdf - -> wd2
musicObjectProperties.rdf - -> wd2
wd2 - -> music.owl

cloud "Polifonia ontology" as polifonia #palegreen
rectangle "polifonia/**download-ontologies.sh**" as downpolifonia #aliceblue
folder "polifonia/ontology" as polifoniaowl #palegreen
polifonia - -> downpolifonia
downpolifonia - -> polifoniaowl
note right of polifoniaowl: See owl-imports-graph.svg for the patches applied to fix errors

rectangle "**get_known_mappings.py**" as get_known_mappings #aliceblue
file "known_mappings.tsv"
file "wikidata/polifonia_wikidata.tsv" as polifonia_wikidata
file "known_mappings.nq" #palegreen
note bottom of known_mappings.nq: Includes some manual matches, mainly for the core module
known_mappings.nq - -> get_known_mappings
polifoniaowl - -> get_known_mappings
wikidata - -> get_known_mappings
get_known_mappings - -> known_mappings.tsv
get_known_mappings - -> polifonia_wikidata
get_known_mappings - -> known_mappings.nq

rectangle "Notebook **bertmap_match.ipynb**" as notebook #aliceblue
file "bertmap.yaml" as yml
file "bertmap_repaired_mappings.tsv" as repaired
yml - -> notebook
known_mappings.tsv - -> notebook
music.owl - -> notebook
polifoniaowl - -> notebook
notebook - -> repaired

rectangle "**merge_true_with_bertmap.py** (part 1)" as merge1 #aliceblue
rectangle "**merge_true_with_bertmap.py** (part 2)" as merge2 #aliceblue
file all.tsv
polifonia_wikidata - -> merge1
merge1 - -> all.tsv

file "all_with_bertmap.tsv"
note left of all_with_bertmap.tsv: Manual (true) matches are added to all classes which have a Bertmap (predicted) match and no known mapping
all.tsv - -> merge2
repaired - -> merge2
merge2 - -> all_with_bertmap.tsv

rectangle "**evaultate_all_with_bertmap.py**" as evaluate #aliceblue
file "report.txt"
all_with_bertmap.tsv - -> evaluate
evaluate - -> report.txt
@enduml

PlantUML version 1.2022.7(Mon Aug 22 19:01:30 CEST 2022)
(GPL source distribution)
Java Runtime: OpenJDK Runtime Environment
JVM: OpenJDK 64-Bit Server VM
Default Encoding: Cp1252
Language: it
Country: IT
--></g></svg>