<?xml version="1.0" encoding="UTF-8" standalone="no"?><svg xmlns="http://www.w3.org/2000/svg" xmlns:xlink="http://www.w3.org/1999/xlink" contentStyleType="text/css" height="1058px" preserveAspectRatio="none" style="width:1383px;height:1058px;background:#FFFFFF;" version="1.1" viewBox="0 0 1383 1058" width="1383px" zoomAndPan="magnify"><defs/><g><!--MD5=[d6ea01f295ed1d8d4674d95287564287]
cluster merge_true_with_bertmap.py--><g id="cluster_merge_true_with_bertmap.py"><rect fill="#F0F8FF" height="90" rx="2.5" ry="2.5" style="stroke:#181818;stroke-width:1.0;" width="221" x="624" y="684.0925"/><text fill="#000000" font-family="sans-serif" font-size="14" font-weight="bold" lengthAdjust="spacing" textLength="205" x="632" y="700.6257">merge_true_with_bertmap.py</text></g><!--MD5=[283129df4498487297f08a8c78422a6d]
entity merge1--><g id="elem_merge1"><rect fill="#F0F8FF" height="37.6094" rx="2.5" ry="2.5" style="stroke:#181818;stroke-width:0.5;" width="58" x="659" y="720.0925"/><text fill="#000000" font-family="sans-serif" font-size="14" lengthAdjust="spacing" textLength="38" x="669" y="744.6257">Part 1</text></g><!--MD5=[4637a617936e2c1a2a4f01032fa2a44d]
entity merge2--><g id="elem_merge2"><rect fill="#F0F8FF" height="37.6094" rx="2.5" ry="2.5" style="stroke:#181818;stroke-width:0.5;" width="58" x="752" y="720.0925"/><text fill="#000000" font-family="sans-serif" font-size="14" lengthAdjust="spacing" textLength="38" x="762" y="744.6257">Part 2</text></g><!--MD5=[d1ed0d2940ccad314a24ccbc4df5340e]
entity wikidata--><g id="elem_wikidata"><path d="M723.4062,225.7602 C725.8065,218.0106 732.599,216.1379 738.0572,222.6099 C741.5671,213.9979 749.6138,213.4627 755.0276,220.552 C760.8003,214.5126 767.3871,214.7099 770.7821,223.1408 C776.8722,215.941 782.1874,217.1083 786.9312,224.6187 C796.5463,227.866 795.8597,235.3883 789.273,240.9577 C796.9716,246.8573 795.9432,254.1698 786.9366,257.7443 C784.9229,262.8059 780.644,264.2953 776.9914,259.3777 C775.1013,266.2286 770.748,268.19 764.7819,263.808 C763.1541,268.9762 758.8245,269.572 755.1008,266.1776 C750.3179,270.4746 745.9237,268.9771 744.207,262.9441 C739.3853,267.7184 734.5591,264.6394 733.4063,259.1014 C729.7489,263.1827 725.0379,262.7501 723.1077,257.2457 C715.705,253.6094 714.6016,246.5601 720.5141,240.8212 C714.8295,235.5877 715.7339,228.4288 723.4062,225.7602 " fill="#F1F1F1" style="stroke:#181818;stroke-width:0.5;"/><text fill="#000000" font-family="sans-serif" font-size="14" lengthAdjust="spacing" textLength="50" x="729" y="245.6257">wikidata</text></g><!--MD5=[1c13016e174b4afa67c3230f1c32b0b7]
entity downwikidata--><g id="elem_downwikidata"><rect fill="#F0F8FF" height="37.6094" rx="2.5" ry="2.5" style="stroke:#181818;stroke-width:0.5;" width="223" x="845.5" y="328.0925"/><text fill="#000000" font-family="sans-serif" font-size="14" lengthAdjust="spacing" textLength="203" x="855.5" y="352.6257">wikidata/download-ontologies.py</text></g><!--MD5=[b100b5492af8ff18b51bdc5d46eb1f49]
entity musicowl--><g id="elem_musicowl"><path d="M919,428.5925 L919,461.2019 A2.5,2.5 0 0 0 921.5,463.7019 L1108.5,463.7019 A2.5,2.5 0 0 0 1111,461.2019 L1111,436.0925 L1101,426.0925 L921.5,426.0925 A2.5,2.5 0 0 0 919,428.5925 " fill="#98FB98" style="stroke:#181818;stroke-width:0.5;"/><path d="M1101,426.0925 L1101,433.5925 A2.5,2.5 0 0 0 1103.5,436.0925 L1111,436.0925 " fill="#98FB98" style="stroke:#181818;stroke-width:0.5;"/><text fill="#000000" font-family="sans-serif" font-size="14" lengthAdjust="spacing" textLength="172" x="929" y="450.6257">wikidata/ontology/music.owl</text></g><!--MD5=[5724ae74e62823c018648cb2a340b2f4]
entity polifonia--><g id="elem_polifonia"><path d="M934.8252,15.1241 C937.4286,10.0452 942.6466,8.3662 946.4869,13.7447 C948.5857,6.9821 953.6436,6.1371 957.9021,11.7532 C960.4744,6 965.0955,6.291 968.4853,10.9199 C972.2638,6.0104 976.7139,7.2478 979.2474,12.2692 C983.1671,6.9746 988.9967,6.0011 992.3024,12.9252 C996.7288,9.3778 1001.4805,9.238 1003.01,15.949 C1013.7669,15.715 1016.9516,21.2973 1012.0076,30.6639 C1016.0801,39.3008 1012.4163,47.8184 1001.814,47.6476 C997.8141,51.8306 994.5627,51.5444 991.3329,46.7486 C988.6382,51.8299 984.1532,52.0037 980.8542,47.4026 C978.5248,54.373 973.125,54.3131 968.5403,49.8265 C964.6642,54.3259 959.9231,54.9146 956.8982,48.8852 C952.1626,53.6276 948.3772,52.2462 945.8146,46.5728 C943.0561,52.3816 937.6601,52.7516 934.5879,46.8741 C925.2006,46.0272 923.2676,38.3871 928.1665,31.5526 C922.2633,22.7083 925.4203,17.7639 934.8252,15.1241 " fill="#F1F1F1" style="stroke:#181818;stroke-width:0.5;"/><text fill="#000000" font-family="sans-serif" font-size="14" lengthAdjust="spacing" textLength="53" x="941.5" y="35.6257">polifonia</text></g><!--MD5=[78fee9e0a9bcfb7f2468c748de35aa77]
entity downpolifonia--><g id="elem_downpolifonia"><rect fill="#F0F8FF" height="37.6094" rx="2.5" ry="2.5" style="stroke:#181818;stroke-width:0.5;" width="226" x="855" y="114.0925"/><text fill="#000000" font-family="sans-serif" font-size="14" lengthAdjust="spacing" textLength="206" x="865" y="138.6257">polifonia/download-ontologies.sh</text></g><!--MD5=[73c35498f2a02e970c3faca1330d398c]
entity polifoniaowl--><g id="elem_polifoniaowl"><path d="M900,212.0925 L941,212.0925 A3.75,3.75 0 0 1 943.5,214.5925 L950.5,233.0925 L1036,233.0925 A2.5,2.5 0 0 1 1038.5,235.5925 L1038.5,265.2019 A2.5,2.5 0 0 1 1036,267.7019 L900,267.7019 A2.5,2.5 0 0 1 897.5,265.2019 L897.5,214.5925 A2.5,2.5 0 0 1 900,212.0925 " fill="#98FB98" style="stroke:#181818;stroke-width:0.5;"/><line style="stroke:#181818;stroke-width:0.5;" x1="897.5" x2="950.5" y1="233.0925" y2="233.0925"/><text fill="#000000" font-family="sans-serif" font-size="14" lengthAdjust="spacing" textLength="111" x="907.5" y="254.6257">polifonia/ontology</text></g><!--MD5=[a0a3a51b531cb3694e8fd4f62ab304cd]
entity get_known_mappings.py--><g id="elem_get_known_mappings.py"><rect fill="#F0F8FF" height="37.6094" rx="2.5" ry="2.5" style="stroke:#181818;stroke-width:0.5;" width="176" x="549" y="328.0925"/><text fill="#000000" font-family="sans-serif" font-size="14" lengthAdjust="spacing" textLength="156" x="559" y="352.6257">get_known_mappings.py</text></g><!--MD5=[755c5f58ada36855c23cee21a828b0fc]
entity known_mappings.tsv--><g id="elem_known_mappings.tsv"><path d="M732.5,428.5925 L732.5,461.2019 A2.5,2.5 0 0 0 735,463.7019 L881,463.7019 A2.5,2.5 0 0 0 883.5,461.2019 L883.5,436.0925 L873.5,426.0925 L735,426.0925 A2.5,2.5 0 0 0 732.5,428.5925 " fill="#F1F1F1" style="stroke:#181818;stroke-width:0.5;"/><path d="M873.5,426.0925 L873.5,433.5925 A2.5,2.5 0 0 0 876,436.0925 L883.5,436.0925 " fill="#F1F1F1" style="stroke:#181818;stroke-width:0.5;"/><text fill="#000000" font-family="sans-serif" font-size="14" lengthAdjust="spacing" textLength="131" x="742.5" y="450.6257">known_mappings.tsv</text></g><!--MD5=[dcc2b970af72336f7d4d820fb5cbb08d]
entity polifonia_wikidata--><g id="elem_polifonia_wikidata"><path d="M490.5,428.5925 L490.5,461.2019 A2.5,2.5 0 0 0 493,463.7019 L695,463.7019 A2.5,2.5 0 0 0 697.5,461.2019 L697.5,436.0925 L687.5,426.0925 L493,426.0925 A2.5,2.5 0 0 0 490.5,428.5925 " fill="#F1F1F1" style="stroke:#181818;stroke-width:0.5;"/><path d="M687.5,426.0925 L687.5,433.5925 A2.5,2.5 0 0 0 690,436.0925 L697.5,436.0925 " fill="#F1F1F1" style="stroke:#181818;stroke-width:0.5;"/><text fill="#000000" font-family="sans-serif" font-size="14" lengthAdjust="spacing" textLength="187" x="500.5" y="450.6257">wikidata/polifonia_wikidata.tsv</text></g><!--MD5=[8033b862fb1bb83eadd06349bdae6214]
entity known_mappings.nq--><g id="elem_known_mappings.nq"><path d="M306.5,428.5925 L306.5,461.2019 A2.5,2.5 0 0 0 309,463.7019 L453,463.7019 A2.5,2.5 0 0 0 455.5,461.2019 L455.5,436.0925 L445.5,426.0925 L309,426.0925 A2.5,2.5 0 0 0 306.5,428.5925 " fill="#F1F1F1" style="stroke:#181818;stroke-width:0.5;"/><path d="M445.5,426.0925 L445.5,433.5925 A2.5,2.5 0 0 0 448,436.0925 L455.5,436.0925 " fill="#F1F1F1" style="stroke:#181818;stroke-width:0.5;"/><text fill="#000000" font-family="sans-serif" font-size="14" lengthAdjust="spacing" textLength="129" x="316.5" y="450.6257">known_mappings.nq</text></g><g id="elem_GMN16"><path d="M198,530.0925 L198,556.4441 A0,0 0 0 0 198,556.4441 L564,556.4441 A0,0 0 0 0 564,556.4441 L564,540.0925 L554,530.0925 L385,530.0925 L381,464.1525 L377,530.0925 L198,530.0925 A0,0 0 0 0 198,530.0925 " fill="#FEFFDD" style="stroke:#181818;stroke-width:0.5;"/><path d="M554,530.0925 L554,540.0925 L564,540.0925 L554,530.0925 " fill="#FEFFDD" style="stroke:#181818;stroke-width:0.5;"/><text fill="#000000" font-family="sans-serif" font-size="13" lengthAdjust="spacing" textLength="345" x="204" y="548.5877">Includes some manual matches, mainly for the core module</text></g><!--MD5=[389860a1d1ef945b34134be47b1372a9]
entity notebook--><g id="elem_notebook"><rect fill="#F0F8FF" height="37.6094" rx="2.5" ry="2.5" style="stroke:#181818;stroke-width:0.5;" width="79" x="975.5" y="524.0925"/><text fill="#000000" font-family="sans-serif" font-size="14" lengthAdjust="spacing" textLength="59" x="985.5" y="548.6257">notebook</text></g><!--MD5=[6b785f8ac55ff1e4cefb0022ae76bf54]
entity yml--><g id="elem_yml"><path d="M1217.5,428.5925 L1217.5,461.2019 A2.5,2.5 0 0 0 1220,463.7019 L1374,463.7019 A2.5,2.5 0 0 0 1376.5,461.2019 L1376.5,436.0925 L1366.5,426.0925 L1220,426.0925 A2.5,2.5 0 0 0 1217.5,428.5925 " fill="#F1F1F1" style="stroke:#181818;stroke-width:0.5;"/><path d="M1366.5,426.0925 L1366.5,433.5925 A2.5,2.5 0 0 0 1369,436.0925 L1376.5,436.0925 " fill="#F1F1F1" style="stroke:#181818;stroke-width:0.5;"/><text fill="#000000" font-family="sans-serif" font-size="14" lengthAdjust="spacing" textLength="139" x="1227.5" y="450.6257">wikidata/bertmap.yaml</text></g><!--MD5=[733ce2bb84e70bd21f911b8d7f047380]
entity repaired--><g id="elem_repaired"><path d="M849,624.5925 L849,657.2019 A2.5,2.5 0 0 0 851.5,659.7019 L1124.5,659.7019 A2.5,2.5 0 0 0 1127,657.2019 L1127,632.0925 L1117,622.0925 L851.5,622.0925 A2.5,2.5 0 0 0 849,624.5925 " fill="#F1F1F1" style="stroke:#181818;stroke-width:0.5;"/><path d="M1117,622.0925 L1117,629.5925 A2.5,2.5 0 0 0 1119.5,632.0925 L1127,632.0925 " fill="#F1F1F1" style="stroke:#181818;stroke-width:0.5;"/><text fill="#000000" font-family="sans-serif" font-size="14" lengthAdjust="spacing" textLength="258" x="859" y="646.6257">wikidata/bertmap_repaired_mappings.tsv</text></g><!--MD5=[934938dae3e2cc12af892b82562bf0a1]
entity all.tsv--><g id="elem_all.tsv"><path d="M704,624.5925 L704,657.2019 A2.5,2.5 0 0 0 706.5,659.7019 L757.5,659.7019 A2.5,2.5 0 0 0 760,657.2019 L760,632.0925 L750,622.0925 L706.5,622.0925 A2.5,2.5 0 0 0 704,624.5925 " fill="#F1F1F1" style="stroke:#181818;stroke-width:0.5;"/><path d="M750,622.0925 L750,629.5925 A2.5,2.5 0 0 0 752.5,632.0925 L760,632.0925 " fill="#F1F1F1" style="stroke:#181818;stroke-width:0.5;"/><text fill="#000000" font-family="sans-serif" font-size="14" lengthAdjust="spacing" textLength="36" x="714" y="646.6257">all.tsv</text></g><!--MD5=[659ea1eae1dd7bef357c7c1ee80bb90e]
entity all_with_bertmap.tsv--><g id="elem_all_with_bertmap.tsv"><path d="M707,820.5925 L707,853.2019 A2.5,2.5 0 0 0 709.5,855.7019 L852.5,855.7019 A2.5,2.5 0 0 0 855,853.2019 L855,828.0925 L845,818.0925 L709.5,818.0925 A2.5,2.5 0 0 0 707,820.5925 " fill="#F1F1F1" style="stroke:#181818;stroke-width:0.5;"/><path d="M845,818.0925 L845,825.5925 A2.5,2.5 0 0 0 847.5,828.0925 L855,828.0925 " fill="#F1F1F1" style="stroke:#181818;stroke-width:0.5;"/><text fill="#000000" font-family="sans-serif" font-size="14" lengthAdjust="spacing" textLength="128" x="717" y="842.6257">all_with_bertmap.tsv</text></g><g id="elem_GMN40"><path d="M6,824.0925 L6,850.4441 A0,0 0 0 0 6,850.4441 L672,850.4441 A0,0 0 0 0 672,850.4441 L672,842.0925 L706.64,837.0925 L672,834.0925 L672,834.0925 L662,824.0925 L6,824.0925 A0,0 0 0 0 6,824.0925 " fill="#FEFFDD" style="stroke:#181818;stroke-width:0.5;"/><path d="M662,824.0925 L662,834.0925 L672,834.0925 L662,824.0925 " fill="#FEFFDD" style="stroke:#181818;stroke-width:0.5;"/><text fill="#000000" font-family="sans-serif" font-size="13" lengthAdjust="spacing" textLength="645" x="12" y="842.5877">Manual (true) matches are added to all classes which have a Bertmap (predicted) match and no known mapping</text></g><!--MD5=[458561199ace05383467b209cb9e3458]
entity evaluate--><g id="elem_evaluate"><rect fill="#F0F8FF" height="37.6094" rx="2.5" ry="2.5" style="stroke:#181818;stroke-width:0.5;" width="211" x="675.5" y="916.0925"/><text fill="#000000" font-family="sans-serif" font-size="14" lengthAdjust="spacing" textLength="191" x="685.5" y="940.6257">evaultate_all_with_bertmap.py</text></g><!--MD5=[b7878542113b637f13679d462e470c05]
entity report.txt--><g id="elem_report.txt"><path d="M743,1016.5925 L743,1049.2019 A2.5,2.5 0 0 0 745.5,1051.7019 L816.5,1051.7019 A2.5,2.5 0 0 0 819,1049.2019 L819,1024.0925 L809,1014.0925 L745.5,1014.0925 A2.5,2.5 0 0 0 743,1016.5925 " fill="#F1F1F1" style="stroke:#181818;stroke-width:0.5;"/><path d="M809,1014.0925 L809,1021.5925 A2.5,2.5 0 0 0 811.5,1024.0925 L819,1024.0925 " fill="#F1F1F1" style="stroke:#181818;stroke-width:0.5;"/><text fill="#000000" font-family="sans-serif" font-size="14" lengthAdjust="spacing" textLength="56" x="753" y="1038.6257">report.txt</text></g><!--MD5=[516424c9480261d7e8965aed88543e10]
link wikidata to downwikidata--><g id="link_wikidata_downwikidata"><path d="M794.11,261.8325 C829.82,280.3125 881.79,307.1925 917.36,325.5925 " fill="none" id="wikidata-to-downwikidata" style="stroke:#181818;stroke-width:1.0;"/><polygon fill="#181818" points="922.05,328.0125,915.8964,320.3227,917.6097,325.7139,912.2186,327.4272,922.05,328.0125" style="stroke:#181818;stroke-width:1.0;"/></g><!--MD5=[9fb1f62b518dc7be5e1cde091cb761d2]
link downwikidata to musicowl--><g id="link_downwikidata_musicowl"><path d="M967.91,366.1525 C977.33,381.7425 990.98,404.3425 1001.17,421.2025 " fill="none" id="downwikidata-to-musicowl" style="stroke:#181818;stroke-width:1.0;"/><polygon fill="#181818" points="1003.94,425.7925,1002.7011,416.0219,1001.3507,421.5152,995.8574,420.1648,1003.94,425.7925" style="stroke:#181818;stroke-width:1.0;"/></g><!--MD5=[c43d99b2042eb369c788374d615a74f9]
link polifonia to downpolifonia--><g id="link_polifonia_downpolifonia"><path d="M968,54.2625 C968,70.5925 968,92.3625 968,108.7325 " fill="none" id="polifonia-to-downpolifonia" style="stroke:#181818;stroke-width:1.0;"/><polygon fill="#181818" points="968,114.0625,972,105.0625,968,109.0625,964,105.0625,968,114.0625" style="stroke:#181818;stroke-width:1.0;"/></g><!--MD5=[0b89dd9ec0d127c588631ab378953fc8]
link downpolifonia to polifoniaowl--><g id="link_downpolifonia_polifoniaowl"><path d="M968,152.3825 C968,167.2925 968,188.7225 968,206.5425 " fill="none" id="downpolifonia-to-polifoniaowl" style="stroke:#181818;stroke-width:1.0;"/><polygon fill="#181818" points="968,211.9525,972,202.9525,968,206.9525,964,202.9525,968,211.9525" style="stroke:#181818;stroke-width:1.0;"/></g><!--MD5=[c36bc78661973960ff644b41b03c2003]
link known_mappings.nq to get_known_mappings.py--><g id="link_known_mappings.nq_get_known_mappings.py"><path d="M440.21,425.9525 C487.63,409.4525 552.58,385.1425 594.88,368.0925 " fill="none" id="known_mappings.nq-to-get_known_mappings.py" style="stroke:#181818;stroke-width:1.0;"/><polygon fill="#181818" points="599.67,366.1525,589.8272,365.8072,595.0326,368.0218,592.818,373.2271,599.67,366.1525" style="stroke:#181818;stroke-width:1.0;"/></g><!--MD5=[838c98c26374596160a5c93dadb52dd0]
link get_known_mappings.py to known_mappings.nq--><g id="link_get_known_mappings.py_known_mappings.nq"><path d="M578.63,366.1525 C531.46,382.6225 466.51,406.9325 423.95,424.0125 " fill="none" id="get_known_mappings.py-to-known_mappings.nq" style="stroke:#181818;stroke-width:1.0;"/><polygon fill="#181818" points="419.13,425.9525,428.9719,426.3239,423.7724,424.0956,426.0007,418.8961,419.13,425.9525" style="stroke:#181818;stroke-width:1.0;"/></g><!--MD5=[3b218e13d03b261c707b415811e9432d]
link polifoniaowl to get_known_mappings.py--><g id="link_polifoniaowl_get_known_mappings.py"><path d="M897.4,263.4925 C838.42,282.2025 755.16,308.6125 698.79,326.4925 " fill="none" id="polifoniaowl-to-get_known_mappings.py" style="stroke:#181818;stroke-width:1.0;"/><polygon fill="#181818" points="693.76,328.0825,703.5453,329.1993,698.5299,326.583,701.1461,321.5676,693.76,328.0825" style="stroke:#181818;stroke-width:1.0;"/></g><!--MD5=[a297c317e907207fc7cbaa5bae9be566]
link wikidata to get_known_mappings.py--><g id="link_wikidata_get_known_mappings.py"><path d="M728.32,264.1325 C708.27,282.1325 680.61,306.9625 661,324.5625 " fill="none" id="wikidata-to-get_known_mappings.py" style="stroke:#181818;stroke-width:1.0;stroke-dasharray:7.0,7.0;"/><polygon fill="#181818" points="657.18,327.9825,666.5577,324.9729,660.9099,324.6527,661.2301,319.005,657.18,327.9825" style="stroke:#181818;stroke-width:1.0;"/></g><!--MD5=[7a68916d38aa344911d7af2f2d86748f]
link get_known_mappings.py to known_mappings.tsv--><g id="link_get_known_mappings.py_known_mappings.tsv"><path d="M669.16,366.1525 C698.21,382.4525 740.93,406.4425 771.3,423.4925 " fill="none" id="get_known_mappings.py-to-known_mappings.tsv" style="stroke:#181818;stroke-width:1.0;"/><polygon fill="#181818" points="775.69,425.9525,769.8155,418.0475,771.3348,423.4965,765.8858,425.0158,775.69,425.9525" style="stroke:#181818;stroke-width:1.0;"/></g><!--MD5=[65d6195f4f05614efdfe6d7455c17529]
link get_known_mappings.py to polifonia_wikidata--><g id="link_get_known_mappings.py_polifonia_wikidata"><path d="M628.91,366.1525 C621.93,381.7425 611.8,404.3425 604.25,421.2025 " fill="none" id="get_known_mappings.py-to-polifonia_wikidata" style="stroke:#181818;stroke-width:1.0;"/><polygon fill="#181818" points="602.2,425.7925,609.5239,419.2076,604.24,421.2276,602.22,415.9437,602.2,425.7925" style="stroke:#181818;stroke-width:1.0;"/></g><!--MD5=[2059ce5ff7f260f9eaad49a54173f4b8]
link yml to notebook--><g id="link_yml_notebook"><path d="M1243.96,464.1525 C1190.63,482.3025 1109.37,509.9725 1059.36,526.9925 " fill="none" id="yml-to-notebook" style="stroke:#181818;stroke-width:1.0;"/><polygon fill="#181818" points="1054.62,528.6025,1064.4273,529.5069,1059.3562,527,1061.8631,521.9289,1054.62,528.6025" style="stroke:#181818;stroke-width:1.0;"/></g><!--MD5=[38de452834f1d0d9aaa29f4e33ea06c6]
link known_mappings.tsv to notebook--><g id="link_known_mappings.tsv_notebook"><path d="M846.94,464.1525 C882.24,480.5225 934.24,504.6325 971.03,521.7025 " fill="none" id="known_mappings.tsv-to-notebook" style="stroke:#181818;stroke-width:1.0;"/><polygon fill="#181818" points="975.89,523.9525,969.399,516.5453,971.3515,521.8545,966.0422,523.807,975.89,523.9525" style="stroke:#181818;stroke-width:1.0;"/></g><!--MD5=[4a30912ccedb4163520a04b87cce755f]
link musicowl to notebook--><g id="link_musicowl_notebook"><path d="M1015,464.1525 C1015,479.6025 1015,501.9525 1015,518.7625 " fill="none" id="musicowl-to-notebook" style="stroke:#181818;stroke-width:1.0;"/><polygon fill="#181818" points="1015,523.7925,1019,514.7925,1015,518.7925,1011,514.7925,1015,523.7925" style="stroke:#181818;stroke-width:1.0;"/></g><!--MD5=[74f5634af1e53b4fa5692eb837be1fa0]
link polifoniaowl to notebook--><g id="link_polifoniaowl_notebook"><path d="M1016.08,268.2825 C1039.58,283.4625 1066.85,304.1425 1086,328.0925 C1115.7,365.2425 1119.24,379.5425 1129,426.0925 C1132.47,442.6225 1136.88,449.1525 1129,464.0925 C1114.31,491.9525 1084.69,511.7525 1059.32,524.4325 " fill="none" id="polifoniaowl-to-notebook" style="stroke:#181818;stroke-width:1.0;"/><polygon fill="#181818" points="1054.64,526.7225,1064.4828,526.3761,1059.1348,524.5324,1060.9785,519.1844,1054.64,526.7225" style="stroke:#181818;stroke-width:1.0;"/></g><!--MD5=[6dff111bf92f4e1c39efcc99d9302000]
link notebook to repaired--><g id="link_notebook_repaired"><path d="M1009.92,562.1525 C1005.57,577.6025 999.29,599.9525 994.56,616.7625 " fill="none" id="notebook-to-repaired" style="stroke:#181818;stroke-width:1.0;"/><polygon fill="#181818" points="993.15,621.7925,999.4419,614.2154,994.5066,616.9801,991.742,612.0449,993.15,621.7925" style="stroke:#181818;stroke-width:1.0;"/></g><!--MD5=[bf60bf5be5348fbfdc7b7b0c8d3b5c06]
link polifonia_wikidata to merge1--><g id="link_polifonia_wikidata_merge1"><path d="M599.88,464.3625 C616.27,515.2625 662.43,658.6625 680.56,714.9725 " fill="none" id="polifonia_wikidata-to-merge1" style="stroke:#181818;stroke-width:1.0;"/><polygon fill="#181818" points="682.12,719.8325,683.1835,710.0413,680.5946,715.0709,675.5649,712.482,682.12,719.8325" style="stroke:#181818;stroke-width:1.0;"/></g><!--MD5=[298149d0bf12cafed7710bee071506e1]
link merge1 to all.tsv--><g id="link_merge1_all.tsv"><path d="M696.39,719.7925 C703.57,704.1325 713.93,681.5125 721.63,664.7225 " fill="none" id="merge1-to-all.tsv" style="stroke:#181818;stroke-width:1.0;"/><polygon fill="#181818" points="723.72,660.1525,716.3296,666.6627,721.6338,664.6965,723.6,670.0007,723.72,660.1525" style="stroke:#181818;stroke-width:1.0;"/></g><!--MD5=[2b751184c95a4b18a2f362ed47a41364]
link all.tsv to merge2--><g id="link_all.tsv_merge2"><path d="M741.22,660.1525 C749.17,675.7425 760.71,698.3425 769.31,715.2025 " fill="none" id="all.tsv-to-merge2" style="stroke:#181818;stroke-width:1.0;"/><polygon fill="#181818" points="771.66,719.7925,771.1246,709.9582,769.3839,715.3406,764.0016,713.5999,771.66,719.7925" style="stroke:#181818;stroke-width:1.0;"/></g><!--MD5=[f81c3c6a894302db58443176a0b2d4f1]
link repaired to merge2--><g id="link_repaired_merge2"><path d="M949.06,660.1525 C910.4,678.0825 851.71,705.3025 814.9,722.3725 " fill="none" id="repaired-to-merge2" style="stroke:#181818;stroke-width:1.0;"/><polygon fill="#181818" points="810.08,724.6025,819.9278,724.457,814.6185,722.5045,816.571,717.1953,810.08,724.6025" style="stroke:#181818;stroke-width:1.0;"/></g><!--MD5=[ecd67360459a03a867404f1952ada583]
link merge2 to all_with_bertmap.tsv--><g id="link_merge2_all_with_bertmap.tsv"><path d="M781,758.1525 C781,773.6025 781,795.9525 781,812.7625 " fill="none" id="merge2-to-all_with_bertmap.tsv" style="stroke:#181818;stroke-width:1.0;"/><polygon fill="#181818" points="781,817.7925,785,808.7925,781,812.7925,777,808.7925,781,817.7925" style="stroke:#181818;stroke-width:1.0;"/></g><!--MD5=[c7f5ecdea161408f6abbf25742ad6a3d]
link all_with_bertmap.tsv to evaluate--><g id="link_all_with_bertmap.tsv_evaluate"><path d="M781,856.1525 C781,871.6025 781,893.9525 781,910.7625 " fill="none" id="all_with_bertmap.tsv-to-evaluate" style="stroke:#181818;stroke-width:1.0;"/><polygon fill="#181818" points="781,915.7925,785,906.7925,781,910.7925,777,906.7925,781,915.7925" style="stroke:#181818;stroke-width:1.0;"/></g><!--MD5=[4151a4e9ee27f7a9076680b2ff08a2b7]
link evaluate to report.txt--><g id="link_evaluate_report.txt"><path d="M781,954.1525 C781,969.6025 781,991.9525 781,1008.7625 " fill="none" id="evaluate-to-report.txt" style="stroke:#181818;stroke-width:1.0;"/><polygon fill="#181818" points="781,1013.7925,785,1004.7925,781,1008.7925,777,1004.7925,781,1013.7925" style="stroke:#181818;stroke-width:1.0;"/></g><!--MD5=[0c2543eba5e236dce4543a4ae704f400]
@startuml flow
cloud wikidata
rectangle "wikidata/download-ontologies.py" as downwikidata #aliceblue
file "wikidata/ontology/music.owl" as musicowl #palegreen
wikidata - -> downwikidata
downwikidata - -> musicowl

cloud polifonia
rectangle "polifonia/download-ontologies.sh" as downpolifonia #aliceblue
folder "polifonia/ontology" as polifoniaowl #palegreen
polifonia - -> downpolifonia
downpolifonia - -> polifoniaowl

rectangle "get_known_mappings.py" #aliceblue
file "known_mappings.tsv"
file "wikidata/polifonia_wikidata.tsv" as polifonia_wikidata
file "known_mappings.nq"
note bottom of known_mappings.nq: Includes some manual matches, mainly for the core module
known_mappings.nq - -> get_known_mappings.py
polifoniaowl - -> get_known_mappings.py
wikidata ..> get_known_mappings.py
get_known_mappings.py - -> known_mappings.tsv
get_known_mappings.py - -> polifonia_wikidata
get_known_mappings.py - -> known_mappings.nq

rectangle notebook #aliceblue
file "wikidata/bertmap.yaml" as yml
file "wikidata/bertmap_repaired_mappings.tsv" as repaired
yml - -> notebook
known_mappings.tsv - -> notebook
musicowl - -> notebook
polifoniaowl - -> notebook
notebook - -> repaired

rectangle "merge_true_with_bertmap.py" #aliceblue {
rectangle "Part 1" as merge1 #aliceblue
rectangle "Part 2" as merge2 #aliceblue
}
file all.tsv
polifonia_wikidata - -> merge1
merge1 - -> all.tsv

file "all_with_bertmap.tsv"
note left of all_with_bertmap.tsv: Manual (true) matches are added to all classes which have a Bertmap (predicted) match and no known mapping
all.tsv - -> merge2
repaired - -> merge2
merge2 - -> all_with_bertmap.tsv

rectangle evaultate_all_with_bertmap.py as evaluate #aliceblue
file "report.txt"
all_with_bertmap.tsv - -> evaluate
evaluate - -> report.txt
@enduml

PlantUML version 1.2022.7(Mon Aug 22 19:01:30 CEST 2022)
(GPL source distribution)
Java Runtime: Java(TM) SE Runtime Environment
JVM: Java HotSpot(TM) 64-Bit Server VM
Default Encoding: UTF-8
Language: it
Country: IT
--></g></svg>